<svg xmlns="http://www.w3.org/2000/svg" width="25" height="25"><path d="M12.5 0C19.4 0 25 5.6 25 12.5S19.4 25 12.5 25 0 19.4 0 12.5 5.6 0 12.5 0zm-2.2 19.1c5.5 0 8.6-4.6 8.6-8.6v-.4c.6-.4 1.1-1 1.5-1.6-.5.2-1.1.4-1.7.5.6-.4 1.1-1 1.3-1.7-.6.5-1.3.7-2 .9-.5-.6-1.3-.9-2.2-.9-1.7 0-3 1.3-3 3 0 .2 0 .5.1.7-2.5-.1-4.7-1.3-6.2-3.1-.3.4-.4 1-.4 1.5 0 1 .5 2 1.3 2.5-.5 0-1-.1-1.4-.4 0 1.5 1 2.7 2.4 2.9-.2.1-.5.1-.8.1-.2 0-.4 0-.6-.1.4 1.2 1.5 2.1 2.8 2.1-1 .8-2.3 1.3-3.7 1.3h-.7c1.4.8 3 1.3 4.7 1.3z" fill-rule="evenodd" clip-rule="evenodd" fill="#fff"></path></svg>