<svg xmlns="http://www.w3.org/2000/svg" width="25" height="25"><path d="M12.5 0C19.4 0 25 5.6 25 12.5S19.4 25 12.5 25 0 19.4 0 12.5 5.6 0 12.5 0zm0 4.7H9.3c-.8 0-1.4.2-1.9.4s-1 .5-1.4.9c-.4.4-.7.9-.9 1.4-.2.5-.3 1-.4 1.9v6.4c0 .8.2 1.4.4 1.9s.5 1 .9 1.4c.4.4.9.7 1.4.9.5.2 1.1.3 1.9.4h6.4c.8 0 1.4-.2 1.9-.4s.9-.5 1.4-.9c.4-.4.7-.9.9-1.4.2-.5.3-1.1.4-1.9V9.3c0-.8-.2-1.4-.4-1.9s-.5-1-.9-1.4c-.4-.4-.9-.7-1.4-.9-.5-.2-1.1-.3-1.9-.4h-3.2zm0 1.4h3.2c.8 0 1.2.2 1.5.3.3.2.5.3.8.6.3.3.4.5.6.9.1.3.2.7.3 1.5v6.4c0 .8-.2 1.2-.3 1.5-.1.4-.3.6-.6.9-.3.3-.5.4-.9.6-.3.1-.7.2-1.5.3H9.2c-.8 0-1.2-.2-1.5-.3-.2-.4-.4-.5-.7-.8-.3-.3-.4-.5-.6-.9-.1-.3-.2-.7-.3-1.5V9.2c0-.8.2-1.2.3-1.5.2-.2.3-.4.6-.7.3-.3.5-.4.9-.6.3-.1.7-.2 1.5-.3h3.1zm0 2.4c-2.2 0-4 1.8-4 4s1.8 4 4 4 4-1.8 4-4-1.8-4-4-4zm0 6.6c-1.4 0-2.6-1.2-2.6-2.6s1.2-2.6 2.6-2.6 2.6 1.2 2.6 2.6-1.2 2.6-2.6 2.6zm5.1-6.8c0 .5-.4.9-.9.9s-.9-.4-.9-.9.4-.9.9-.9.9.4.9.9z" fill-rule="evenodd" clip-rule="evenodd" fill="#fff"></path></svg>