<svg width="53" height="40" fill="none" xmlns="http://www.w3.org/2000/svg"><path fill-rule="evenodd" clip-rule="evenodd" d="M49.798 36.104h-7.47v-19.92a6.223 6.223 0 00-7.464-6.099 8.684 8.684 0 016.22-2.615 8.714 8.714 0 018.714 8.715v19.919zm-19.92-19.92v7.47a8.717 8.717 0 01-12.088 8.037 8.687 8.687 0 01-2.845-1.936 6.225 6.225 0 007.463-6.1v-7.47c0-7.563 6.132-13.694 13.695-13.694 3.32 0 6.364 1.182 8.735 3.148a11.16 11.16 0 00-3.755-.659c-6.188 0-11.205 5.017-11.205 11.205v-.001zM16.184 37.351c-7.564 0-13.694-6.132-13.694-13.696V3.736h7.469v19.918c0 6.189 5.017 11.206 11.205 11.206 1.319 0 2.579-.24 3.754-.659a13.64 13.64 0 01-8.734 3.15zM36.104 0c-8.94 0-16.185 7.247-16.185 16.185v7.47a3.735 3.735 0 11-7.47 0V1.244H0v22.41c0 8.939 7.246 16.184 16.185 16.184 8.552 0 15.536-6.637 16.127-15.038.037-.377.057-.759.057-1.147v-7.47a3.735 3.735 0 117.47 0v22.41h12.45v-22.41c0-.385-.02-.768-.058-1.145C51.64 6.638 44.655.001 36.103.001L36.104 0z" fill="#fff"></path></svg>