<svg xmlns="http://www.w3.org/2000/svg" width="25" height="25"><path d="M12.5 25zm0 0zm-.1 0zm.2 0zm-.2 0zm.2 0zm.1 0zm-.4 0zm.4 0zm-.4 0zm.4 0zm-.4 0zm-.1 0zm.6 0zm-.6 0zm.6 0zm.1 0zm-.8 0zm0 0zm.8 0zm0 0zm-.9 0zm0 0zm1 0zm-1 0zm1 0zm-1.1 0zm1.2 0zm-1.2 0zm1.2 0zm-1.2 0zm1.2 0zm.1 0zm-1.4 0zm1.4 0zm-1.4 0zm-.1 0zm1.6 0zm-1.6 0zm1.6 0zm0 0zm-1.7 0zm0 0zm1.8 0zm-1.8 0zm1.8 0zm-1.9 0zm2 0zm0 0zm-2 0zm0 0zm2 0zm-2.1 0zm2.2 0zm0 0zm-2.2-.1zm-.1 0zm2.4 0zm-3.2-.1C4.6 23.9 0 18.7 0 12.5 0 5.6 5.6 0 12.5 0S25 5.6 25 12.5c0 6.2-4.6 11.4-10.5 12.3v-8.7h2.9l.6-3.6h-3.5v-2.3c0-1 .5-2 2-2h1.6V5.1s-1.4-.2-2.8-.2c-2.9 0-4.7 1.7-4.7 4.9v2.8H7.4v3.6h3.2v8.6z" fill-rule="evenodd" clip-rule="evenodd" fill="#fff"></path></svg>