<svg xmlns="http://www.w3.org/2000/svg" width="188" height="35" viewBox="0 0 188 35" fill="none"><g clip-path="url(#clip0_2246_20713)"><path d="M68.1557 3.6666C65.4649 1.22262 61.8762 0.000280582 57.3926 0.000280582C51.8521 0.000280582 47.8173 0.928825 44.9852 3.60622H44.5143L44.2078 0.673162H38.8262V34.3076H44.7458V16.2795C44.7458 12.6028 45.7992 9.85512 47.9077 8.03882C50.0149 6.2227 52.7058 5.31446 55.9799 5.31446C59.1182 5.31446 61.6072 6.15561 63.4464 7.83719C65.2851 9.51895 66.2047 12.1086 66.2047 15.6068V34.3076H72.1919V14.194C72.1919 9.61994 70.8465 6.11111 68.1557 3.6666Z" fill="#81809B"></path><path d="M122.689 24.4547L122.248 24.4643V0.684461H116.261V34.3076H121.866L149.72 0.684461H142.676L122.689 24.4547Z" fill="#81809B"></path><path d="M19.2112 24.5121C17.7488 24.5121 16.3851 24.5734 15.1151 24.7086L27.0307 10.5374L27.4715 10.5278L27.4714 26.2495C25.1411 25.0935 22.389 24.5121 19.2112 24.5121ZM0 34.3076H3.96293H7.05664C7.25278 34.0751 7.81669 33.4056 8.0896 33.0688C8.405 32.6792 8.7535 32.3187 9.13664 31.9888C11.375 30.0596 14.2329 29.0948 17.7108 29.0948C21.0441 29.0948 23.688 29.9884 25.6417 31.7745C26.4014 32.4694 27.0035 33.3203 27.4673 34.3076H27.4714H33.2923H33.4584V0.684461H27.8543L0 34.3076Z" fill="#81809B"></path><path d="M104.922 19.3852C104.922 22.8834 104.003 25.4729 102.164 27.1546C100.325 28.8362 97.8359 29.6773 94.6975 29.6773H93.7557C90.6175 29.6773 88.1285 28.8362 86.2891 27.1546C84.4505 25.4729 83.5312 22.8834 83.5312 19.3852V0.684176H77.5439V20.7978C77.5439 25.3719 78.8894 28.8807 81.5802 31.3254C84.2708 33.7692 87.86 34.9271 92.3431 34.9915C93.1295 35.0028 95.4357 35.0028 96.1102 34.9915C100.593 34.9163 104.183 33.7692 106.873 31.3254C109.564 28.8807 110.91 25.3719 110.91 20.7978V0.684176H104.922V19.3852" fill="#81809B"></path><path d="M181.273 0.684176V19.3852C181.273 22.8834 180.353 25.4729 178.515 27.1546C176.676 28.8362 174.187 29.6773 171.049 29.6773H170.107C166.969 29.6773 164.48 28.8362 162.64 27.1546C160.802 25.4729 159.882 22.8834 159.882 19.3852V0.684176H153.895V20.7978C153.895 25.3719 155.24 28.8807 157.931 31.3254C160.622 33.7692 164.211 34.9271 168.694 34.9915C169.481 35.0028 171.787 35.0028 172.462 34.9915C176.944 34.9163 180.534 33.7692 183.224 31.3254C185.915 28.8807 187.261 25.3719 187.261 20.7978V0.684176H181.273" fill="#81809B"></path></g><defs><clipPath id="clip0_2246_20713"><rect width="187.26" height="35" fill="white"></rect></clipPath></defs></svg>