<svg width="25" height="24" fill="none" xmlns="http://www.w3.org/2000/svg"><path d="M12.743 23c-.446 0-.883-.028-1.316-.08a10.93 10.93 0 01-.244-2.309c0-6.076 4.926-11 10.998-11 .447 0 .883.028 1.316.08.16.744.245 1.516.245 2.309 0 6.076-4.923 11-10.999 11zm0 0C6.668 23 1.745 18.076 1.745 12c0-2.33.723-4.487 1.96-6.265a11.085 11.085 0 013.229-.482c6.075 0 10.998 4.924 10.998 11 0 2.33-.723 4.488-1.959 6.265a11.077 11.077 0 01-3.23.482zm.004-22c-1.68 0-3.271.377-4.696 1.051-.01.203-.017.405-.017.611 0 6.076 4.923 11 10.998 11 1.68 0 3.271-.377 4.696-1.05.01-.203.017-.406.017-.612M12.747 1c6.072 0 10.998 4.927 10.998 11M12.747 1C6.673 1 1.75 5.925 1.75 12s4.924 11 10.998 11c6.074 0 10.998-4.925 10.998-11M12.747 1c6.074 0 10.998 4.925 10.998 11" stroke="#fff" stroke-width="1.5" stroke-miterlimit="10"></path></svg>