<svg xmlns="http://www.w3.org/2000/svg" width="151" height="41" viewBox="0 0 151 41" fill="none"><path d="M45.1205 28.2648C46.1604 28.2648 47.0464 28.0331 47.7786 27.5697C48.4954 27.1252 49.0664 26.4818 49.4213 25.7185C49.7794 24.9349 49.9647 24.0838 49.9647 23.2228C49.9647 22.3617 49.7794 21.5107 49.4213 20.727C49.0652 19.965 48.4945 19.3227 47.7786 18.8781C47.0464 18.4193 46.1604 18.1899 45.1205 18.1899H43.32C43.2529 18.1902 43.1887 18.2169 43.1413 18.2642C43.0938 18.3114 43.0671 18.3754 43.0668 18.4423V28.0124C43.0668 28.0794 43.0934 28.1435 43.1409 28.1909C43.1884 28.2382 43.2528 28.2648 43.32 28.2648H45.1205ZM39.2356 15.2377C39.2356 15.2045 39.2422 15.1715 39.255 15.1409C39.2678 15.1102 39.2865 15.0823 39.3102 15.0589C39.3338 15.0354 39.3619 15.0168 39.3927 15.0042C39.4236 14.9916 39.4567 14.9852 39.49 14.9854H45.4762C47.1922 14.9854 48.6888 15.3581 49.9658 16.1036C51.2033 16.8089 52.2184 17.8445 52.8968 19.0937C53.5645 20.3717 53.9132 21.7912 53.9132 23.2319C53.9132 24.6727 53.5645 26.0922 52.8968 27.3701C52.2227 28.6228 51.2066 29.6599 49.9658 30.3614C48.6903 31.0985 47.1938 31.467 45.4762 31.467H39.49C39.4567 31.4672 39.4236 31.4608 39.3927 31.4482C39.3619 31.4356 39.3338 31.417 39.3102 31.3935C39.2865 31.3701 39.2678 31.3422 39.255 31.3115C39.2422 31.2809 39.2356 31.248 39.2356 31.2147V15.2377Z" fill="#10363D"></path><path d="M70.1288 30.3955C69.0344 29.4175 68.4588 28.0649 68.402 26.3376C68.4008 26.3035 68.4065 26.2696 68.4187 26.2378C68.4309 26.206 68.4494 26.1769 68.4732 26.1524C68.4969 26.1279 68.5254 26.1084 68.5569 26.0951C68.5884 26.0818 68.6222 26.0749 68.6564 26.0749H71.9845C72.0494 26.0748 72.1118 26.0995 72.1589 26.1439C72.206 26.1883 72.2342 26.249 72.2378 26.3135C72.2769 27.0942 72.5152 27.7132 72.9527 28.1704C73.4331 28.6728 74.0908 28.924 74.9258 28.924C75.6342 28.924 76.1818 28.7668 76.5686 28.4526C76.9554 28.1383 77.1472 27.691 77.1442 27.1106C77.1442 26.6083 76.9987 26.2042 76.7079 25.8983C76.417 25.5925 75.8932 25.2904 75.1365 24.9922L72.1584 23.8384C71.0555 23.4301 70.2205 22.8455 69.6534 22.0847C69.0862 21.3239 68.8026 20.4094 68.8026 19.3412C68.7846 18.4448 69.0355 17.5634 69.5233 16.8099C70.0296 16.0586 70.7438 15.4697 71.5793 15.1147C72.4696 14.714 73.5056 14.5137 74.6875 14.5137C75.8863 14.5137 76.9423 14.7297 77.8556 15.1617C78.7243 15.5557 79.462 16.1888 79.9818 16.9865C80.4516 17.734 80.7109 18.5937 80.7324 19.4754C80.7341 19.5096 80.7288 19.5438 80.7169 19.576C80.705 19.6081 80.6866 19.6375 80.6629 19.6624C80.6392 19.6873 80.6108 19.7071 80.5792 19.7207C80.5476 19.7343 80.5135 19.7414 80.4791 19.7415H77.158C77.0932 19.7413 77.0309 19.7165 76.9839 19.6722C76.9368 19.6279 76.9085 19.5673 76.9047 19.5029C76.8679 18.8491 76.6733 18.3399 76.321 17.9752C75.9273 17.5669 75.3602 17.3631 74.6196 17.3638C74.0049 17.3638 73.5214 17.5084 73.1656 17.7985C72.9907 17.9423 72.8518 18.1245 72.7597 18.3309C72.6676 18.5374 72.6249 18.7623 72.6349 18.9879C72.6325 19.2079 72.6776 19.4258 72.7672 19.6269C72.8568 19.828 72.9888 20.0075 73.1541 20.1532C73.5003 20.4759 74.0831 20.8016 74.9028 21.1304L77.6449 22.2132C78.7785 22.6536 79.6173 23.258 80.1614 24.0265C80.7056 24.7949 80.9772 25.737 80.9765 26.8526C80.9964 27.8021 80.7332 28.7361 80.2201 29.5364C79.698 30.3207 78.9597 30.938 78.0939 31.3142C77.1798 31.7294 76.1161 31.9374 74.9028 31.9382C72.8706 31.9382 71.2792 31.4239 70.1288 30.3955Z" fill="#10363D"></path><path d="M98.021 14.7334H101.34C101.373 14.7332 101.406 14.7397 101.437 14.7523C101.468 14.7649 101.496 14.7835 101.519 14.807C101.543 14.8304 101.561 14.8583 101.574 14.889C101.587 14.9197 101.593 14.9526 101.593 14.9857V27.8247C101.593 27.8917 101.62 27.9559 101.668 28.0032C101.716 28.0505 101.78 28.077 101.848 28.077H107.488C107.556 28.077 107.62 28.1036 107.668 28.1509C107.716 28.1982 107.742 28.2623 107.743 28.3294V31.2151C107.743 31.2483 107.736 31.2812 107.723 31.3119C107.711 31.3426 107.692 31.3705 107.668 31.3939C107.645 31.4174 107.616 31.4359 107.586 31.4485C107.555 31.4612 107.522 31.4676 107.488 31.4674H98.021C97.9877 31.4676 97.9547 31.4612 97.9239 31.4485C97.8931 31.4359 97.8651 31.4173 97.8415 31.3939C97.818 31.3704 97.7993 31.3425 97.7867 31.3118C97.774 31.2812 97.7676 31.2483 97.7677 31.2151V14.9857C97.7676 14.9526 97.774 14.9197 97.7867 14.889C97.7993 14.8583 97.818 14.8304 97.8415 14.807C97.8651 14.7835 97.8931 14.7649 97.9239 14.7523C97.9547 14.7397 97.9877 14.7332 98.021 14.7334Z" fill="#10363D"></path><path d="M125.53 14.9854H129.048C129.094 14.9856 129.138 14.998 129.178 15.0214C129.217 15.0448 129.249 15.0783 129.271 15.1184L134.464 24.7654C134.491 24.8148 134.534 24.8538 134.586 24.8763C134.637 24.8988 134.695 24.9035 134.75 24.8897C134.805 24.8759 134.853 24.8444 134.888 24.8001C134.923 24.7558 134.942 24.7012 134.942 24.645V15.24C134.942 15.1731 134.969 15.1091 135.016 15.0619C135.064 15.0146 135.128 14.9879 135.195 14.9876H138.351C138.384 14.9875 138.417 14.9939 138.448 15.0065C138.479 15.0191 138.507 15.0377 138.53 15.0611C138.554 15.0846 138.573 15.1125 138.586 15.1431C138.598 15.1738 138.605 15.2067 138.605 15.24V31.217C138.605 31.2502 138.598 31.2831 138.586 31.3138C138.573 31.3445 138.554 31.3724 138.53 31.3958C138.507 31.4193 138.479 31.4378 138.448 31.4505C138.417 31.4631 138.384 31.4695 138.351 31.4693H134.839C134.793 31.4707 134.747 31.4593 134.706 31.4362C134.665 31.4131 134.632 31.3794 134.609 31.3386L129.415 21.6916C129.389 21.6423 129.346 21.6031 129.295 21.5803C129.244 21.5574 129.187 21.5521 129.132 21.5652C129.078 21.5784 129.029 21.6091 128.994 21.6528C128.959 21.6964 128.939 21.7504 128.938 21.8063V31.2113C128.938 31.2783 128.911 31.3425 128.864 31.3898C128.816 31.4371 128.751 31.4636 128.684 31.4636H125.529C125.461 31.4636 125.397 31.437 125.35 31.3897C125.302 31.3424 125.275 31.2782 125.275 31.2113V15.2377C125.275 15.1708 125.302 15.1066 125.35 15.0593C125.397 15.0119 125.461 14.9854 125.529 14.9854" fill="#10363D"></path><path d="M140.519 14.9854H150.126C150.193 14.9854 150.258 15.0119 150.306 15.0592C150.353 15.1065 150.38 15.1707 150.381 15.2377V17.7931C150.381 17.8603 150.354 17.9248 150.306 17.9723C150.258 18.0199 150.194 18.0466 150.126 18.0466H144.348C144.281 18.0466 144.217 18.0731 144.169 18.1204C144.121 18.1677 144.094 18.2319 144.094 18.2989V21.5367C144.094 21.604 144.121 21.6684 144.168 21.716C144.216 21.7635 144.281 21.7902 144.348 21.7902H150.126C150.16 21.7901 150.194 21.7967 150.225 21.8096C150.256 21.8226 150.284 21.8417 150.308 21.8657C150.332 21.8898 150.35 21.9183 150.363 21.9497C150.375 21.981 150.381 22.0146 150.381 22.0483V24.5337C150.381 24.567 150.374 24.5999 150.361 24.6306C150.348 24.6612 150.33 24.6891 150.306 24.7126C150.282 24.736 150.254 24.7546 150.223 24.7672C150.193 24.7798 150.16 24.7862 150.126 24.7861H144.348C144.281 24.7861 144.217 24.8126 144.169 24.8599C144.121 24.9072 144.094 24.9714 144.094 25.0384V28.1592C144.094 28.1925 144.101 28.2254 144.113 28.2561C144.126 28.2868 144.145 28.3146 144.169 28.3381C144.192 28.3615 144.22 28.3801 144.251 28.3927C144.282 28.4053 144.315 28.4117 144.348 28.4116H150.126C150.194 28.4116 150.258 28.4383 150.306 28.4858C150.354 28.5333 150.381 28.5978 150.381 28.665V31.2205C150.38 31.2875 150.353 31.3517 150.306 31.3989C150.258 31.4462 150.193 31.4728 150.126 31.4728H140.519C140.452 31.4728 140.388 31.4462 140.34 31.3989C140.293 31.3516 140.266 31.2874 140.266 31.2205V15.2377C140.266 15.1708 140.293 15.1066 140.34 15.0593C140.388 15.0119 140.452 14.9854 140.519 14.9854Z" fill="#10363D"></path><path d="M58.9094 25.5408L60.544 19.7853C60.555 19.7463 60.5785 19.7119 60.6109 19.6874C60.6434 19.6629 60.6829 19.6496 60.7236 19.6496C60.7643 19.6496 60.8039 19.6629 60.8363 19.6874C60.8688 19.7119 60.8922 19.7463 60.9032 19.7853L62.5379 25.5408C62.5485 25.5771 62.5504 25.6154 62.5435 25.6526C62.5366 25.6898 62.521 25.7249 62.4981 25.7551C62.4752 25.7853 62.4455 25.8097 62.4115 25.8265C62.3774 25.8432 62.3399 25.8518 62.3019 25.8516H59.1454C59.1074 25.8516 59.0701 25.8428 59.0361 25.826C59.0022 25.8092 58.9726 25.7848 58.9497 25.7547C58.9269 25.7245 58.9113 25.6895 58.9043 25.6524C58.8973 25.6153 58.899 25.5771 58.9094 25.5408ZM68.1787 31.2239L62.6807 15.1115C62.6683 15.0747 62.6447 15.0427 62.613 15.0201C62.5814 14.9974 62.5435 14.9853 62.5045 14.9854H58.9197C58.8807 14.9851 58.8427 14.9972 58.811 15.0199C58.7794 15.0425 58.7558 15.0746 58.7436 15.1115L53.2685 31.2239C53.259 31.2518 53.2563 31.2816 53.2607 31.3107C53.265 31.3399 53.2762 31.3676 53.2935 31.3916C53.3107 31.4156 53.3333 31.4351 53.3596 31.4487C53.3859 31.4622 53.4151 31.4693 53.4447 31.4693H57.0341C57.0893 31.4694 57.143 31.4515 57.187 31.4184C57.2311 31.3853 57.2631 31.3387 57.2781 31.2858L57.9688 28.8451H63.4738L64.1645 31.2858C64.1798 31.3386 64.2118 31.3851 64.2558 31.4182C64.2998 31.4513 64.3534 31.4692 64.4086 31.4693H67.998C68.0276 31.4693 68.0567 31.4622 68.083 31.4487C68.1093 31.4351 68.132 31.4156 68.1492 31.3916C68.1664 31.3676 68.1777 31.3399 68.182 31.3107C68.1863 31.2816 68.1836 31.2518 68.1741 31.2239" fill="#10363D"></path><path d="M114.533 25.5404L116.167 19.785C116.178 19.746 116.202 19.7116 116.234 19.6871C116.267 19.6626 116.306 19.6493 116.347 19.6493C116.387 19.6493 116.427 19.6626 116.46 19.6871C116.492 19.7116 116.515 19.746 116.526 19.785L118.162 25.5404C118.172 25.5768 118.174 25.6151 118.167 25.6522C118.16 25.6893 118.144 25.7242 118.121 25.7543C118.098 25.7844 118.068 25.8088 118.034 25.8256C118 25.8424 117.963 25.8512 117.925 25.8512H114.769C114.731 25.8504 114.694 25.841 114.661 25.8238C114.628 25.8066 114.599 25.7821 114.577 25.7521C114.555 25.7221 114.54 25.6874 114.533 25.6507C114.526 25.614 114.528 25.5763 114.538 25.5404H114.533ZM123.802 31.2236L118.304 15.1135C118.292 15.0766 118.268 15.0445 118.236 15.0218C118.205 14.9991 118.167 14.9871 118.128 14.9873H114.543C114.504 14.9871 114.466 14.9991 114.434 15.0218C114.403 15.0445 114.379 15.0766 114.367 15.1135L108.892 31.2236C108.882 31.2516 108.879 31.2814 108.884 31.3107C108.888 31.3399 108.9 31.3677 108.917 31.3917C108.934 31.4157 108.957 31.4353 108.984 31.4487C109.01 31.4622 109.039 31.4691 109.069 31.469H112.657C112.713 31.4692 112.766 31.4513 112.811 31.4182C112.855 31.3851 112.887 31.3385 112.902 31.2855L113.593 28.8448H119.097L119.788 31.2855C119.803 31.3383 119.835 31.3848 119.879 31.4178C119.923 31.4509 119.977 31.4689 120.032 31.469H123.621C123.651 31.4689 123.68 31.4618 123.706 31.4483C123.732 31.4348 123.755 31.4152 123.772 31.3913C123.79 31.3673 123.801 31.3396 123.805 31.3104C123.809 31.2812 123.807 31.2515 123.797 31.2236" fill="#10363D"></path><path d="M95.7682 14.9855H92.447C92.3798 14.9855 92.3154 15.0121 92.2679 15.0594C92.2204 15.1068 92.1937 15.1709 92.1937 15.2379V21.3959C92.1937 21.4291 92.1871 21.4621 92.1743 21.4929C92.1616 21.5236 92.1428 21.5515 92.1192 21.5751C92.0956 21.5986 92.0675 21.6173 92.0367 21.63C92.0058 21.6428 91.9727 21.6493 91.9393 21.6493H86.7279C86.6945 21.6493 86.6615 21.6428 86.6307 21.63C86.5999 21.6173 86.5719 21.5986 86.5484 21.575C86.5248 21.5515 86.5062 21.5235 86.4936 21.4928C86.4809 21.462 86.4745 21.4291 86.4746 21.3959V15.1117C86.4743 15.0447 86.4474 14.9805 86.3997 14.9332C86.352 14.8859 86.2875 14.8594 86.2202 14.8594H82.899C82.8319 14.8597 82.7677 14.8864 82.7203 14.9336C82.6728 14.9809 82.6461 15.0449 82.6458 15.1117V31.2149C82.6461 31.2817 82.6728 31.3457 82.7203 31.393C82.7677 31.4402 82.8319 31.4669 82.899 31.4672H86.2202C86.2875 31.4672 86.352 31.4407 86.3997 31.3934C86.4474 31.3461 86.4743 31.2819 86.4746 31.2149V25.1739C86.4746 25.107 86.5013 25.0428 86.5488 24.9955C86.5963 24.9482 86.6607 24.9216 86.7279 24.9216H91.9393C92.0066 24.9216 92.0711 24.9481 92.1188 24.9954C92.1665 25.0427 92.1934 25.1069 92.1937 25.1739V31.2149C92.1937 31.2818 92.2204 31.346 92.2679 31.3933C92.3154 31.4406 92.3798 31.4672 92.447 31.4672H95.7682C95.8353 31.4672 95.8997 31.4406 95.9472 31.3933C95.9947 31.346 96.0214 31.2818 96.0214 31.2149V15.2379C96.0214 15.1709 95.9947 15.1068 95.9472 15.0594C95.8997 15.0121 95.8353 14.9855 95.7682 14.9855Z" fill="#10363D"></path><path d="M16.4547 16.9224L20.6508 18.457C21.3288 18.6956 22.1542 18.3768 22.1542 17.8767V7.28574C22.1542 7.04373 21.9505 6.82696 21.6224 6.71226L17.4263 5.17764C16.7483 4.93908 15.9229 5.25678 15.9229 5.75112V16.3421C15.9229 16.5841 16.1278 16.8066 16.4547 16.9224Z" fill="#10363D"></path><path d="M16.4547 35.9348L20.6508 37.4694C21.3288 37.708 22.1542 37.3902 22.1542 36.8902V26.2992C22.1542 26.0572 21.9505 25.8347 21.6224 25.7189L17.4263 24.1842C16.7483 23.9457 15.9229 24.2645 15.9229 24.7646V35.3533C15.9229 35.5953 16.1278 35.8178 16.4547 35.9325" fill="#10363D"></path><path d="M8.68419 13.381L12.8803 14.9156C13.5583 15.1542 14.3768 14.8353 14.3768 14.3352V2.81296C14.3768 2.57095 14.1731 2.34844 13.845 2.2326L9.6558 0.699126C8.97659 0.46056 8.15234 0.778265 8.15234 1.2726V12.8006C8.15234 13.0426 8.3561 13.2663 8.68419 13.381Z" fill="#10363D"></path><path d="M8.68419 38.7661L12.8803 40.3007C13.5583 40.5393 14.3768 40.2216 14.3768 39.7204V28.2279C14.3768 27.9859 14.1731 27.7634 13.845 27.6476L9.6558 26.1141C8.97659 25.8755 8.15234 26.1932 8.15234 26.6933V38.1858C8.15234 38.4278 8.3561 38.6503 8.68419 38.7661Z" fill="#10363D"></path><path d="M6.612 3.24552C6.612 3.00351 6.40709 2.78673 6.079 2.66516L1.88407 1.13054C1.20602 0.891971 0.380615 1.21082 0.380615 1.71089V37.755C0.380615 37.997 0.584376 38.2207 0.912465 38.3354L5.10855 39.8711C5.7866 40.1085 6.612 39.7908 6.612 39.2908V3.24552Z" fill="#10363D"></path><path d="M29.3906 12.8146L25.1945 11.28C24.5165 11.0414 23.698 11.3602 23.698 11.8603V29.255C23.698 29.497 23.9018 29.7195 24.2298 29.8342L28.4259 31.3688C29.104 31.6074 29.9294 31.2897 29.9294 30.7896V13.3949C29.9294 13.1529 29.7245 12.9304 29.3964 12.8146" fill="#10363D"></path></svg>