<svg xmlns="http://www.w3.org/2000/svg" width="93" height="105" viewBox="0 0 93 105" fill="none"><path d="M7.69995 81.1937L47.2 101.294L85.2 81.1937V2.59375H7.69995V81.1937Z" fill="white"></path><path d="M86 2.89844L6.90002 82.5984L47.9 102.898L86 83.3984V2.89844Z" fill="#F2F3F2"></path><path d="M5.09998 28.8V82.9L6.49998 83.6L46 103.7L47.2 104.3L48.4 103.7L86.5 83.6L87.9 82.9V0H5.09998V28.8ZM7.69998 81.4V2.6H85.3V81.4L47.2 101.5L7.69998 81.4Z" fill="#DCDEDC"></path><path d="M46.5 3.9C46.9 3.9 47.3 3.9 47.7 4L46.5 6.3C44.7 6.2 43.1 7.6 43 9.4C42.9 11.2 44.3 12.8 46.1 12.9H46.5C47.3 12.9 48.1 12.6 48.7 12.1L50 14.3C49 15 47.8 15.4 46.5 15.4C43.3 15.5 40.6 13.1 40.5 9.9C40.4 6.7 42.8 4 46 3.9H46.5ZM50.6 8.8L52.1 11.3L50.6 13.7L49.2 11.3H46.3L47.8 8.8H50.6ZM48.2 7.9C48.2 7.5 48.3 7.1 48.5 6.8C48.7 6.5 49.1 6.2 49.4 6L49.6 5.9C50 5.7 50.1 5.6 50.1 5.4C50.1 5.2 49.8 5 49.6 5C49.2 5 48.9 5.2 48.7 5.6L48.2 5.1C48.3 4.9 48.5 4.7 48.7 4.5C49 4.3 49.3 4.3 49.6 4.3C49.9 4.3 50.3 4.4 50.5 4.6C50.7 4.8 50.9 5.1 50.9 5.4C50.9 5.9 50.6 6.3 50 6.5L49.7 6.7C49.4 6.9 49.2 7 49.1 7.3H50.9V8L48.2 7.9ZM46.5 20.4L56 15V0H36.9V14.9L46.5 20.4Z" fill="#FF492C"></path><path d="M89.8 55.7969H3.2L0 62.7969L3.2 69.7969H89.8L92.9 62.7969L89.8 55.7969Z" fill="#2690CE"></path><path d="M31.1999 51.4137C30.3999 51.4137 29.7033 51.2871 29.1099 51.0338C28.5033 50.7738 28.0399 50.4071 27.7199 49.9338C27.3933 49.4604 27.2299 48.9104 27.2299 48.2838V47.9538C27.2299 47.9004 27.2466 47.8571 27.2799 47.8237C27.3199 47.7904 27.3633 47.7738 27.4099 47.7738H29.1199C29.1666 47.7738 29.2099 47.7904 29.2499 47.8237C29.2833 47.8571 29.2999 47.9004 29.2999 47.9538V48.1738C29.2999 48.5738 29.4866 48.9104 29.8599 49.1838C30.2266 49.4638 30.7266 49.6038 31.3599 49.6038C31.8866 49.6038 32.2799 49.4904 32.5399 49.2638C32.7999 49.0371 32.9299 48.7604 32.9299 48.4338C32.9299 48.1871 32.8499 47.9837 32.6899 47.8237C32.5299 47.6571 32.3133 47.5104 32.0399 47.3838C31.7599 47.2638 31.3233 47.0938 30.7299 46.8738C30.0566 46.6404 29.4866 46.4037 29.0199 46.1637C28.5599 45.9237 28.1699 45.5971 27.8499 45.1838C27.5366 44.7704 27.3799 44.2571 27.3799 43.6437C27.3799 43.0437 27.5366 42.5204 27.8499 42.0737C28.1566 41.6204 28.5833 41.2738 29.1299 41.0338C29.6833 40.7938 30.3199 40.6738 31.0399 40.6738C31.7999 40.6738 32.4766 40.8104 33.0699 41.0838C33.6633 41.3504 34.1299 41.7271 34.4699 42.2137C34.8033 42.6937 34.9699 43.2571 34.9699 43.9038V44.1238C34.9699 44.1771 34.9533 44.2204 34.9199 44.2537C34.8799 44.2871 34.8366 44.3037 34.7899 44.3037H33.0699C33.0166 44.3037 32.9733 44.2871 32.9399 44.2537C32.8999 44.2204 32.8799 44.1771 32.8799 44.1238V44.0037C32.8799 43.5837 32.7099 43.2271 32.3699 42.9338C32.0233 42.6404 31.5499 42.4938 30.9499 42.4938C30.4766 42.4938 30.1099 42.5938 29.8499 42.7938C29.5833 42.9871 29.4499 43.2604 29.4499 43.6138C29.4499 43.8671 29.5266 44.0771 29.6799 44.2438C29.8399 44.4171 30.0699 44.5704 30.3699 44.7038C30.6766 44.8371 31.1499 45.0204 31.7899 45.2537C32.5033 45.5137 33.0599 45.7438 33.4599 45.9438C33.8666 46.1438 34.2333 46.4404 34.5599 46.8338C34.8866 47.2271 35.0499 47.7404 35.0499 48.3738C35.0499 49.3138 34.7033 50.0537 34.0099 50.5938C33.3233 51.1404 32.3866 51.4137 31.1999 51.4137ZM43.2199 46.6437C43.2799 47.0237 43.2999 47.4471 43.2799 47.9137C43.2666 48.0404 43.1999 48.1038 43.0799 48.1038H38.4499C38.3899 48.1038 38.3699 48.1271 38.3899 48.1738C38.4166 48.3738 38.4699 48.5738 38.5499 48.7738C38.8099 49.3338 39.3399 49.6138 40.1399 49.6138C40.7799 49.6071 41.2866 49.3471 41.6599 48.8338C41.6999 48.7738 41.7433 48.7438 41.7899 48.7438C41.8233 48.7438 41.8599 48.7637 41.8999 48.8037L42.9799 49.8638C43.0266 49.9171 43.0499 49.9637 43.0499 50.0037C43.0499 50.0237 43.0299 50.0638 42.9899 50.1238C42.6633 50.5371 42.2399 50.8537 41.7199 51.0737C41.1999 51.3004 40.6299 51.4137 40.0099 51.4137C39.1499 51.4137 38.4233 51.2204 37.8299 50.8338C37.2299 50.4404 36.7999 49.8938 36.5399 49.1938C36.3333 48.6938 36.2299 48.0404 36.2299 47.2337C36.2299 46.6804 36.3033 46.1938 36.4499 45.7738C36.6833 45.0671 37.0866 44.5038 37.6599 44.0838C38.2333 43.6638 38.9166 43.4538 39.7099 43.4538C40.7099 43.4538 41.5133 43.7437 42.1199 44.3237C42.7266 44.9037 43.0933 45.6771 43.2199 46.6437ZM39.7199 45.2838C39.0933 45.2838 38.6799 45.5771 38.4799 46.1637C38.4399 46.2971 38.4033 46.4571 38.3699 46.6437C38.3699 46.6904 38.3966 46.7137 38.4499 46.7137H41.0399C41.0999 46.7137 41.1199 46.6904 41.0999 46.6437C41.0533 46.3571 41.0299 46.2171 41.0299 46.2238C40.9366 45.9238 40.7799 45.6904 40.5599 45.5238C40.3333 45.3638 40.0533 45.2838 39.7199 45.2838ZM48.8299 45.1038C48.8299 45.1504 48.8133 45.1904 48.7799 45.2238C48.7399 45.2638 48.6966 45.2838 48.6499 45.2838H47.2099C47.1633 45.2838 47.1399 45.3071 47.1399 45.3538V48.5338C47.1399 48.8604 47.2066 49.1071 47.3399 49.2738C47.4733 49.4338 47.6899 49.5138 47.9899 49.5138H48.4799C48.5333 49.5138 48.5766 49.5304 48.6099 49.5638C48.6433 49.5971 48.6599 49.6404 48.6599 49.6938V51.1138C48.6599 51.2271 48.5999 51.2904 48.4799 51.3037C48.0599 51.3237 47.7599 51.3338 47.5799 51.3338C46.7533 51.3338 46.1366 51.1971 45.7299 50.9238C45.3166 50.6504 45.1033 50.1338 45.0899 49.3738V45.3538C45.0899 45.3071 45.0666 45.2838 45.0199 45.2838H44.1599C44.1133 45.2838 44.0733 45.2638 44.0399 45.2238C43.9999 45.1904 43.9799 45.1504 43.9799 45.1038V43.7638C43.9799 43.7171 43.9999 43.6738 44.0399 43.6338C44.0733 43.6004 44.1133 43.5838 44.1599 43.5838H45.0199C45.0666 43.5838 45.0899 43.5571 45.0899 43.5037V41.7238C45.0899 41.6771 45.1099 41.6337 45.1499 41.5938C45.1833 41.5604 45.2233 41.5438 45.2699 41.5438H46.9599C47.0066 41.5438 47.0466 41.5604 47.0799 41.5938C47.1199 41.6337 47.1399 41.6771 47.1399 41.7238V43.5037C47.1399 43.5571 47.1633 43.5838 47.2099 43.5838H48.6499C48.6966 43.5838 48.7399 43.6004 48.7799 43.6338C48.8133 43.6738 48.8299 43.7171 48.8299 43.7638V45.1038ZM54.5999 43.7638C54.5999 43.7171 54.6199 43.6738 54.6599 43.6338C54.6933 43.6004 54.7333 43.5838 54.7799 43.5838H56.5399C56.5866 43.5838 56.6299 43.6004 56.6699 43.6338C56.7033 43.6738 56.7199 43.7171 56.7199 43.7638V51.1138C56.7199 51.1671 56.7033 51.2104 56.6699 51.2438C56.6299 51.2771 56.5866 51.2938 56.5399 51.2938H54.7799C54.7333 51.2938 54.6933 51.2771 54.6599 51.2438C54.6199 51.2104 54.5999 51.1671 54.5999 51.1138V50.6038C54.5999 50.5771 54.5899 50.5604 54.5699 50.5537C54.5499 50.5471 54.5299 50.5604 54.5099 50.5938C54.1099 51.1271 53.4899 51.3937 52.6499 51.3937C51.8899 51.3937 51.2666 51.1671 50.7799 50.7137C50.2866 50.2537 50.0399 49.6071 50.0399 48.7738V43.7638C50.0399 43.7171 50.0599 43.6738 50.0999 43.6338C50.1333 43.6004 50.1733 43.5838 50.2199 43.5838H51.9599C52.0133 43.5838 52.0566 43.6004 52.0899 43.6338C52.1233 43.6738 52.1399 43.7171 52.1399 43.7638V48.2537C52.1399 48.6537 52.2499 48.9771 52.4699 49.2238C52.6833 49.4771 52.9799 49.6038 53.3599 49.6038C53.6999 49.6038 53.9799 49.5004 54.1999 49.2938C54.4199 49.0871 54.5533 48.8204 54.5999 48.4938V43.7638ZM65.1599 45.6538C65.3399 46.1604 65.4299 46.7604 65.4299 47.4538C65.4299 48.1471 65.3366 48.7738 65.1499 49.3338C64.9166 49.9738 64.5533 50.4804 64.0599 50.8538C63.5666 51.2271 62.9533 51.4137 62.2199 51.4137C61.4999 51.4137 60.9399 51.1637 60.5399 50.6637C60.5199 50.6371 60.4999 50.6271 60.4799 50.6338C60.4599 50.6404 60.4499 50.6604 60.4499 50.6938V53.9038C60.4499 53.9571 60.4333 54.0004 60.3999 54.0338C60.3666 54.0671 60.3233 54.0838 60.2699 54.0838H58.5199C58.4666 54.0838 58.4233 54.0671 58.3899 54.0338C58.3566 54.0004 58.3399 53.9571 58.3399 53.9038V43.7638C58.3399 43.7171 58.3566 43.6738 58.3899 43.6338C58.4233 43.6004 58.4666 43.5838 58.5199 43.5838H60.2699C60.3233 43.5838 60.3666 43.6004 60.3999 43.6338C60.4333 43.6738 60.4499 43.7171 60.4499 43.7638V44.2537C60.4499 44.2871 60.4599 44.3071 60.4799 44.3138C60.4999 44.3204 60.5199 44.3138 60.5399 44.2938C60.9599 43.7404 61.5399 43.4637 62.2799 43.4637C62.9733 43.4637 63.5733 43.6571 64.0799 44.0438C64.5799 44.4304 64.9399 44.9671 65.1599 45.6538ZM62.8699 49.0138C63.1166 48.6271 63.2399 48.0971 63.2399 47.4238C63.2399 46.7971 63.1366 46.2971 62.9299 45.9238C62.6966 45.4971 62.3266 45.2838 61.8199 45.2838C61.3599 45.2838 61.0133 45.4971 60.7799 45.9238C60.5733 46.2838 60.4699 46.7904 60.4699 47.4438C60.4699 48.1104 60.5799 48.6304 60.7999 49.0037C61.0266 49.4037 61.3666 49.6038 61.8199 49.6038C62.2666 49.6038 62.6166 49.4071 62.8699 49.0138ZM29.4699 27.4238C29.4699 27.4771 29.4499 27.5204 29.4099 27.5537C29.3766 27.5871 29.3366 27.6038 29.2899 27.6038H24.3599C24.3133 27.6038 24.2899 27.6304 24.2899 27.6838V30.0037C24.2899 30.0571 24.3133 30.0838 24.3599 30.0838H27.5899C27.6366 30.0838 27.6799 30.1004 27.7199 30.1338C27.7533 30.1738 27.7699 30.2171 27.7699 30.2638V31.7137C27.7699 31.7671 27.7533 31.8104 27.7199 31.8438C27.6799 31.8837 27.6366 31.9038 27.5899 31.9038H24.3599C24.3133 31.9038 24.2899 31.9271 24.2899 31.9738V34.4038C24.2899 34.4571 24.3133 34.4837 24.3599 34.4837H29.2899C29.3366 34.4837 29.3766 34.5004 29.4099 34.5338C29.4499 34.5671 29.4699 34.6071 29.4699 34.6538V36.1138C29.4699 36.1671 29.4499 36.2104 29.4099 36.2438C29.3766 36.2771 29.3366 36.2938 29.2899 36.2938H22.3499C22.3033 36.2938 22.2633 36.2771 22.2299 36.2438C22.1899 36.2104 22.1699 36.1671 22.1699 36.1138V25.9738C22.1699 25.9271 22.1899 25.8837 22.2299 25.8438C22.2633 25.8104 22.3033 25.7938 22.3499 25.7938H29.2899C29.3366 25.7938 29.3766 25.8104 29.4099 25.8438C29.4499 25.8837 29.4699 25.9271 29.4699 25.9738V27.4238ZM33.8799 28.4637C34.5266 28.4637 35.1066 28.5771 35.6199 28.8037C36.1266 29.0304 36.5233 29.3371 36.8099 29.7238C37.0899 30.1171 37.2299 30.5538 37.2299 31.0338V36.1138C37.2299 36.1671 37.2133 36.2104 37.1799 36.2438C37.1466 36.2771 37.1033 36.2938 37.0499 36.2938H35.2999C35.2466 36.2938 35.2033 36.2771 35.1699 36.2438C35.1366 36.2104 35.1199 36.1671 35.1199 36.1138V35.6238C35.1199 35.5904 35.1099 35.5704 35.0899 35.5638C35.0699 35.5504 35.0499 35.5604 35.0299 35.5938C34.6099 36.1404 33.9333 36.4137 32.9999 36.4137C32.2199 36.4137 31.5933 36.2237 31.1199 35.8438C30.6333 35.4638 30.3899 34.9037 30.3899 34.1637C30.3899 33.3971 30.6633 32.8004 31.2099 32.3738C31.7433 31.9471 32.5099 31.7337 33.5099 31.7337H35.0499C35.0966 31.7337 35.1199 31.7104 35.1199 31.6637V31.3338C35.1199 31.0004 35.0199 30.7404 34.8199 30.5537C34.6199 30.3737 34.3199 30.2838 33.9199 30.2838C33.6133 30.2838 33.3566 30.3371 33.1499 30.4438C32.9433 30.5571 32.8099 30.7137 32.7499 30.9137C32.7233 31.0204 32.6566 31.0704 32.5499 31.0638L30.7399 30.8237C30.6199 30.8037 30.5633 30.7571 30.5699 30.6838C30.6166 30.2638 30.7866 29.8838 31.0799 29.5438C31.3733 29.2038 31.7633 28.9404 32.2499 28.7537C32.7299 28.5604 33.2733 28.4637 33.8799 28.4637ZM33.5699 34.8438C34.0033 34.8438 34.3699 34.7271 34.6699 34.4938C34.9699 34.2604 35.1199 33.9638 35.1199 33.6038V33.0638C35.1199 33.0171 35.0966 32.9938 35.0499 32.9938H33.9699C33.5166 32.9938 33.1633 33.0804 32.9099 33.2537C32.6566 33.4204 32.5299 33.6604 32.5299 33.9738C32.5299 34.2404 32.6233 34.4504 32.8099 34.6038C32.9966 34.7638 33.2499 34.8438 33.5699 34.8438ZM41.7999 36.3937C41.1266 36.3937 40.5399 36.3004 40.0399 36.1138C39.5399 35.9271 39.1533 35.6637 38.8799 35.3237C38.5999 34.9837 38.4599 34.5971 38.4599 34.1637V34.0138C38.4599 33.9671 38.4799 33.9238 38.5199 33.8838C38.5533 33.8504 38.5933 33.8338 38.6399 33.8338H40.3099C40.3633 33.8338 40.4066 33.8504 40.4399 33.8838C40.4733 33.9238 40.4899 33.9671 40.4899 34.0138V34.0238C40.4899 34.2504 40.6133 34.4404 40.8599 34.5938C41.0999 34.7471 41.4066 34.8237 41.7799 34.8237C42.1199 34.8237 42.3933 34.7571 42.5999 34.6238C42.8133 34.4838 42.9199 34.3171 42.9199 34.1238C42.9199 33.9438 42.8299 33.8071 42.6499 33.7137C42.4699 33.6271 42.1733 33.5338 41.7599 33.4338C41.2933 33.3138 40.9233 33.1971 40.6499 33.0838C40.0099 32.8638 39.4999 32.5938 39.1199 32.2738C38.7399 31.9538 38.5499 31.4937 38.5499 30.8937C38.5499 30.1537 38.8399 29.5671 39.4199 29.1338C39.9933 28.7004 40.7566 28.4837 41.7099 28.4837C42.3499 28.4837 42.9099 28.5838 43.3899 28.7838C43.8633 28.9904 44.2333 29.2804 44.4999 29.6538C44.7666 30.0204 44.8999 30.4404 44.8999 30.9137C44.8999 30.9604 44.8833 31.0004 44.8499 31.0338C44.8166 31.0671 44.7733 31.0838 44.7199 31.0838H43.1199C43.0666 31.0838 43.0233 31.0671 42.9899 31.0338C42.9566 31.0004 42.9399 30.9604 42.9399 30.9137C42.9399 30.6937 42.8266 30.5071 42.5999 30.3538C42.3733 30.2004 42.0766 30.1238 41.7099 30.1238C41.3766 30.1238 41.1033 30.1871 40.8899 30.3138C40.6833 30.4338 40.5799 30.5971 40.5799 30.8037C40.5799 31.0037 40.6833 31.1537 40.8899 31.2537C41.0899 31.3537 41.4333 31.4604 41.9199 31.5737C42.0266 31.6004 42.1499 31.6304 42.2899 31.6637C42.4299 31.6971 42.5799 31.7404 42.7399 31.7938C43.4533 32.0071 44.0133 32.2771 44.4199 32.6038C44.8266 32.9371 45.0299 33.4171 45.0299 34.0438C45.0299 34.7838 44.7399 35.3604 44.1599 35.7738C43.5733 36.1871 42.7866 36.3937 41.7999 36.3937ZM47.3899 27.7137C47.0499 27.7137 46.7666 27.6004 46.5399 27.3738C46.3199 27.1538 46.2099 26.8738 46.2099 26.5338C46.2099 26.1804 46.3199 25.8938 46.5399 25.6738C46.7599 25.4538 47.0433 25.3438 47.3899 25.3438C47.7433 25.3438 48.0266 25.4538 48.2399 25.6738C48.4666 25.8938 48.5799 26.1804 48.5799 26.5338C48.5799 26.8738 48.4666 27.1538 48.2399 27.3738C48.0133 27.6004 47.7299 27.7137 47.3899 27.7137ZM46.4899 36.2938C46.4433 36.2938 46.3999 36.2771 46.3599 36.2438C46.3266 36.2104 46.3099 36.1671 46.3099 36.1138V28.7537C46.3099 28.7004 46.3266 28.6571 46.3599 28.6238C46.3999 28.5904 46.4433 28.5737 46.4899 28.5737H48.2399C48.2933 28.5737 48.3366 28.5904 48.3699 28.6238C48.4033 28.6571 48.4199 28.7004 48.4199 28.7537V36.1138C48.4199 36.1671 48.4033 36.2104 48.3699 36.2438C48.3366 36.2771 48.2933 36.2938 48.2399 36.2938H46.4899ZM56.8999 31.6437C56.9599 32.0237 56.9799 32.4471 56.9599 32.9137C56.9533 33.0404 56.8899 33.1038 56.7699 33.1038H52.1299C52.0699 33.1038 52.0499 33.1271 52.0699 33.1738C52.1033 33.3738 52.1599 33.5738 52.2399 33.7738C52.4999 34.3338 53.0266 34.6138 53.8199 34.6138C54.4599 34.6071 54.9666 34.3471 55.3399 33.8338C55.3799 33.7738 55.4266 33.7438 55.4799 33.7438C55.5066 33.7438 55.5399 33.7637 55.5799 33.8037L56.6599 34.8638C56.7133 34.9171 56.7399 34.9637 56.7399 35.0037C56.7399 35.0237 56.7166 35.0638 56.6699 35.1238C56.3433 35.5371 55.9199 35.8537 55.3999 36.0737C54.8799 36.3004 54.3099 36.4137 53.6899 36.4137C52.8299 36.4137 52.1033 36.2204 51.5099 35.8338C50.9166 35.4404 50.4866 34.8938 50.2199 34.1938C50.0133 33.6938 49.9099 33.0404 49.9099 32.2337C49.9099 31.6804 49.9866 31.1938 50.1399 30.7738C50.3666 30.0671 50.7666 29.5038 51.3399 29.0838C51.9199 28.6638 52.6033 28.4538 53.3899 28.4538C54.3899 28.4538 55.1933 28.7437 55.7999 29.3237C56.4066 29.9037 56.7733 30.6771 56.8999 31.6437ZM53.3999 30.2838C52.7733 30.2838 52.3599 30.5771 52.1599 31.1637C52.1199 31.2971 52.0866 31.4571 52.0599 31.6437C52.0599 31.6904 52.0833 31.7137 52.1299 31.7137H54.7299C54.7833 31.7137 54.7999 31.6904 54.7799 31.6437C54.7333 31.3571 54.7099 31.2171 54.7099 31.2238C54.6166 30.9238 54.4599 30.6904 54.2399 30.5238C54.0133 30.3638 53.7333 30.2838 53.3999 30.2838ZM61.2399 36.3937C60.5666 36.3937 59.9799 36.3004 59.4799 36.1138C58.9799 35.9271 58.5933 35.6637 58.3199 35.3237C58.0466 34.9837 57.9099 34.5971 57.9099 34.1637V34.0138C57.9099 33.9671 57.9266 33.9238 57.9599 33.8838C57.9933 33.8504 58.0366 33.8338 58.0899 33.8338H59.7499C59.8033 33.8338 59.8466 33.8504 59.8799 33.8838C59.9133 33.9238 59.9299 33.9671 59.9299 34.0138V34.0238C59.9299 34.2504 60.0533 34.4404 60.2999 34.5938C60.5466 34.7471 60.8533 34.8237 61.2199 34.8237C61.5599 34.8237 61.8366 34.7571 62.0499 34.6238C62.2566 34.4838 62.3599 34.3171 62.3599 34.1238C62.3599 33.9438 62.2699 33.8071 62.0899 33.7137C61.9099 33.6271 61.6166 33.5338 61.2099 33.4338C60.7366 33.3138 60.3666 33.1971 60.0999 33.0838C59.4599 32.8638 58.9499 32.5938 58.5699 32.2738C58.1899 31.9538 57.9999 31.4937 57.9999 30.8937C57.9999 30.1537 58.2866 29.5671 58.8599 29.1338C59.4333 28.7004 60.1966 28.4837 61.1499 28.4837C61.7899 28.4837 62.3499 28.5838 62.8299 28.7838C63.3099 28.9904 63.6799 29.2804 63.9399 29.6538C64.2066 30.0204 64.3399 30.4404 64.3399 30.9137C64.3399 30.9604 64.3233 31.0004 64.2899 31.0338C64.2566 31.0671 64.2133 31.0838 64.1599 31.0838H62.5599C62.5066 31.0838 62.4633 31.0671 62.4299 31.0338C62.3966 31.0004 62.3799 30.9604 62.3799 30.9137C62.3799 30.6937 62.2666 30.5071 62.0399 30.3538C61.8133 30.2004 61.5166 30.1238 61.1499 30.1238C60.8166 30.1238 60.5466 30.1871 60.3399 30.3138C60.1266 30.4338 60.0199 30.5971 60.0199 30.8037C60.0199 31.0037 60.1233 31.1537 60.3299 31.2537C60.5366 31.3537 60.8799 31.4604 61.3599 31.5737C61.4666 31.6004 61.5899 31.6304 61.7299 31.6637C61.8699 31.6971 62.0199 31.7404 62.1799 31.7938C62.8933 32.0071 63.4533 32.2771 63.8599 32.6038C64.2733 32.9371 64.4799 33.4171 64.4799 34.0438C64.4799 34.7838 64.1866 35.3604 63.5999 35.7738C63.0133 36.1871 62.2266 36.3937 61.2399 36.3937ZM70.0999 30.1038C70.0999 30.1504 70.0833 30.1904 70.0499 30.2238C70.0166 30.2638 69.9733 30.2838 69.9199 30.2838H68.4799C68.4333 30.2838 68.4099 30.3071 68.4099 30.3538V33.5338C68.4099 33.8604 68.4766 34.1071 68.6099 34.2738C68.7433 34.4338 68.9599 34.5138 69.2599 34.5138H69.7599C69.8066 34.5138 69.8466 34.5304 69.8799 34.5638C69.9199 34.5971 69.9399 34.6404 69.9399 34.6938V36.1138C69.9399 36.2271 69.8799 36.2904 69.7599 36.3037C69.3399 36.3237 69.0399 36.3338 68.8599 36.3338C68.0266 36.3338 67.4066 36.1971 66.9999 35.9238C66.5866 35.6504 66.3766 35.1338 66.3699 34.3738V30.3538C66.3699 30.3071 66.3433 30.2838 66.2899 30.2838H65.4399C65.3866 30.2838 65.3433 30.2638 65.3099 30.2238C65.2766 30.1904 65.2599 30.1504 65.2599 30.1038V28.7638C65.2599 28.7171 65.2766 28.6738 65.3099 28.6338C65.3433 28.6004 65.3866 28.5838 65.4399 28.5838H66.2899C66.3433 28.5838 66.3699 28.5571 66.3699 28.5037V26.7238C66.3699 26.6771 66.3866 26.6337 66.4199 26.5938C66.4533 26.5604 66.4966 26.5438 66.5499 26.5438H68.2299C68.2766 26.5438 68.3166 26.5604 68.3499 26.5938C68.3899 26.6337 68.4099 26.6771 68.4099 26.7238V28.5037C68.4099 28.5571 68.4333 28.5838 68.4799 28.5838H69.9199C69.9733 28.5838 70.0166 28.6004 70.0499 28.6338C70.0833 28.6738 70.0999 28.7171 70.0999 28.7638V30.1038Z" fill="#252530"></path><path d="M26.63 59.7788C26.6633 59.7254 26.71 59.6988 26.77 59.6988H27.69C27.7233 59.6988 27.75 59.7121 27.77 59.7388C27.7967 59.7588 27.81 59.7854 27.81 59.8187V66.5788C27.81 66.6121 27.7967 66.6388 27.77 66.6588C27.75 66.6854 27.7233 66.6988 27.69 66.6988H26.77C26.7367 66.6988 26.7067 66.6854 26.68 66.6588C26.66 66.6388 26.65 66.6121 26.65 66.5788V61.8088C26.65 61.7888 26.6433 61.7754 26.63 61.7688C26.61 61.7621 26.5967 61.7687 26.59 61.7887L25.34 63.7088C25.3067 63.7621 25.26 63.7887 25.2 63.7887H24.74C24.68 63.7887 24.6333 63.7621 24.6 63.7088L23.34 61.7988C23.3333 61.7788 23.3233 61.7721 23.31 61.7788C23.29 61.7854 23.28 61.7987 23.28 61.8187V66.5788C23.28 66.6121 23.2667 66.6388 23.24 66.6588C23.22 66.6854 23.1933 66.6988 23.16 66.6988H22.24C22.2067 66.6988 22.18 66.6854 22.16 66.6588C22.1333 66.6388 22.12 66.6121 22.12 66.5788V59.8187C22.12 59.7854 22.1333 59.7588 22.16 59.7388C22.18 59.7121 22.2067 59.6988 22.24 59.6988H23.16C23.22 59.6988 23.2667 59.7254 23.3 59.7788L24.93 62.2487C24.9433 62.2621 24.9567 62.2688 24.97 62.2688C24.9833 62.2688 24.9933 62.2621 25 62.2487L26.63 59.7788ZM29.82 60.8887C29.6133 60.8887 29.4433 60.8221 29.31 60.6888C29.1767 60.5554 29.11 60.3854 29.11 60.1787C29.11 59.9721 29.1767 59.8021 29.31 59.6688C29.4433 59.5354 29.6133 59.4688 29.82 59.4688C30.0267 59.4688 30.1967 59.5354 30.33 59.6688C30.4633 59.8021 30.53 59.9721 30.53 60.1787C30.53 60.3854 30.4633 60.5554 30.33 60.6888C30.1967 60.8221 30.0267 60.8887 29.82 60.8887ZM29.34 66.6988C29.3067 66.6988 29.28 66.6854 29.26 66.6588C29.2333 66.6388 29.22 66.6121 29.22 66.5788V61.6988C29.22 61.6654 29.2333 61.6388 29.26 61.6188C29.28 61.5921 29.3067 61.5788 29.34 61.5788H30.26C30.2933 61.5788 30.3233 61.5921 30.35 61.6188C30.37 61.6388 30.38 61.6654 30.38 61.6988V66.5788C30.38 66.6121 30.37 66.6388 30.35 66.6588C30.3233 66.6854 30.2933 66.6988 30.26 66.6988H29.34ZM34.88 59.8187C34.88 59.7854 34.8933 59.7588 34.92 59.7388C34.94 59.7121 34.9667 59.6988 35 59.6988H35.92C35.9533 59.6988 35.9833 59.7121 36.01 59.7388C36.03 59.7588 36.04 59.7854 36.04 59.8187V66.5788C36.04 66.6121 36.03 66.6388 36.01 66.6588C35.9833 66.6854 35.9533 66.6988 35.92 66.6988H35C34.9667 66.6988 34.94 66.6854 34.92 66.6588C34.8933 66.6388 34.88 66.6121 34.88 66.5788V66.2788C34.88 66.2588 34.8733 66.2454 34.86 66.2388C34.8467 66.2321 34.8333 66.2388 34.82 66.2588C34.5267 66.6054 34.1433 66.7788 33.67 66.7788C33.1967 66.7788 32.7967 66.6554 32.47 66.4088C32.1433 66.1621 31.9067 65.8188 31.76 65.3788C31.64 65.0054 31.58 64.5888 31.58 64.1288C31.58 63.6554 31.6367 63.2488 31.75 62.9088C31.8967 62.4688 32.1333 62.1254 32.46 61.8788C32.7867 61.6321 33.1967 61.5088 33.69 61.5088C34.15 61.5088 34.5267 61.6754 34.82 62.0088C34.8333 62.0221 34.8467 62.0288 34.86 62.0288C34.8733 62.0221 34.88 62.0088 34.88 61.9888V59.8187ZM34.64 65.2988C34.7933 65.0254 34.87 64.6387 34.87 64.1387C34.87 63.6187 34.7867 63.2221 34.62 62.9488C34.44 62.6554 34.1867 62.5088 33.86 62.5088C33.52 62.5088 33.2533 62.6487 33.06 62.9287C32.86 63.2221 32.76 63.6288 32.76 64.1488C32.76 64.6154 32.84 64.9988 33 65.2988C33.1867 65.6188 33.47 65.7788 33.85 65.7788C34.19 65.7788 34.4533 65.6188 34.64 65.2988ZM37.12 64.1888C37.0867 64.1888 37.06 64.1788 37.04 64.1588C37.0133 64.1321 37 64.1021 37 64.0687V63.3088C37 63.2754 37.0133 63.2454 37.04 63.2188C37.06 63.1988 37.0867 63.1888 37.12 63.1888H40.27C40.3033 63.1888 40.33 63.1988 40.35 63.2188C40.3767 63.2454 40.39 63.2754 40.39 63.3088V64.0687C40.39 64.1021 40.3767 64.1321 40.35 64.1588C40.33 64.1788 40.3033 64.1888 40.27 64.1888H37.12ZM45.96 59.7788C45.9933 59.7254 46.04 59.6988 46.1 59.6988H47.02C47.0533 59.6988 47.0833 59.7121 47.11 59.7388C47.13 59.7588 47.14 59.7854 47.14 59.8187V66.5788C47.14 66.6121 47.13 66.6388 47.11 66.6588C47.0833 66.6854 47.0533 66.6988 47.02 66.6988H46.1C46.0667 66.6988 46.04 66.6854 46.02 66.6588C45.9933 66.6388 45.98 66.6121 45.98 66.5788V61.8088C45.98 61.7888 45.9733 61.7754 45.96 61.7688C45.94 61.7621 45.9267 61.7687 45.92 61.7887L44.67 63.7088C44.6367 63.7621 44.59 63.7887 44.53 63.7887H44.07C44.01 63.7887 43.9633 63.7621 43.93 63.7088L42.67 61.7988C42.6633 61.7788 42.6533 61.7721 42.64 61.7788C42.62 61.7854 42.61 61.7987 42.61 61.8187V66.5788C42.61 66.6121 42.6 66.6388 42.58 66.6588C42.5533 66.6854 42.5233 66.6988 42.49 66.6988H41.57C41.5367 66.6988 41.51 66.6854 41.49 66.6588C41.4633 66.6388 41.45 66.6121 41.45 66.5788V59.8187C41.45 59.7854 41.4633 59.7588 41.49 59.7388C41.51 59.7121 41.5367 59.6988 41.57 59.6988H42.49C42.55 59.6988 42.5967 59.7254 42.63 59.7788L44.26 62.2487C44.2733 62.2621 44.2867 62.2688 44.3 62.2688C44.3133 62.2688 44.3233 62.2621 44.33 62.2487L45.96 59.7788ZM50.44 61.5088C50.86 61.5088 51.23 61.5821 51.55 61.7288C51.87 61.8754 52.1167 62.0754 52.29 62.3288C52.4633 62.5888 52.55 62.8821 52.55 63.2088V66.5788C52.55 66.6121 52.54 66.6388 52.52 66.6588C52.4933 66.6854 52.4633 66.6988 52.43 66.6988H51.51C51.4767 66.6988 51.45 66.6854 51.43 66.6588C51.4033 66.6388 51.39 66.6121 51.39 66.5788V66.2588C51.39 66.2388 51.3833 66.2254 51.37 66.2188C51.3567 66.2188 51.3433 66.2254 51.33 66.2388C51.0033 66.5988 50.53 66.7788 49.91 66.7788C49.41 66.7788 49 66.6521 48.68 66.3988C48.3533 66.1454 48.19 65.7688 48.19 65.2688C48.19 64.7488 48.3733 64.3421 48.74 64.0488C49.1 63.7621 49.61 63.6188 50.27 63.6188H51.34C51.3733 63.6188 51.39 63.6021 51.39 63.5687V63.3288C51.39 63.0688 51.3133 62.8654 51.16 62.7188C51.0067 62.5787 50.7767 62.5088 50.47 62.5088C50.2167 62.5088 50.0133 62.5554 49.86 62.6488C49.7 62.7354 49.6 62.8588 49.56 63.0188C49.54 63.0988 49.4933 63.1321 49.42 63.1188L48.45 62.9987C48.4167 62.9921 48.39 62.9821 48.37 62.9688C48.3433 62.9488 48.3333 62.9254 48.34 62.8988C48.3933 62.4921 48.6133 62.1588 49 61.8988C49.38 61.6388 49.86 61.5088 50.44 61.5088ZM50.2 65.8587C50.5267 65.8587 50.8067 65.7721 51.04 65.5988C51.2733 65.4254 51.39 65.2054 51.39 64.9388V64.4688C51.39 64.4354 51.3733 64.4188 51.34 64.4188H50.5C50.1467 64.4188 49.87 64.4854 49.67 64.6188C49.4633 64.7521 49.36 64.9421 49.36 65.1888C49.36 65.4021 49.44 65.5654 49.6 65.6787C49.7533 65.7987 49.9533 65.8587 50.2 65.8587ZM56.09 61.5288C56.3033 61.5288 56.49 61.5721 56.65 61.6588C56.7033 61.6854 56.7233 61.7354 56.71 61.8088L56.54 62.7088C56.5333 62.7888 56.4867 62.8121 56.4 62.7788C56.3 62.7454 56.1833 62.7288 56.05 62.7288C55.9633 62.7288 55.8967 62.7321 55.85 62.7388C55.57 62.7521 55.3367 62.8488 55.15 63.0288C54.9633 63.2154 54.87 63.4554 54.87 63.7487V66.5788C54.87 66.6121 54.86 66.6388 54.84 66.6588C54.8133 66.6854 54.7833 66.6988 54.75 66.6988H53.83C53.7967 66.6988 53.77 66.6854 53.75 66.6588C53.7233 66.6388 53.71 66.6121 53.71 66.5788V61.7088C53.71 61.6754 53.7233 61.6454 53.75 61.6188C53.77 61.5988 53.7967 61.5888 53.83 61.5888H54.75C54.7833 61.5888 54.8133 61.5988 54.84 61.6188C54.86 61.6454 54.87 61.6754 54.87 61.7088V62.1588C54.87 62.1854 54.8767 62.1988 54.89 62.1988C54.8967 62.2054 54.9067 62.1987 54.92 62.1787C55.2 61.7454 55.59 61.5288 56.09 61.5288ZM57.59 66.6988C57.5567 66.6988 57.53 66.6854 57.51 66.6588C57.4833 66.6388 57.47 66.6121 57.47 66.5788V59.8187C57.47 59.7854 57.4833 59.7588 57.51 59.7388C57.53 59.7121 57.5567 59.6988 57.59 59.6988H58.51C58.5433 59.6988 58.57 59.7121 58.59 59.7388C58.6167 59.7588 58.63 59.7854 58.63 59.8187V63.4287C58.63 63.4487 58.6367 63.4621 58.65 63.4688C58.6633 63.4754 58.6767 63.4688 58.69 63.4488L60.31 61.6588C60.3567 61.6121 60.4067 61.5888 60.46 61.5888H61.52C61.5867 61.5888 61.62 61.6121 61.62 61.6588C61.62 61.6788 61.61 61.7054 61.59 61.7388L60.32 63.2588C60.3 63.2788 60.2967 63.3021 60.31 63.3288L61.81 66.5588C61.8233 66.5854 61.83 66.6054 61.83 66.6188C61.83 66.6721 61.7933 66.6988 61.72 66.6988H60.75C60.6833 66.6988 60.6367 66.6687 60.61 66.6087L59.52 64.0687C59.5133 64.0554 59.5 64.0454 59.48 64.0387C59.4667 64.0387 59.4567 64.0454 59.45 64.0588L58.65 64.9788C58.6367 65.0054 58.63 65.0288 58.63 65.0488V66.5788C58.63 66.6121 58.6167 66.6388 58.59 66.6588C58.57 66.6854 58.5433 66.6988 58.51 66.6988H57.59ZM66.64 63.5687C66.6667 63.7354 66.68 63.9221 66.68 64.1288L66.67 64.4388C66.67 64.5188 66.63 64.5588 66.55 64.5588H63.42C63.3867 64.5588 63.37 64.5754 63.37 64.6087C63.39 64.8287 63.42 64.9788 63.46 65.0588C63.62 65.5388 64.01 65.7821 64.63 65.7887C65.0833 65.7887 65.4433 65.6021 65.71 65.2288C65.7367 65.1888 65.77 65.1688 65.81 65.1688C65.8367 65.1688 65.86 65.1788 65.88 65.1988L66.5 65.7088C66.56 65.7554 66.57 65.8088 66.53 65.8688C66.3233 66.1621 66.0467 66.3888 65.7 66.5488C65.36 66.7088 64.98 66.7887 64.56 66.7887C64.04 66.7887 63.5967 66.6721 63.23 66.4388C62.87 66.2054 62.6067 65.8788 62.44 65.4588C62.2867 65.0988 62.21 64.5988 62.21 63.9588C62.21 63.5721 62.25 63.2588 62.33 63.0188C62.4633 62.5521 62.7167 62.1821 63.09 61.9088C63.4567 61.6421 63.9 61.5088 64.42 61.5088C65.7333 61.5088 66.4733 62.1954 66.64 63.5687ZM64.42 62.5088C64.1733 62.5088 63.9667 62.5721 63.8 62.6988C63.64 62.8188 63.5267 62.9888 63.46 63.2088C63.42 63.3221 63.3933 63.4688 63.38 63.6488C63.3667 63.6821 63.38 63.6988 63.42 63.6988H65.45C65.4833 63.6988 65.5 63.6821 65.5 63.6488C65.4867 63.4821 65.4667 63.3554 65.44 63.2688C65.38 63.0288 65.2633 62.8421 65.09 62.7088C64.91 62.5754 64.6867 62.5088 64.42 62.5088ZM70.35 62.4088C70.35 62.4421 70.34 62.4688 70.32 62.4888C70.2933 62.5154 70.2633 62.5288 70.23 62.5288H69.21C69.1767 62.5288 69.16 62.5454 69.16 62.5788V64.9888C69.16 65.2421 69.2167 65.4254 69.33 65.5387C69.4367 65.6521 69.61 65.7088 69.85 65.7088H70.15C70.1833 65.7088 70.21 65.7188 70.23 65.7388C70.2567 65.7654 70.27 65.7954 70.27 65.8288V66.5788C70.27 66.6521 70.23 66.6954 70.15 66.7088L69.63 66.7188C69.1033 66.7188 68.71 66.6288 68.45 66.4488C68.19 66.2688 68.0567 65.9287 68.05 65.4287V62.5788C68.05 62.5454 68.0333 62.5288 68 62.5288H67.43C67.3967 62.5288 67.37 62.5154 67.35 62.4888C67.3233 62.4688 67.31 62.4421 67.31 62.4088V61.7088C67.31 61.6754 67.3233 61.6454 67.35 61.6188C67.37 61.5988 67.3967 61.5888 67.43 61.5888H68C68.0333 61.5888 68.05 61.5721 68.05 61.5387V60.3688C68.05 60.3354 68.0633 60.3054 68.09 60.2788C68.11 60.2588 68.1367 60.2487 68.17 60.2487H69.04C69.0733 60.2487 69.1 60.2588 69.12 60.2788C69.1467 60.3054 69.16 60.3354 69.16 60.3688V61.5387C69.16 61.5721 69.1767 61.5888 69.21 61.5888H70.23C70.2633 61.5888 70.2933 61.5988 70.32 61.6188C70.34 61.6454 70.35 61.6754 70.35 61.7088V62.4088Z" fill="white"></path><path d="M30.76 80.7969C30.6866 80.7969 30.64 80.7635 30.62 80.6969L28.85 73.9269L28.84 73.8869C28.84 73.8269 28.8766 73.7969 28.95 73.7969H30.19C30.2566 73.7969 30.3 73.8302 30.32 73.8969L31.27 77.9669C31.2766 77.9935 31.2866 78.0069 31.3 78.0069C31.3133 78.0069 31.3233 77.9935 31.33 77.9669L32.25 73.9069C32.27 73.8335 32.3133 73.7969 32.38 73.7969H33.59C33.6633 73.7969 33.71 73.8302 33.73 73.8969L34.73 77.9669C34.7366 77.9869 34.7466 78.0002 34.76 78.0069C34.7733 78.0069 34.7833 77.9935 34.79 77.9669L35.71 73.9069C35.73 73.8335 35.7733 73.7969 35.84 73.7969H37.02C37.1133 73.7969 37.15 73.8402 37.13 73.9269L35.49 80.6969C35.47 80.7635 35.4233 80.7969 35.35 80.7969H34.16C34.0933 80.7969 34.05 80.7635 34.03 80.6969L33.01 76.3669C33.0033 76.3402 32.9933 76.3269 32.98 76.3269C32.9666 76.3269 32.9566 76.3402 32.95 76.3669L32 80.6869C31.9866 80.7602 31.9433 80.7969 31.87 80.7969H30.76ZM38.1 80.7969C38.0666 80.7969 38.0366 80.7835 38.01 80.7569C37.99 80.7369 37.98 80.7102 37.98 80.6769V73.9169C37.98 73.8835 37.99 73.8569 38.01 73.8369C38.0366 73.8102 38.0666 73.7969 38.1 73.7969H39.27C39.3033 73.7969 39.33 73.8102 39.35 73.8369C39.3766 73.8569 39.39 73.8835 39.39 73.9169V80.6769C39.39 80.7102 39.3766 80.7369 39.35 80.7569C39.33 80.7835 39.3033 80.7969 39.27 80.7969H38.1ZM44.63 73.9169C44.63 73.8835 44.64 73.8569 44.66 73.8369C44.6866 73.8102 44.7166 73.7969 44.75 73.7969H45.92C45.9533 73.7969 45.98 73.8102 46 73.8369C46.0266 73.8569 46.04 73.8835 46.04 73.9169V80.6769C46.04 80.7102 46.0266 80.7369 46 80.7569C45.98 80.7835 45.9533 80.7969 45.92 80.7969H44.79C44.7233 80.7969 44.6766 80.7702 44.65 80.7169L42.06 76.4369C42.0466 76.4169 42.0333 76.4102 42.02 76.4169C42.0066 76.4169 42 76.4302 42 76.4569L42.02 80.6769C42.02 80.7102 42.0066 80.7369 41.98 80.7569C41.96 80.7835 41.9333 80.7969 41.9 80.7969H40.73C40.6966 80.7969 40.6666 80.7835 40.64 80.7569C40.62 80.7369 40.61 80.7102 40.61 80.6769V73.9169C40.61 73.8835 40.62 73.8569 40.64 73.8369C40.6666 73.8102 40.6966 73.7969 40.73 73.7969H41.86C41.9266 73.7969 41.9733 73.8235 42 73.8769L44.58 78.1369C44.5933 78.1569 44.6066 78.1635 44.62 78.1569C44.6333 78.1569 44.64 78.1435 44.64 78.1169L44.63 73.9169ZM52.09 73.7969C52.1233 73.7969 52.15 73.8102 52.17 73.8369C52.1966 73.8569 52.21 73.8835 52.21 73.9169V74.8969C52.21 74.9302 52.1966 74.9569 52.17 74.9769C52.15 75.0035 52.1233 75.0169 52.09 75.0169H50.3C50.2666 75.0169 50.25 75.0335 50.25 75.0669V80.6769C50.25 80.7102 50.2366 80.7369 50.21 80.7569C50.19 80.7835 50.1633 80.7969 50.13 80.7969H48.96C48.9266 80.7969 48.8966 80.7835 48.87 80.7569C48.85 80.7369 48.84 80.7102 48.84 80.6769V75.0669C48.84 75.0335 48.8233 75.0169 48.79 75.0169H47.05C47.0166 75.0169 46.9866 75.0035 46.96 74.9769C46.94 74.9569 46.93 74.9302 46.93 74.8969V73.9169C46.93 73.8835 46.94 73.8569 46.96 73.8369C46.9866 73.8102 47.0166 73.7969 47.05 73.7969H52.09ZM57.97 74.8869C57.97 74.9202 57.96 74.9469 57.94 74.9669C57.9133 74.9935 57.8833 75.0069 57.85 75.0069H54.57C54.5366 75.0069 54.52 75.0235 54.52 75.0569V76.6069C54.52 76.6402 54.5366 76.6569 54.57 76.6569H56.72C56.7533 76.6569 56.78 76.6669 56.8 76.6869C56.8266 76.7135 56.84 76.7435 56.84 76.7769V77.7469C56.84 77.7802 56.8266 77.8102 56.8 77.8369C56.78 77.8569 56.7533 77.8669 56.72 77.8669H54.57C54.5366 77.8669 54.52 77.8835 54.52 77.9169V79.5369C54.52 79.5702 54.5366 79.5869 54.57 79.5869H57.85C57.8833 79.5869 57.9133 79.5969 57.94 79.6169C57.96 79.6435 57.97 79.6735 57.97 79.7069V80.6769C57.97 80.7102 57.96 80.7369 57.94 80.7569C57.9133 80.7835 57.8833 80.7969 57.85 80.7969H53.23C53.1966 80.7969 53.1666 80.7835 53.14 80.7569C53.12 80.7369 53.11 80.7102 53.11 80.6769V73.9169C53.11 73.8835 53.12 73.8569 53.14 73.8369C53.1666 73.8102 53.1966 73.7969 53.23 73.7969H57.85C57.8833 73.7969 57.9133 73.8102 57.94 73.8369C57.96 73.8569 57.97 73.8835 57.97 73.9169V74.8869ZM62.79 80.7969C62.7233 80.7969 62.6766 80.7669 62.65 80.7069L61.4 77.9369C61.3866 77.9102 61.3666 77.8969 61.34 77.8969H60.41C60.3766 77.8969 60.36 77.9135 60.36 77.9469V80.6769C60.36 80.7102 60.3466 80.7369 60.32 80.7569C60.3 80.7835 60.2733 80.7969 60.24 80.7969H59.07C59.0366 80.7969 59.0066 80.7835 58.98 80.7569C58.96 80.7369 58.95 80.7102 58.95 80.6769V73.9169C58.95 73.8835 58.96 73.8569 58.98 73.8369C59.0066 73.8102 59.0366 73.7969 59.07 73.7969H61.93C62.3566 73.7969 62.73 73.8835 63.05 74.0569C63.3766 74.2302 63.6266 74.4769 63.8 74.7969C63.98 75.1169 64.07 75.4869 64.07 75.9069C64.07 76.3602 63.9566 76.7469 63.73 77.0669C63.5033 77.3935 63.1866 77.6235 62.78 77.7569C62.7466 77.7702 62.7366 77.7935 62.75 77.8269L64.11 80.6569C64.1233 80.6835 64.13 80.7035 64.13 80.7169C64.13 80.7702 64.0933 80.7969 64.02 80.7969H62.79ZM60.41 75.0069C60.3766 75.0069 60.36 75.0235 60.36 75.0569V76.7669C60.36 76.8002 60.3766 76.8169 60.41 76.8169H61.72C62 76.8169 62.2266 76.7335 62.4 76.5669C62.58 76.4002 62.67 76.1835 62.67 75.9169C62.67 75.6502 62.58 75.4302 62.4 75.2569C62.2266 75.0902 62 75.0069 61.72 75.0069H60.41ZM37.28 88.9269C37.2666 88.9402 37.2633 88.9535 37.27 88.9669C37.2766 88.9802 37.29 88.9869 37.31 88.9869H40.02C40.0533 88.9869 40.0833 88.9969 40.11 89.0169C40.13 89.0435 40.14 89.0735 40.14 89.1069V90.0769C40.14 90.1102 40.13 90.1369 40.11 90.1569C40.0833 90.1835 40.0533 90.1969 40.02 90.1969H35.52C35.4866 90.1969 35.4566 90.1835 35.43 90.1569C35.41 90.1369 35.4 90.1102 35.4 90.0769V89.1569C35.4 89.0969 35.42 89.0469 35.46 89.0069C35.7866 88.6869 36.12 88.3402 36.46 87.9669C36.8 87.5869 37.0133 87.3502 37.1 87.2569C37.2866 87.0369 37.4766 86.8269 37.67 86.6269C38.2766 85.9535 38.58 85.4535 38.58 85.1269C38.58 84.8935 38.4966 84.7002 38.33 84.5469C38.1633 84.4002 37.9466 84.3269 37.68 84.3269C37.4133 84.3269 37.1966 84.4002 37.03 84.5469C36.8633 84.7002 36.78 84.9002 36.78 85.1469V85.3969C36.78 85.4302 36.7666 85.4602 36.74 85.4869C36.72 85.5069 36.6933 85.5169 36.66 85.5169H35.48C35.4466 85.5169 35.42 85.5069 35.4 85.4869C35.3733 85.4602 35.36 85.4302 35.36 85.3969V84.9269C35.38 84.5669 35.4933 84.2469 35.7 83.9669C35.9066 83.6935 36.18 83.4835 36.52 83.3369C36.8666 83.1902 37.2533 83.1169 37.68 83.1169C38.1533 83.1169 38.5666 83.2035 38.92 83.3769C39.2666 83.5569 39.5366 83.7969 39.73 84.0969C39.9166 84.3969 40.01 84.7302 40.01 85.0969C40.01 85.3769 39.94 85.6635 39.8 85.9569C39.66 86.2502 39.45 86.5669 39.17 86.9069C38.9633 87.1669 38.74 87.4235 38.5 87.6769C38.26 87.9302 37.9033 88.2969 37.43 88.7769L37.28 88.9269ZM43.39 90.3069C42.6566 90.3069 42.0766 90.1002 41.65 89.6869C41.2233 89.2802 41.01 88.7235 41.01 88.0169V85.3769C41.01 84.6835 41.2233 84.1335 41.65 83.7269C42.0766 83.3202 42.6566 83.1169 43.39 83.1169C44.1233 83.1169 44.7066 83.3202 45.14 83.7269C45.5666 84.1335 45.78 84.6835 45.78 85.3769V88.0169C45.78 88.7235 45.5666 89.2802 45.14 89.6869C44.7066 90.1002 44.1233 90.3069 43.39 90.3069ZM43.39 89.0969C43.69 89.0969 43.93 89.0035 44.11 88.8169C44.2833 88.6369 44.37 88.3935 44.37 88.0869V85.3369C44.37 85.0302 44.2833 84.7869 44.11 84.6069C43.93 84.4202 43.69 84.3269 43.39 84.3269C43.0966 84.3269 42.8633 84.4202 42.69 84.6069C42.51 84.7869 42.42 85.0302 42.42 85.3369V88.0869C42.42 88.3935 42.51 88.6369 42.69 88.8169C42.8633 89.0035 43.0966 89.0969 43.39 89.0969ZM48.58 88.9269C48.5666 88.9402 48.5633 88.9535 48.57 88.9669C48.5766 88.9802 48.59 88.9869 48.61 88.9869H51.32C51.3533 88.9869 51.3833 88.9969 51.41 89.0169C51.43 89.0435 51.44 89.0735 51.44 89.1069V90.0769C51.44 90.1102 51.43 90.1369 51.41 90.1569C51.3833 90.1835 51.3533 90.1969 51.32 90.1969H46.82C46.7866 90.1969 46.76 90.1835 46.74 90.1569C46.7133 90.1369 46.7 90.1102 46.7 90.0769V89.1569C46.7 89.0969 46.72 89.0469 46.76 89.0069C47.0866 88.6869 47.42 88.3402 47.76 87.9669C48.1 87.5869 48.3133 87.3502 48.4 87.2569C48.5866 87.0369 48.7766 86.8269 48.97 86.6269C49.5766 85.9535 49.88 85.4535 49.88 85.1269C49.88 84.8935 49.7966 84.7002 49.63 84.5469C49.4633 84.4002 49.2466 84.3269 48.98 84.3269C48.7133 84.3269 48.4966 84.4002 48.33 84.5469C48.1633 84.7002 48.08 84.9002 48.08 85.1469V85.3969C48.08 85.4302 48.07 85.4602 48.05 85.4869C48.0233 85.5069 47.9933 85.5169 47.96 85.5169H46.78C46.7466 85.5169 46.72 85.5069 46.7 85.4869C46.6733 85.4602 46.66 85.4302 46.66 85.3969V84.9269C46.68 84.5669 46.7933 84.2469 47 83.9669C47.2066 83.6935 47.4833 83.4835 47.83 83.3369C48.17 83.1902 48.5533 83.1169 48.98 83.1169C49.4533 83.1169 49.8666 83.2035 50.22 83.3769C50.5666 83.5569 50.8366 83.7969 51.03 84.0969C51.2166 84.3969 51.31 84.7302 51.31 85.0969C51.31 85.3769 51.24 85.6635 51.1 85.9569C50.96 86.2502 50.75 86.5669 50.47 86.9069C50.2633 87.1669 50.04 87.4235 49.8 87.6769C49.56 87.9302 49.2033 88.2969 48.73 88.7769L48.58 88.9269ZM57.31 87.1469C57.3433 87.1469 57.3733 87.1569 57.4 87.1769C57.42 87.2035 57.43 87.2335 57.43 87.2669V88.2769C57.43 88.3102 57.42 88.3402 57.4 88.3669C57.3733 88.3869 57.3433 88.3969 57.31 88.3969H56.88C56.8466 88.3969 56.83 88.4135 56.83 88.4469V90.0769C56.83 90.1102 56.82 90.1369 56.8 90.1569C56.7733 90.1835 56.7433 90.1969 56.71 90.1969H55.54C55.5066 90.1969 55.48 90.1835 55.46 90.1569C55.4333 90.1369 55.42 90.1102 55.42 90.0769V88.4469C55.42 88.4135 55.4033 88.3969 55.37 88.3969H52.3C52.2666 88.3969 52.24 88.3869 52.22 88.3669C52.1933 88.3402 52.18 88.3102 52.18 88.2769V87.4769C52.18 87.4369 52.19 87.3869 52.21 87.3269L54.01 83.2869C54.0366 83.2269 54.0833 83.1969 54.15 83.1969H55.4C55.4466 83.1969 55.48 83.2102 55.5 83.2369C55.5133 83.2569 55.51 83.2902 55.49 83.3369L53.82 87.0869C53.8133 87.1002 53.8133 87.1135 53.82 87.1269C53.8266 87.1402 53.8366 87.1469 53.85 87.1469H55.37C55.4033 87.1469 55.42 87.1302 55.42 87.0969V85.8569C55.42 85.8235 55.4333 85.7969 55.46 85.7769C55.48 85.7502 55.5066 85.7369 55.54 85.7369H56.71C56.7433 85.7369 56.7733 85.7502 56.8 85.7769C56.82 85.7969 56.83 85.8235 56.83 85.8569V87.0969C56.83 87.1302 56.8466 87.1469 56.88 87.1469H57.31Z" fill="#252530"></path></svg>