<svg xmlns="http://www.w3.org/2000/svg" width="93" height="105" viewBox="0 0 93 105" fill="none"><path d="M7.69995 81.1937L47.2 101.294L85.2 81.1937V2.59375H7.69995V81.1937Z" fill="white"></path><path d="M86 2.89844L6.90002 82.5984L47.9 102.898L86 83.3984V2.89844Z" fill="#F2F3F2"></path><path d="M5.09998 28.8V82.9L6.49998 83.6L46 103.7L47.2 104.3L48.4 103.7L86.5 83.6L87.9 82.9V0H5.09998V28.8ZM7.69998 81.4V2.6H85.3V81.4L47.2 101.5L7.69998 81.4Z" fill="#DCDEDC"></path><path d="M46.5 3.9C46.9 3.9 47.3 3.9 47.7 4L46.5 6.3C44.7 6.2 43.1 7.6 43 9.4C42.9 11.2 44.3 12.8 46.1 12.9H46.5C47.3 12.9 48.1 12.6 48.7 12.1L50 14.3C49 15 47.8 15.4 46.5 15.4C43.3 15.5 40.6 13.1 40.5 9.9C40.4 6.7 42.8 4 46 3.9H46.5ZM50.6 8.8L52.1 11.3L50.6 13.7L49.2 11.3H46.3L47.8 8.8H50.6ZM48.2 7.9C48.2 7.5 48.3 7.1 48.5 6.8C48.7 6.5 49.1 6.2 49.4 6L49.6 5.9C50 5.7 50.1 5.6 50.1 5.4C50.1 5.2 49.8 5 49.6 5C49.2 5 48.9 5.2 48.7 5.6L48.2 5.1C48.3 4.9 48.5 4.7 48.7 4.5C49 4.3 49.3 4.3 49.6 4.3C49.9 4.3 50.3 4.4 50.5 4.6C50.7 4.8 50.9 5.1 50.9 5.4C50.9 5.9 50.6 6.3 50 6.5L49.7 6.7C49.4 6.9 49.2 7 49.1 7.3H50.9V8L48.2 7.9ZM46.5 20.4L56 15V0H36.9V14.9L46.5 20.4Z" fill="#FF492C"></path><path d="M89.8 55.7969H3.2L0 62.7969L3.2 69.7969H89.8L92.9 62.7969L89.8 55.7969Z" fill="#2690CE"></path><path d="M11.88 51.2969C11.8467 51.2969 11.82 51.2835 11.8 51.2569C11.7733 51.2369 11.76 51.2102 11.76 51.1769V44.4169C11.76 44.3835 11.7733 44.3569 11.8 44.3369C11.82 44.3102 11.8467 44.2969 11.88 44.2969H13.05C13.0833 44.2969 13.1133 44.3102 13.14 44.3369C13.16 44.3569 13.17 44.3835 13.17 44.4169V51.1769C13.17 51.2102 13.16 51.2369 13.14 51.2569C13.1133 51.2835 13.0833 51.2969 13.05 51.2969H11.88ZM20 46.0769C20.52 46.0769 20.9267 46.2335 21.22 46.5469C21.5133 46.8602 21.66 47.3002 21.66 47.8669V51.1769C21.66 51.2102 21.6467 51.2369 21.62 51.2569C21.6 51.2835 21.5733 51.2969 21.54 51.2969H20.37C20.3367 51.2969 20.3067 51.2835 20.28 51.2569C20.26 51.2369 20.25 51.2102 20.25 51.1769V48.1769C20.25 47.9035 20.18 47.6869 20.04 47.5269C19.9 47.3669 19.7133 47.2869 19.48 47.2869C19.2467 47.2869 19.0567 47.3669 18.91 47.5269C18.7633 47.6869 18.69 47.9002 18.69 48.1669V51.1769C18.69 51.2102 18.6767 51.2369 18.65 51.2569C18.63 51.2835 18.6033 51.2969 18.57 51.2969H17.41C17.3767 51.2969 17.3467 51.2835 17.32 51.2569C17.3 51.2369 17.29 51.2102 17.29 51.1769V48.1769C17.29 47.9102 17.2167 47.6935 17.07 47.5269C16.9233 47.3669 16.7333 47.2869 16.5 47.2869C16.2867 47.2869 16.1067 47.3502 15.96 47.4769C15.82 47.6035 15.7367 47.7802 15.71 48.0069V51.1769C15.71 51.2102 15.7 51.2369 15.68 51.2569C15.6533 51.2835 15.6233 51.2969 15.59 51.2969H14.42C14.3867 51.2969 14.36 51.2835 14.34 51.2569C14.3133 51.2369 14.3 51.2102 14.3 51.1769V46.2769C14.3 46.2435 14.3133 46.2135 14.34 46.1869C14.36 46.1669 14.3867 46.1569 14.42 46.1569H15.59C15.6233 46.1569 15.6533 46.1669 15.68 46.1869C15.7 46.2135 15.71 46.2435 15.71 46.2769V46.6669C15.71 46.6869 15.7167 46.7002 15.73 46.7069C15.7433 46.7135 15.7567 46.7069 15.77 46.6869C16.0433 46.2802 16.4667 46.0769 17.04 46.0769C17.3733 46.0769 17.6633 46.1469 17.91 46.2869C18.1633 46.4269 18.3567 46.6269 18.49 46.8869C18.51 46.9269 18.5333 46.9269 18.56 46.8869C18.7067 46.6135 18.9033 46.4102 19.15 46.2769C19.4033 46.1435 19.6867 46.0769 20 46.0769ZM27.24 47.5369C27.36 47.8769 27.42 48.2769 27.42 48.7369C27.42 49.1969 27.3567 49.6135 27.23 49.9869C27.0767 50.4135 26.8367 50.7535 26.51 51.0069C26.1767 51.2535 25.7667 51.3769 25.28 51.3769C24.8 51.3769 24.4267 51.2102 24.16 50.8769C24.1467 50.8569 24.1333 50.8502 24.12 50.8569C24.1067 50.8635 24.1 50.8769 24.1 50.8969V53.0369C24.1 53.0702 24.09 53.0969 24.07 53.1169C24.0433 53.1435 24.0133 53.1569 23.98 53.1569H22.81C22.7767 53.1569 22.75 53.1435 22.73 53.1169C22.7033 53.0969 22.69 53.0702 22.69 53.0369V46.2769C22.69 46.2435 22.7033 46.2135 22.73 46.1869C22.75 46.1669 22.7767 46.1569 22.81 46.1569H23.98C24.0133 46.1569 24.0433 46.1669 24.07 46.1869C24.09 46.2135 24.1 46.2435 24.1 46.2769V46.6069C24.1 46.6269 24.1067 46.6369 24.12 46.6369C24.1333 46.6435 24.1467 46.6402 24.16 46.6269C24.44 46.2602 24.8267 46.0769 25.32 46.0769C25.78 46.0769 26.18 46.2069 26.52 46.4669C26.8533 46.7202 27.0933 47.0769 27.24 47.5369ZM25.71 49.7769C25.8767 49.5169 25.96 49.1635 25.96 48.7169C25.96 48.2969 25.89 47.9635 25.75 47.7169C25.5967 47.4302 25.35 47.2869 25.01 47.2869C24.7033 47.2869 24.4733 47.4302 24.32 47.7169C24.18 47.9569 24.11 48.2935 24.11 48.7269C24.11 49.1735 24.1833 49.5202 24.33 49.7669C24.4833 50.0335 24.71 50.1669 25.01 50.1669C25.31 50.1669 25.5433 50.0369 25.71 49.7769ZM28.45 51.2969C28.4167 51.2969 28.3867 51.2835 28.36 51.2569C28.34 51.2369 28.33 51.2102 28.33 51.1769V44.4169C28.33 44.3835 28.34 44.3569 28.36 44.3369C28.3867 44.3102 28.4167 44.2969 28.45 44.2969H29.62C29.6533 44.2969 29.68 44.3102 29.7 44.3369C29.7267 44.3569 29.74 44.3835 29.74 44.4169V51.1769C29.74 51.2102 29.7267 51.2369 29.7 51.2569C29.68 51.2835 29.6533 51.2969 29.62 51.2969H28.45ZM35.32 48.1969C35.36 48.4502 35.3733 48.7335 35.36 49.0469C35.3533 49.1269 35.31 49.1669 35.23 49.1669H32.14C32.1 49.1669 32.0867 49.1835 32.1 49.2169C32.12 49.3502 32.1567 49.4835 32.21 49.6169C32.3833 49.9902 32.7367 50.1769 33.27 50.1769C33.6967 50.1702 34.0333 49.9969 34.28 49.6569C34.3067 49.6169 34.3367 49.5969 34.37 49.5969C34.39 49.5969 34.4133 49.6102 34.44 49.6369L35.16 50.3469C35.1933 50.3802 35.21 50.4102 35.21 50.4369C35.21 50.4502 35.1967 50.4769 35.17 50.5169C34.95 50.7902 34.6667 51.0035 34.32 51.1569C33.9733 51.3035 33.5933 51.3769 33.18 51.3769C32.6067 51.3769 32.1233 51.2469 31.73 50.9869C31.33 50.7269 31.0433 50.3635 30.87 49.8969C30.73 49.5635 30.66 49.1269 30.66 48.5869C30.66 48.2202 30.71 47.8969 30.81 47.6169C30.9633 47.1435 31.23 46.7669 31.61 46.4869C31.9967 46.2069 32.4533 46.0669 32.98 46.0669C33.6467 46.0669 34.1833 46.2602 34.59 46.6469C34.99 47.0335 35.2333 47.5502 35.32 48.1969ZM32.99 47.2869C32.57 47.2869 32.2933 47.4835 32.16 47.8769C32.1333 47.9635 32.11 48.0702 32.09 48.1969C32.09 48.2302 32.1067 48.2469 32.14 48.2469H33.87C33.91 48.2469 33.9233 48.2302 33.91 48.1969C33.8767 48.0035 33.86 47.9102 33.86 47.9169C33.8 47.7169 33.6967 47.5602 33.55 47.4469C33.3967 47.3402 33.21 47.2869 32.99 47.2869ZM41.93 46.0769C42.45 46.0769 42.8567 46.2335 43.15 46.5469C43.4433 46.8602 43.59 47.3002 43.59 47.8669V51.1769C43.59 51.2102 43.58 51.2369 43.56 51.2569C43.5333 51.2835 43.5033 51.2969 43.47 51.2969H42.3C42.2667 51.2969 42.24 51.2835 42.22 51.2569C42.1933 51.2369 42.18 51.2102 42.18 51.1769V48.1769C42.18 47.9035 42.11 47.6869 41.97 47.5269C41.83 47.3669 41.6433 47.2869 41.41 47.2869C41.1767 47.2869 40.9867 47.3669 40.84 47.5269C40.6933 47.6869 40.62 47.9002 40.62 48.1669V51.1769C40.62 51.2102 40.61 51.2369 40.59 51.2569C40.5633 51.2835 40.5333 51.2969 40.5 51.2969H39.34C39.3067 51.2969 39.28 51.2835 39.26 51.2569C39.2333 51.2369 39.22 51.2102 39.22 51.1769V48.1769C39.22 47.9102 39.1467 47.6935 39 47.5269C38.8533 47.3669 38.6633 47.2869 38.43 47.2869C38.2167 47.2869 38.04 47.3502 37.9 47.4769C37.7533 47.6035 37.6667 47.7802 37.64 48.0069V51.1769C37.64 51.2102 37.63 51.2369 37.61 51.2569C37.5833 51.2835 37.5533 51.2969 37.52 51.2969H36.35C36.3167 51.2969 36.29 51.2835 36.27 51.2569C36.2433 51.2369 36.23 51.2102 36.23 51.1769V46.2769C36.23 46.2435 36.2433 46.2135 36.27 46.1869C36.29 46.1669 36.3167 46.1569 36.35 46.1569H37.52C37.5533 46.1569 37.5833 46.1669 37.61 46.1869C37.63 46.2135 37.64 46.2435 37.64 46.2769V46.6669C37.64 46.6869 37.6467 46.7002 37.66 46.7069C37.6733 46.7135 37.6867 46.7069 37.7 46.6869C37.9733 46.2802 38.3967 46.0769 38.97 46.0769C39.3033 46.0769 39.5967 46.1469 39.85 46.2869C40.0967 46.4269 40.2867 46.6269 40.42 46.8869C40.44 46.9269 40.4633 46.9269 40.49 46.8869C40.6367 46.6135 40.8367 46.4102 41.09 46.2769C41.3367 46.1435 41.6167 46.0769 41.93 46.0769ZM49.1 48.1969C49.14 48.4502 49.1533 48.7335 49.14 49.0469C49.1333 49.1269 49.09 49.1669 49.01 49.1669H45.92C45.88 49.1669 45.8667 49.1835 45.88 49.2169C45.9 49.3502 45.9367 49.4835 45.99 49.6169C46.1633 49.9902 46.5167 50.1769 47.05 50.1769C47.4767 50.1702 47.8133 49.9969 48.06 49.6569C48.0867 49.6169 48.1167 49.5969 48.15 49.5969C48.17 49.5969 48.1933 49.6102 48.22 49.6369L48.94 50.3469C48.9733 50.3802 48.99 50.4102 48.99 50.4369C48.99 50.4502 48.9767 50.4769 48.95 50.5169C48.73 50.7902 48.4467 51.0035 48.1 51.1569C47.7533 51.3035 47.3733 51.3769 46.96 51.3769C46.3867 51.3769 45.9033 51.2469 45.51 50.9869C45.11 50.7269 44.8233 50.3635 44.65 49.8969C44.51 49.5635 44.44 49.1269 44.44 48.5869C44.44 48.2202 44.49 47.8969 44.59 47.6169C44.7433 47.1435 45.0133 46.7669 45.4 46.4869C45.78 46.2069 46.2333 46.0669 46.76 46.0669C47.4267 46.0669 47.9633 46.2602 48.37 46.6469C48.77 47.0335 49.0133 47.5502 49.1 48.1969ZM46.77 47.2869C46.35 47.2869 46.0733 47.4835 45.94 47.8769C45.9133 47.9635 45.89 48.0702 45.87 48.1969C45.87 48.2302 45.8867 48.2469 45.92 48.2469H47.65C47.69 48.2469 47.7033 48.2302 47.69 48.1969C47.6567 48.0035 47.64 47.9102 47.64 47.9169C47.58 47.7169 47.4767 47.5602 47.33 47.4469C47.1767 47.3402 46.99 47.2869 46.77 47.2869ZM52.69 46.0769C53.2233 46.0769 53.6533 46.2402 53.98 46.5669C54.3067 46.8935 54.47 47.3369 54.47 47.8969V51.1769C54.47 51.2102 54.46 51.2369 54.44 51.2569C54.4133 51.2835 54.3833 51.2969 54.35 51.2969H53.18C53.1467 51.2969 53.12 51.2835 53.1 51.2569C53.0733 51.2369 53.06 51.2102 53.06 51.1769V48.1869C53.06 47.9202 52.9867 47.7035 52.84 47.5369C52.6867 47.3702 52.4867 47.2869 52.24 47.2869C51.9933 47.2869 51.7967 47.3702 51.65 47.5369C51.4967 47.7035 51.42 47.9202 51.42 48.1869V51.1769C51.42 51.2102 51.41 51.2369 51.39 51.2569C51.3633 51.2835 51.3333 51.2969 51.3 51.2969H50.13C50.0967 51.2969 50.07 51.2835 50.05 51.2569C50.0233 51.2369 50.01 51.2102 50.01 51.1769V46.2769C50.01 46.2435 50.0233 46.2135 50.05 46.1869C50.07 46.1669 50.0967 46.1569 50.13 46.1569H51.3C51.3333 46.1569 51.3633 46.1669 51.39 46.1869C51.41 46.2135 51.42 46.2435 51.42 46.2769V46.6269C51.42 46.6469 51.4267 46.6602 51.44 46.6669C51.4533 46.6735 51.4633 46.6702 51.47 46.6569C51.7433 46.2702 52.15 46.0769 52.69 46.0769ZM58.43 47.1669C58.43 47.2002 58.42 47.2302 58.4 47.2569C58.3733 47.2769 58.3433 47.2869 58.31 47.2869H57.35C57.3167 47.2869 57.3 47.3035 57.3 47.3369V49.4569C57.3 49.6769 57.3467 49.8402 57.44 49.9469C57.5267 50.0535 57.67 50.1069 57.87 50.1069H58.2C58.2333 50.1069 58.2633 50.1169 58.29 50.1369C58.31 50.1635 58.32 50.1935 58.32 50.2269V51.1769C58.32 51.2502 58.28 51.2935 58.2 51.3069C57.92 51.3202 57.72 51.3269 57.6 51.3269C57.0467 51.3269 56.6333 51.2369 56.36 51.0569C56.0867 50.8702 55.9467 50.5235 55.94 50.0169V47.3369C55.94 47.3035 55.9233 47.2869 55.89 47.2869H55.32C55.2867 47.2869 55.26 47.2769 55.24 47.2569C55.2133 47.2302 55.2 47.2002 55.2 47.1669V46.2769C55.2 46.2435 55.2133 46.2135 55.24 46.1869C55.26 46.1669 55.2867 46.1569 55.32 46.1569H55.89C55.9233 46.1569 55.94 46.1402 55.94 46.1069V44.9169C55.94 44.8835 55.9533 44.8569 55.98 44.8369C56 44.8102 56.0267 44.7969 56.06 44.7969H57.18C57.2133 44.7969 57.2433 44.8102 57.27 44.8369C57.29 44.8569 57.3 44.8835 57.3 44.9169V46.1069C57.3 46.1402 57.3167 46.1569 57.35 46.1569H58.31C58.3433 46.1569 58.3733 46.1669 58.4 46.1869C58.42 46.2135 58.43 46.2435 58.43 46.2769V47.1669ZM61.33 46.0769C61.7633 46.0769 62.15 46.1502 62.49 46.2969C62.83 46.4502 63.0933 46.6569 63.28 46.9169C63.4733 47.1769 63.57 47.4669 63.57 47.7869V51.1769C63.57 51.2102 63.5567 51.2369 63.53 51.2569C63.51 51.2835 63.4833 51.2969 63.45 51.2969H62.28C62.2467 51.2969 62.22 51.2835 62.2 51.2569C62.1733 51.2369 62.16 51.2102 62.16 51.1769V50.8469C62.16 50.8269 62.1533 50.8135 62.14 50.8069C62.1267 50.8002 62.1133 50.8069 62.1 50.8269C61.82 51.1935 61.37 51.3769 60.75 51.3769C60.23 51.3769 59.81 51.2502 59.49 50.9969C59.17 50.7435 59.01 50.3702 59.01 49.8769C59.01 49.3635 59.19 48.9635 59.55 48.6769C59.91 48.3969 60.4233 48.2569 61.09 48.2569H62.11C62.1433 48.2569 62.16 48.2402 62.16 48.2069V47.9869C62.16 47.7669 62.0933 47.5935 61.96 47.4669C61.8267 47.3469 61.6267 47.2869 61.36 47.2869C61.1533 47.2869 60.9833 47.3235 60.85 47.3969C60.71 47.4702 60.62 47.5735 60.58 47.7069C60.56 47.7802 60.5167 47.8135 60.45 47.8069L59.24 47.6469C59.16 47.6335 59.1233 47.6035 59.13 47.5569C59.1567 47.2769 59.2667 47.0235 59.46 46.7969C59.66 46.5702 59.92 46.3935 60.24 46.2669C60.5667 46.1402 60.93 46.0769 61.33 46.0769ZM61.13 50.3269C61.4167 50.3269 61.66 50.2502 61.86 50.0969C62.06 49.9435 62.16 49.7469 62.16 49.5069V49.1469C62.16 49.1135 62.1433 49.0969 62.11 49.0969H61.39C61.09 49.0969 60.8533 49.1535 60.68 49.2669C60.5133 49.3802 60.43 49.5402 60.43 49.7469C60.43 49.9269 60.4933 50.0669 60.62 50.1669C60.7467 50.2735 60.9167 50.3269 61.13 50.3269ZM67.4 47.1669C67.4 47.2002 67.39 47.2302 67.37 47.2569C67.3433 47.2769 67.3133 47.2869 67.28 47.2869H66.32C66.2867 47.2869 66.27 47.3035 66.27 47.3369V49.4569C66.27 49.6769 66.3167 49.8402 66.41 49.9469C66.4967 50.0535 66.64 50.1069 66.84 50.1069H67.17C67.2033 50.1069 67.2333 50.1169 67.26 50.1369C67.28 50.1635 67.29 50.1935 67.29 50.2269V51.1769C67.29 51.2502 67.25 51.2935 67.17 51.3069C66.89 51.3202 66.69 51.3269 66.57 51.3269C66.0167 51.3269 65.6033 51.2369 65.33 51.0569C65.0567 50.8702 64.9167 50.5235 64.91 50.0169V47.3369C64.91 47.3035 64.8933 47.2869 64.86 47.2869H64.29C64.2567 47.2869 64.2267 47.2769 64.2 47.2569C64.18 47.2302 64.17 47.2002 64.17 47.1669V46.2769C64.17 46.2435 64.18 46.2135 64.2 46.1869C64.2267 46.1669 64.2567 46.1569 64.29 46.1569H64.86C64.8933 46.1569 64.91 46.1402 64.91 46.1069V44.9169C64.91 44.8835 64.9233 44.8569 64.95 44.8369C64.97 44.8102 64.9967 44.7969 65.03 44.7969H66.15C66.1833 44.7969 66.2133 44.8102 66.24 44.8369C66.26 44.8569 66.27 44.8835 66.27 44.9169V46.1069C66.27 46.1402 66.2867 46.1569 66.32 46.1569H67.28C67.3133 46.1569 67.3433 46.1669 67.37 46.1869C67.39 46.2135 67.4 46.2435 67.4 46.2769V47.1669ZM69.01 45.5769C68.7833 45.5769 68.5967 45.5002 68.45 45.3469C68.2967 45.2002 68.22 45.0135 68.22 44.7869C68.22 44.5535 68.2933 44.3635 68.44 44.2169C68.5867 44.0702 68.7767 43.9969 69.01 43.9969C69.2433 43.9969 69.4333 44.0702 69.58 44.2169C69.7267 44.3635 69.8 44.5535 69.8 44.7869C69.8 45.0135 69.7233 45.2002 69.57 45.3469C69.4233 45.5002 69.2367 45.5769 69.01 45.5769ZM68.41 51.2969C68.3767 51.2969 68.3467 51.2835 68.32 51.2569C68.3 51.2369 68.29 51.2102 68.29 51.1769V46.2669C68.29 46.2335 68.3 46.2035 68.32 46.1769C68.3467 46.1569 68.3767 46.1469 68.41 46.1469H69.58C69.6133 46.1469 69.6433 46.1569 69.67 46.1769C69.69 46.2035 69.7 46.2335 69.7 46.2669V51.1769C69.7 51.2102 69.69 51.2369 69.67 51.2569C69.6433 51.2835 69.6133 51.2969 69.58 51.2969H68.41ZM73.07 51.3769C72.51 51.3769 72.03 51.2302 71.63 50.9369C71.23 50.6435 70.9567 50.2435 70.81 49.7369C70.7167 49.4235 70.67 49.0835 70.67 48.7169C70.67 48.3235 70.7167 47.9702 70.81 47.6569C70.9633 47.1635 71.24 46.7769 71.64 46.4969C72.04 46.2169 72.52 46.0769 73.08 46.0769C73.6267 46.0769 74.0933 46.2169 74.48 46.4969C74.8667 46.7702 75.14 47.1535 75.3 47.6469C75.4067 47.9802 75.46 48.3302 75.46 48.6969C75.46 49.0569 75.4133 49.3935 75.32 49.7069C75.1733 50.2269 74.9 50.6369 74.5 50.9369C74.1067 51.2302 73.63 51.3769 73.07 51.3769ZM73.07 50.1669C73.29 50.1669 73.4767 50.1002 73.63 49.9669C73.7833 49.8335 73.8933 49.6502 73.96 49.4169C74.0133 49.2035 74.04 48.9702 74.04 48.7169C74.04 48.4369 74.0133 48.2002 73.96 48.0069C73.8867 47.7802 73.7733 47.6035 73.62 47.4769C73.4667 47.3502 73.28 47.2869 73.06 47.2869C72.8333 47.2869 72.6433 47.3502 72.49 47.4769C72.3433 47.6035 72.2367 47.7802 72.17 48.0069C72.1167 48.1669 72.09 48.4035 72.09 48.7169C72.09 49.0169 72.1133 49.2502 72.16 49.4169C72.2267 49.6502 72.3367 49.8335 72.49 49.9669C72.65 50.1002 72.8433 50.1669 73.07 50.1669ZM79.05 46.0769C79.5833 46.0769 80.0133 46.2402 80.34 46.5669C80.6667 46.8935 80.83 47.3369 80.83 47.8969V51.1769C80.83 51.2102 80.8167 51.2369 80.79 51.2569C80.77 51.2835 80.7433 51.2969 80.71 51.2969H79.54C79.5067 51.2969 79.4767 51.2835 79.45 51.2569C79.43 51.2369 79.42 51.2102 79.42 51.1769V48.1869C79.42 47.9202 79.3433 47.7035 79.19 47.5369C79.0433 47.3702 78.8467 47.2869 78.6 47.2869C78.3533 47.2869 78.1533 47.3702 78 47.5369C77.8533 47.7035 77.78 47.9202 77.78 48.1869V51.1769C77.78 51.2102 77.7667 51.2369 77.74 51.2569C77.72 51.2835 77.6933 51.2969 77.66 51.2969H76.49C76.4567 51.2969 76.4267 51.2835 76.4 51.2569C76.38 51.2369 76.37 51.2102 76.37 51.1769V46.2769C76.37 46.2435 76.38 46.2135 76.4 46.1869C76.4267 46.1669 76.4567 46.1569 76.49 46.1569H77.66C77.6933 46.1569 77.72 46.1669 77.74 46.1869C77.7667 46.2135 77.78 46.2435 77.78 46.2769V46.6269C77.78 46.6469 77.7867 46.6602 77.8 46.6669C77.8133 46.6735 77.8234 46.6702 77.83 46.6569C78.1034 46.2702 78.51 46.0769 79.05 46.0769ZM34.95 35.3869C34.95 35.4202 34.9367 35.4469 34.91 35.4669C34.89 35.4935 34.8633 35.5069 34.83 35.5069H31.56C31.5267 35.5069 31.51 35.5235 31.51 35.5569V37.1069C31.51 37.1402 31.5267 37.1569 31.56 37.1569H33.71C33.7433 37.1569 33.77 37.1669 33.79 37.1869C33.8167 37.2135 33.83 37.2435 33.83 37.2769V38.2469C33.83 38.2802 33.8167 38.3102 33.79 38.3369C33.77 38.3569 33.7433 38.3669 33.71 38.3669H31.56C31.5267 38.3669 31.51 38.3835 31.51 38.4169V41.1769C31.51 41.2102 31.5 41.2369 31.48 41.2569C31.4533 41.2835 31.4233 41.2969 31.39 41.2969H30.22C30.1867 41.2969 30.16 41.2835 30.14 41.2569C30.1133 41.2369 30.1 41.2102 30.1 41.1769V34.4169C30.1 34.3835 30.1133 34.3569 30.14 34.3369C30.16 34.3102 30.1867 34.2969 30.22 34.2969H34.83C34.8633 34.2969 34.89 34.3102 34.91 34.3369C34.9367 34.3569 34.95 34.3835 34.95 34.4169V35.3869ZM37.17 36.0769C37.6033 36.0769 37.99 36.1502 38.33 36.2969C38.67 36.4502 38.9367 36.6569 39.13 36.9169C39.3167 37.1769 39.41 37.4669 39.41 37.7869V41.1769C39.41 41.2102 39.4 41.2369 39.38 41.2569C39.3533 41.2835 39.3233 41.2969 39.29 41.2969H38.12C38.0867 41.2969 38.0567 41.2835 38.03 41.2569C38.01 41.2369 38 41.2102 38 41.1769V40.8469C38 40.8269 37.9933 40.8135 37.98 40.8069C37.9667 40.8002 37.9533 40.8069 37.94 40.8269C37.66 41.1935 37.21 41.3769 36.59 41.3769C36.07 41.3769 35.65 41.2502 35.33 40.9969C35.01 40.7435 34.85 40.3702 34.85 39.8769C34.85 39.3635 35.03 38.9635 35.39 38.6769C35.75 38.3969 36.2633 38.2569 36.93 38.2569H37.95C37.9833 38.2569 38 38.2402 38 38.2069V37.9869C38 37.7669 37.9333 37.5935 37.8 37.4669C37.6667 37.3469 37.4667 37.2869 37.2 37.2869C36.9933 37.2869 36.8233 37.3235 36.69 37.3969C36.55 37.4702 36.46 37.5735 36.42 37.7069C36.4 37.7802 36.3567 37.8135 36.29 37.8069L35.08 37.6469C35 37.6335 34.9633 37.6035 34.97 37.5569C34.9967 37.2769 35.11 37.0235 35.31 36.7969C35.5033 36.5702 35.7633 36.3935 36.09 36.2669C36.41 36.1402 36.77 36.0769 37.17 36.0769ZM36.97 40.3269C37.2567 40.3269 37.5 40.2502 37.7 40.0969C37.9 39.9435 38 39.7469 38 39.5069V39.1469C38 39.1135 37.9833 39.0969 37.95 39.0969H37.23C36.93 39.0969 36.6967 39.1535 36.53 39.2669C36.3567 39.3802 36.27 39.5402 36.27 39.7469C36.27 39.9269 36.3333 40.0669 36.46 40.1669C36.5867 40.2735 36.7567 40.3269 36.97 40.3269ZM42.45 41.3669C42.0033 41.3669 41.6133 41.3035 41.28 41.1769C40.9467 41.0502 40.69 40.8735 40.51 40.6469C40.3233 40.4202 40.23 40.1635 40.23 39.8769V39.7769C40.23 39.7435 40.2433 39.7169 40.27 39.6969C40.29 39.6702 40.3167 39.6569 40.35 39.6569H41.46C41.4933 39.6569 41.52 39.6702 41.54 39.6969C41.5667 39.7169 41.58 39.7435 41.58 39.7769V39.7869C41.58 39.9335 41.6633 40.0569 41.83 40.1569C41.99 40.2635 42.1933 40.3169 42.44 40.3169C42.6667 40.3169 42.85 40.2735 42.99 40.1869C43.13 40.0935 43.2 39.9802 43.2 39.8469C43.2 39.7269 43.14 39.6369 43.02 39.5769C42.9 39.5169 42.7033 39.4535 42.43 39.3869C42.1167 39.3069 41.87 39.2302 41.69 39.1569C41.2633 39.0102 40.9233 38.8302 40.67 38.6169C40.4167 38.4035 40.29 38.0969 40.29 37.6969C40.29 37.2035 40.4833 36.8102 40.87 36.5169C41.25 36.2302 41.7567 36.0869 42.39 36.0869C42.8167 36.0869 43.19 36.1569 43.51 36.2969C43.83 36.4302 44.08 36.6202 44.26 36.8669C44.4333 37.1135 44.52 37.3935 44.52 37.7069C44.52 37.7402 44.51 37.7702 44.49 37.7969C44.4633 37.8169 44.4333 37.8269 44.4 37.8269H43.33C43.2967 37.8269 43.27 37.8169 43.25 37.7969C43.2233 37.7702 43.21 37.7402 43.21 37.7069C43.21 37.5602 43.1367 37.4369 42.99 37.3369C42.8367 37.2369 42.6367 37.1869 42.39 37.1869C42.17 37.1869 41.99 37.2269 41.85 37.3069C41.71 37.3869 41.64 37.4969 41.64 37.6369C41.64 37.7702 41.71 37.8702 41.85 37.9369C41.9833 38.0035 42.21 38.0735 42.53 38.1469L42.78 38.2169C42.8733 38.2369 42.9733 38.2635 43.08 38.2969C43.5533 38.4369 43.9267 38.6169 44.2 38.8369C44.4733 39.0569 44.61 39.3769 44.61 39.7969C44.61 40.2902 44.4167 40.6735 44.03 40.9469C43.6367 41.2269 43.11 41.3669 42.45 41.3669ZM48.36 37.1669C48.36 37.2002 48.35 37.2302 48.33 37.2569C48.3033 37.2769 48.2733 37.2869 48.24 37.2869H47.28C47.2467 37.2869 47.23 37.3035 47.23 37.3369V39.4569C47.23 39.6769 47.2767 39.8402 47.37 39.9469C47.4567 40.0535 47.6 40.1069 47.8 40.1069H48.13C48.1633 40.1069 48.1933 40.1169 48.22 40.1369C48.24 40.1635 48.25 40.1935 48.25 40.2269V41.1769C48.25 41.2502 48.21 41.2935 48.13 41.3069C47.85 41.3202 47.65 41.3269 47.53 41.3269C46.9767 41.3269 46.5633 41.2369 46.29 41.0569C46.0167 40.8702 45.8767 40.5235 45.87 40.0169V37.3369C45.87 37.3035 45.8533 37.2869 45.82 37.2869H45.25C45.2167 37.2869 45.19 37.2769 45.17 37.2569C45.1433 37.2302 45.13 37.2002 45.13 37.1669V36.2769C45.13 36.2435 45.1433 36.2135 45.17 36.1869C45.19 36.1669 45.2167 36.1569 45.25 36.1569H45.82C45.8533 36.1569 45.87 36.1402 45.87 36.1069V34.9169C45.87 34.8835 45.88 34.8569 45.9 34.8369C45.9267 34.8102 45.9567 34.7969 45.99 34.7969H47.11C47.1433 34.7969 47.1733 34.8102 47.2 34.8369C47.22 34.8569 47.23 34.8835 47.23 34.9169V36.1069C47.23 36.1402 47.2467 36.1569 47.28 36.1569H48.24C48.2733 36.1569 48.3033 36.1669 48.33 36.1869C48.35 36.2135 48.36 36.2435 48.36 36.2769V37.1669ZM53.69 38.1969C53.73 38.4502 53.7433 38.7335 53.73 39.0469C53.7233 39.1269 53.68 39.1669 53.6 39.1669H50.51C50.47 39.1669 50.4567 39.1835 50.47 39.2169C50.49 39.3502 50.5267 39.4835 50.58 39.6169C50.7533 39.9902 51.1067 40.1769 51.64 40.1769C52.0667 40.1702 52.4033 39.9969 52.65 39.6569C52.6767 39.6169 52.7067 39.5969 52.74 39.5969C52.76 39.5969 52.7833 39.6102 52.81 39.6369L53.53 40.3469C53.5633 40.3802 53.58 40.4102 53.58 40.4369C53.58 40.4502 53.5667 40.4769 53.54 40.5169C53.32 40.7902 53.0367 41.0035 52.69 41.1569C52.3433 41.3035 51.9633 41.3769 51.55 41.3769C50.9767 41.3769 50.4933 41.2469 50.1 40.9869C49.7 40.7269 49.4133 40.3635 49.24 39.8969C49.1 39.5635 49.03 39.1269 49.03 38.5869C49.03 38.2202 49.08 37.8969 49.18 37.6169C49.3333 37.1435 49.6 36.7669 49.98 36.4869C50.3667 36.2069 50.8233 36.0669 51.35 36.0669C52.0167 36.0669 52.55 36.2602 52.95 36.6469C53.3567 37.0335 53.6033 37.5502 53.69 38.1969ZM51.36 37.2869C50.94 37.2869 50.6633 37.4835 50.53 37.8769C50.5033 37.9635 50.48 38.0702 50.46 38.1969C50.46 38.2302 50.4767 38.2469 50.51 38.2469H52.24C52.28 38.2469 52.2933 38.2302 52.28 38.1969C52.2467 38.0035 52.23 37.9102 52.23 37.9169C52.17 37.7169 52.0633 37.5602 51.91 37.4469C51.7633 37.3402 51.58 37.2869 51.36 37.2869ZM56.58 41.3669C56.1333 41.3669 55.7433 41.3035 55.41 41.1769C55.0767 41.0502 54.8167 40.8735 54.63 40.6469C54.45 40.4202 54.36 40.1635 54.36 39.8769V39.7769C54.36 39.7435 54.3733 39.7169 54.4 39.6969C54.42 39.6702 54.4467 39.6569 54.48 39.6569H55.59C55.6233 39.6569 55.65 39.6702 55.67 39.6969C55.6967 39.7169 55.71 39.7435 55.71 39.7769V39.7869C55.71 39.9335 55.79 40.0569 55.95 40.1569C56.1167 40.2635 56.3233 40.3169 56.57 40.3169C56.7967 40.3169 56.98 40.2735 57.12 40.1869C57.26 40.0935 57.33 39.9802 57.33 39.8469C57.33 39.7269 57.27 39.6369 57.15 39.5769C57.03 39.5169 56.8333 39.4535 56.56 39.3869C56.2467 39.3069 56 39.2302 55.82 39.1569C55.3933 39.0102 55.0533 38.8302 54.8 38.6169C54.5467 38.4035 54.42 38.0969 54.42 37.6969C54.42 37.2035 54.61 36.8102 54.99 36.5169C55.3767 36.2302 55.8867 36.0869 56.52 36.0869C56.9467 36.0869 57.32 36.1569 57.64 36.2969C57.96 36.4302 58.2067 36.6202 58.38 36.8669C58.56 37.1135 58.65 37.3935 58.65 37.7069C58.65 37.7402 58.64 37.7702 58.62 37.7969C58.5933 37.8169 58.5633 37.8269 58.53 37.8269H57.46C57.4267 37.8269 57.3967 37.8169 57.37 37.7969C57.35 37.7702 57.34 37.7402 57.34 37.7069C57.34 37.5602 57.2667 37.4369 57.12 37.3369C56.9667 37.2369 56.7667 37.1869 56.52 37.1869C56.3 37.1869 56.12 37.2269 55.98 37.3069C55.84 37.3869 55.77 37.4969 55.77 37.6369C55.77 37.7702 55.8367 37.8702 55.97 37.9369C56.11 38.0035 56.34 38.0735 56.66 38.1469L56.91 38.2169C57.0033 38.2369 57.1033 38.2635 57.21 38.2969C57.6833 38.4369 58.0567 38.6169 58.33 38.8369C58.6033 39.0569 58.74 39.3769 58.74 39.7969C58.74 40.2902 58.5433 40.6735 58.15 40.9469C57.7633 41.2269 57.24 41.3669 56.58 41.3669ZM62.49 37.1669C62.49 37.2002 62.4767 37.2302 62.45 37.2569C62.43 37.2769 62.4033 37.2869 62.37 37.2869H61.41C61.3767 37.2869 61.36 37.3035 61.36 37.3369V39.4569C61.36 39.6769 61.4033 39.8402 61.49 39.9469C61.5833 40.0535 61.73 40.1069 61.93 40.1069H62.26C62.2933 40.1069 62.32 40.1169 62.34 40.1369C62.3667 40.1635 62.38 40.1935 62.38 40.2269V41.1769C62.38 41.2502 62.34 41.2935 62.26 41.3069C61.98 41.3202 61.78 41.3269 61.66 41.3269C61.1067 41.3269 60.6933 41.2369 60.42 41.0569C60.1467 40.8702 60.0067 40.5235 60 40.0169V37.3369C60 37.3035 59.9833 37.2869 59.95 37.2869H59.38C59.3467 37.2869 59.3167 37.2769 59.29 37.2569C59.27 37.2302 59.26 37.2002 59.26 37.1669V36.2769C59.26 36.2435 59.27 36.2135 59.29 36.1869C59.3167 36.1669 59.3467 36.1569 59.38 36.1569H59.95C59.9833 36.1569 60 36.1402 60 36.1069V34.9169C60 34.8835 60.01 34.8569 60.03 34.8369C60.0567 34.8102 60.0867 34.7969 60.12 34.7969H61.24C61.2733 34.7969 61.3 34.8102 61.32 34.8369C61.3467 34.8569 61.36 34.8835 61.36 34.9169V36.1069C61.36 36.1402 61.3767 36.1569 61.41 36.1569H62.37C62.4033 36.1569 62.43 36.1669 62.45 36.1869C62.4767 36.2135 62.49 36.2435 62.49 36.2769V37.1669Z" fill="#252530"></path><path d="M28.34 60.5788C28.34 60.6121 28.33 60.6388 28.31 60.6588C28.2833 60.6854 28.2533 60.6988 28.22 60.6988H24.81C24.7766 60.6988 24.76 60.7154 24.76 60.7487V62.6188C24.76 62.6521 24.7766 62.6688 24.81 62.6688H27.1C27.1333 62.6688 27.1633 62.6788 27.19 62.6988C27.21 62.7254 27.22 62.7554 27.22 62.7887V63.5488C27.22 63.5821 27.21 63.6121 27.19 63.6387C27.1633 63.6587 27.1333 63.6688 27.1 63.6688H24.81C24.7766 63.6688 24.76 63.6854 24.76 63.7188V65.6488C24.76 65.6821 24.7766 65.6988 24.81 65.6988H28.22C28.2533 65.6988 28.2833 65.7121 28.31 65.7388C28.33 65.7588 28.34 65.7854 28.34 65.8187V66.5788C28.34 66.6121 28.33 66.6388 28.31 66.6588C28.2833 66.6854 28.2533 66.6988 28.22 66.6988H23.72C23.6866 66.6988 23.66 66.6854 23.64 66.6588C23.6133 66.6388 23.6 66.6121 23.6 66.5788V59.8187C23.6 59.7854 23.6133 59.7588 23.64 59.7388C23.66 59.7121 23.6866 59.6988 23.72 59.6988H28.22C28.2533 59.6988 28.2833 59.7121 28.31 59.7388C28.33 59.7588 28.34 59.7854 28.34 59.8187V60.5788ZM31.86 61.5088C32.4 61.5088 32.8333 61.6688 33.16 61.9888C33.48 62.3088 33.64 62.7454 33.64 63.2988V66.5788C33.64 66.6121 33.6266 66.6388 33.6 66.6588C33.58 66.6854 33.5533 66.6988 33.52 66.6988H32.6C32.5666 66.6988 32.5366 66.6854 32.51 66.6588C32.49 66.6388 32.48 66.6121 32.48 66.5788V63.5387C32.48 63.2321 32.3933 62.9821 32.22 62.7887C32.0466 62.6021 31.8166 62.5088 31.53 62.5088C31.2433 62.5088 31.01 62.6021 30.83 62.7887C30.6566 62.9754 30.57 63.2221 30.57 63.5288V66.5788C30.57 66.6121 30.56 66.6388 30.54 66.6588C30.5133 66.6854 30.4833 66.6988 30.45 66.6988H29.53C29.4966 66.6988 29.47 66.6854 29.45 66.6588C29.4233 66.6388 29.41 66.6121 29.41 66.5788V61.7088C29.41 61.6754 29.4233 61.6454 29.45 61.6188C29.47 61.5988 29.4966 61.5888 29.53 61.5888H30.45C30.4833 61.5888 30.5133 61.5988 30.54 61.6188C30.56 61.6454 30.57 61.6754 30.57 61.7088V62.0288C30.57 62.0488 30.5766 62.0621 30.59 62.0687C30.6033 62.0754 30.6133 62.0688 30.62 62.0488C30.8933 61.6888 31.3066 61.5088 31.86 61.5088ZM37.56 62.4088C37.56 62.4421 37.5466 62.4688 37.52 62.4888C37.5 62.5154 37.4733 62.5288 37.44 62.5288H36.42C36.3866 62.5288 36.37 62.5454 36.37 62.5788V64.9888C36.37 65.2421 36.4233 65.4254 36.53 65.5387C36.6433 65.6521 36.82 65.7088 37.06 65.7088H37.36C37.3933 65.7088 37.42 65.7188 37.44 65.7388C37.4666 65.7654 37.48 65.7954 37.48 65.8288V66.5788C37.48 66.6521 37.44 66.6954 37.36 66.7088L36.84 66.7188C36.3133 66.7188 35.92 66.6288 35.66 66.4488C35.4 66.2688 35.2666 65.9287 35.26 65.4287V62.5788C35.26 62.5454 35.2433 62.5288 35.21 62.5288H34.64C34.6066 62.5288 34.5766 62.5154 34.55 62.4888C34.53 62.4688 34.52 62.4421 34.52 62.4088V61.7088C34.52 61.6754 34.53 61.6454 34.55 61.6188C34.5766 61.5988 34.6066 61.5888 34.64 61.5888H35.21C35.2433 61.5888 35.26 61.5721 35.26 61.5387V60.3688C35.26 60.3354 35.27 60.3054 35.29 60.2788C35.3166 60.2588 35.3466 60.2487 35.38 60.2487H36.25C36.2833 60.2487 36.31 60.2588 36.33 60.2788C36.3566 60.3054 36.37 60.3354 36.37 60.3688V61.5387C36.37 61.5721 36.3866 61.5888 36.42 61.5888H37.44C37.4733 61.5888 37.5 61.5988 37.52 61.6188C37.5466 61.6454 37.56 61.6754 37.56 61.7088V62.4088ZM42.8 63.5687C42.8266 63.7354 42.84 63.9221 42.84 64.1288L42.83 64.4388C42.83 64.5188 42.79 64.5588 42.71 64.5588H39.58C39.5466 64.5588 39.53 64.5754 39.53 64.6087C39.55 64.8287 39.58 64.9788 39.62 65.0588C39.78 65.5388 40.17 65.7821 40.79 65.7887C41.2433 65.7887 41.6033 65.6021 41.87 65.2288C41.8966 65.1888 41.93 65.1688 41.97 65.1688C41.9966 65.1688 42.02 65.1788 42.04 65.1988L42.66 65.7088C42.72 65.7554 42.73 65.8088 42.69 65.8688C42.4833 66.1621 42.21 66.3888 41.87 66.5488C41.5233 66.7088 41.14 66.7887 40.72 66.7887C40.2 66.7887 39.7566 66.6721 39.39 66.4388C39.03 66.2054 38.7666 65.8788 38.6 65.4588C38.4466 65.0988 38.37 64.5988 38.37 63.9588C38.37 63.5721 38.41 63.2588 38.49 63.0188C38.6233 62.5521 38.8766 62.1821 39.25 61.9088C39.6166 61.6421 40.06 61.5088 40.58 61.5088C41.8933 61.5088 42.6333 62.1954 42.8 63.5687ZM40.58 62.5088C40.3333 62.5088 40.1266 62.5721 39.96 62.6988C39.8 62.8188 39.6866 62.9888 39.62 63.2088C39.58 63.3221 39.5533 63.4688 39.54 63.6488C39.5266 63.6821 39.54 63.6988 39.58 63.6988H41.61C41.6433 63.6988 41.66 63.6821 41.66 63.6488C41.6466 63.4821 41.6266 63.3554 41.6 63.2688C41.54 63.0288 41.4233 62.8421 41.25 62.7088C41.07 62.5754 40.8466 62.5088 40.58 62.5088ZM46.28 61.5288C46.4933 61.5288 46.68 61.5721 46.84 61.6588C46.8933 61.6854 46.9133 61.7354 46.9 61.8088L46.73 62.7088C46.7233 62.7888 46.6766 62.8121 46.59 62.7788C46.49 62.7454 46.3733 62.7288 46.24 62.7288C46.1533 62.7288 46.0866 62.7321 46.04 62.7388C45.76 62.7521 45.5266 62.8488 45.34 63.0288C45.1533 63.2154 45.06 63.4554 45.06 63.7487V66.5788C45.06 66.6121 45.05 66.6388 45.03 66.6588C45.0033 66.6854 44.9733 66.6988 44.94 66.6988H44.02C43.9866 66.6988 43.96 66.6854 43.94 66.6588C43.9133 66.6388 43.9 66.6121 43.9 66.5788V61.7088C43.9 61.6754 43.9133 61.6454 43.94 61.6188C43.96 61.5988 43.9866 61.5888 44.02 61.5888H44.94C44.9733 61.5888 45.0033 61.5988 45.03 61.6188C45.05 61.6454 45.06 61.6754 45.06 61.7088V62.1588C45.06 62.1854 45.0633 62.1988 45.07 62.1988C45.0833 62.2054 45.0966 62.1987 45.11 62.1787C45.39 61.7454 45.78 61.5288 46.28 61.5288ZM51.99 62.9088C52.11 63.2488 52.17 63.6654 52.17 64.1588C52.17 64.6321 52.1133 65.0388 52 65.3788C51.8533 65.8188 51.62 66.1621 51.3 66.4088C50.9733 66.6554 50.5633 66.7788 50.07 66.7788C49.5966 66.7788 49.2166 66.6088 48.93 66.2688C48.9166 66.2554 48.9033 66.2521 48.89 66.2588C48.8766 66.2654 48.87 66.2788 48.87 66.2988V68.4688C48.87 68.5021 48.86 68.5288 48.84 68.5488C48.8133 68.5754 48.7833 68.5888 48.75 68.5888H47.83C47.7966 68.5888 47.77 68.5754 47.75 68.5488C47.7233 68.5288 47.71 68.5021 47.71 68.4688V61.7088C47.71 61.6754 47.7233 61.6454 47.75 61.6188C47.77 61.5988 47.7966 61.5888 47.83 61.5888H48.75C48.7833 61.5888 48.8133 61.5988 48.84 61.6188C48.86 61.6454 48.87 61.6754 48.87 61.7088V62.0088C48.87 62.0288 48.8766 62.0421 48.89 62.0488C48.9033 62.0554 48.9166 62.0488 48.93 62.0288C49.2233 61.6821 49.6066 61.5088 50.08 61.5088C50.5533 61.5088 50.9533 61.6321 51.28 61.8788C51.6066 62.1254 51.8433 62.4688 51.99 62.9088ZM50.69 65.3587C50.89 65.0521 50.99 64.6454 50.99 64.1387C50.99 63.6521 50.91 63.2688 50.75 62.9888C50.5633 62.6621 50.28 62.4987 49.9 62.4987C49.5533 62.4987 49.2933 62.6588 49.12 62.9788C48.9666 63.2388 48.89 63.6254 48.89 64.1387C48.89 64.6654 48.9733 65.0654 49.14 65.3388C49.3133 65.6321 49.5633 65.7788 49.89 65.7788C50.2433 65.7788 50.51 65.6387 50.69 65.3587ZM55.67 61.5288C55.8833 61.5288 56.07 61.5721 56.23 61.6588C56.2833 61.6854 56.3033 61.7354 56.29 61.8088L56.12 62.7088C56.1133 62.7888 56.0666 62.8121 55.98 62.7788C55.88 62.7454 55.7633 62.7288 55.63 62.7288C55.5433 62.7288 55.4766 62.7321 55.43 62.7388C55.15 62.7521 54.9166 62.8488 54.73 63.0288C54.5433 63.2154 54.45 63.4554 54.45 63.7487V66.5788C54.45 66.6121 54.44 66.6388 54.42 66.6588C54.3933 66.6854 54.3633 66.6988 54.33 66.6988H53.41C53.3766 66.6988 53.35 66.6854 53.33 66.6588C53.3033 66.6388 53.29 66.6121 53.29 66.5788V61.7088C53.29 61.6754 53.3033 61.6454 53.33 61.6188C53.35 61.5988 53.3766 61.5888 53.41 61.5888H54.33C54.3633 61.5888 54.3933 61.5988 54.42 61.6188C54.44 61.6454 54.45 61.6754 54.45 61.7088V62.1588C54.45 62.1854 54.4533 62.1988 54.46 62.1988C54.4733 62.2054 54.4866 62.1987 54.5 62.1787C54.78 61.7454 55.17 61.5288 55.67 61.5288ZM57.71 60.8887C57.5033 60.8887 57.3333 60.8221 57.2 60.6888C57.0666 60.5554 57 60.3854 57 60.1787C57 59.9721 57.0666 59.8021 57.2 59.6688C57.3333 59.5354 57.5033 59.4688 57.71 59.4688C57.9166 59.4688 58.0866 59.5354 58.22 59.6688C58.3533 59.8021 58.42 59.9721 58.42 60.1787C58.42 60.3854 58.3533 60.5554 58.22 60.6888C58.0866 60.8221 57.9166 60.8887 57.71 60.8887ZM57.23 66.6988C57.1966 66.6988 57.17 66.6854 57.15 66.6588C57.1233 66.6388 57.11 66.6121 57.11 66.5788V61.6988C57.11 61.6654 57.1233 61.6388 57.15 61.6188C57.17 61.5921 57.1966 61.5788 57.23 61.5788H58.15C58.1833 61.5788 58.2133 61.5921 58.24 61.6188C58.26 61.6388 58.27 61.6654 58.27 61.6988V66.5788C58.27 66.6121 58.26 66.6388 58.24 66.6588C58.2133 66.6854 58.1833 66.6988 58.15 66.6988H57.23ZM61.5 66.7588C61.08 66.7588 60.71 66.6954 60.39 66.5687C60.0766 66.4487 59.8333 66.2788 59.66 66.0588C59.4866 65.8454 59.4 65.6054 59.4 65.3388V65.2487C59.4 65.2154 59.41 65.1854 59.43 65.1588C59.4566 65.1388 59.4866 65.1288 59.52 65.1288H60.4C60.4333 65.1288 60.4633 65.1388 60.49 65.1588C60.51 65.1854 60.52 65.2154 60.52 65.2487V65.2688C60.52 65.4354 60.61 65.5821 60.79 65.7088C60.9766 65.8288 61.21 65.8887 61.49 65.8887C61.7566 65.8887 61.9733 65.8354 62.14 65.7288C62.3066 65.6154 62.39 65.4754 62.39 65.3088C62.39 65.1554 62.32 65.0388 62.18 64.9588C62.0466 64.8854 61.8266 64.8054 61.52 64.7188L61.14 64.5988C60.8 64.4988 60.5133 64.3921 60.28 64.2788C60.0466 64.1654 59.85 64.0088 59.69 63.8088C59.53 63.6154 59.45 63.3654 59.45 63.0588C59.45 62.5921 59.6333 62.2221 60 61.9488C60.3666 61.6688 60.85 61.5288 61.45 61.5288C61.8566 61.5288 62.2133 61.5921 62.52 61.7188C62.8266 61.8521 63.0633 62.0321 63.23 62.2588C63.3966 62.4921 63.48 62.7554 63.48 63.0488C63.48 63.0821 63.47 63.1121 63.45 63.1387C63.4233 63.1587 63.3933 63.1688 63.36 63.1688H62.51C62.4766 63.1688 62.4466 63.1587 62.42 63.1387C62.4 63.1121 62.39 63.0821 62.39 63.0488C62.39 62.8754 62.3066 62.7321 62.14 62.6188C61.9666 62.4988 61.7333 62.4388 61.44 62.4388C61.18 62.4388 60.97 62.4854 60.81 62.5788C60.6433 62.6788 60.56 62.8154 60.56 62.9888C60.56 63.1488 60.6366 63.2688 60.79 63.3488C60.95 63.4354 61.2133 63.5288 61.58 63.6288L61.8 63.6888C62.1533 63.7954 62.45 63.9021 62.69 64.0088C62.93 64.1221 63.1333 64.2754 63.3 64.4688C63.4666 64.6688 63.55 64.9254 63.55 65.2388C63.55 65.7121 63.3633 66.0821 62.99 66.3488C62.6166 66.6221 62.12 66.7588 61.5 66.7588ZM68.84 63.5687C68.8666 63.7354 68.88 63.9221 68.88 64.1288L68.87 64.4388C68.87 64.5188 68.83 64.5588 68.75 64.5588H65.62C65.5866 64.5588 65.57 64.5754 65.57 64.6087C65.59 64.8287 65.62 64.9788 65.66 65.0588C65.82 65.5388 66.21 65.7821 66.83 65.7887C67.2833 65.7887 67.6433 65.6021 67.91 65.2288C67.9366 65.1888 67.97 65.1688 68.01 65.1688C68.0366 65.1688 68.06 65.1788 68.08 65.1988L68.7 65.7088C68.76 65.7554 68.77 65.8088 68.73 65.8688C68.5233 66.1621 68.2466 66.3888 67.9 66.5488C67.56 66.7088 67.18 66.7887 66.76 66.7887C66.24 66.7887 65.7966 66.6721 65.43 66.4388C65.07 66.2054 64.8066 65.8788 64.64 65.4588C64.4866 65.0988 64.41 64.5988 64.41 63.9588C64.41 63.5721 64.45 63.2588 64.53 63.0188C64.6633 62.5521 64.9133 62.1821 65.28 61.9088C65.6533 61.6421 66.1 61.5088 66.62 61.5088C67.9333 61.5088 68.6733 62.1954 68.84 63.5687ZM66.62 62.5088C66.3733 62.5088 66.1666 62.5721 66 62.6988C65.84 62.8188 65.7266 62.9888 65.66 63.2088C65.62 63.3221 65.5933 63.4688 65.58 63.6488C65.5666 63.6821 65.58 63.6988 65.62 63.6988H67.65C67.6833 63.6988 67.7 63.6821 67.7 63.6488C67.6866 63.4821 67.6666 63.3554 67.64 63.2688C67.58 63.0288 67.46 62.8421 67.28 62.7088C67.1066 62.5754 66.8866 62.5088 66.62 62.5088Z" fill="white"></path><path d="M30.76 80.7969C30.6866 80.7969 30.64 80.7635 30.62 80.6969L28.85 73.9269L28.84 73.8869C28.84 73.8269 28.8766 73.7969 28.95 73.7969H30.19C30.2566 73.7969 30.3 73.8302 30.32 73.8969L31.27 77.9669C31.2766 77.9935 31.2866 78.0069 31.3 78.0069C31.3133 78.0069 31.3233 77.9935 31.33 77.9669L32.25 73.9069C32.27 73.8335 32.3133 73.7969 32.38 73.7969H33.59C33.6633 73.7969 33.71 73.8302 33.73 73.8969L34.73 77.9669C34.7366 77.9869 34.7466 78.0002 34.76 78.0069C34.7733 78.0069 34.7833 77.9935 34.79 77.9669L35.71 73.9069C35.73 73.8335 35.7733 73.7969 35.84 73.7969H37.02C37.1133 73.7969 37.15 73.8402 37.13 73.9269L35.49 80.6969C35.47 80.7635 35.4233 80.7969 35.35 80.7969H34.16C34.0933 80.7969 34.05 80.7635 34.03 80.6969L33.01 76.3669C33.0033 76.3402 32.9933 76.3269 32.98 76.3269C32.9666 76.3269 32.9566 76.3402 32.95 76.3669L32 80.6869C31.9866 80.7602 31.9433 80.7969 31.87 80.7969H30.76ZM38.1 80.7969C38.0666 80.7969 38.0366 80.7835 38.01 80.7569C37.99 80.7369 37.98 80.7102 37.98 80.6769V73.9169C37.98 73.8835 37.99 73.8569 38.01 73.8369C38.0366 73.8102 38.0666 73.7969 38.1 73.7969H39.27C39.3033 73.7969 39.33 73.8102 39.35 73.8369C39.3766 73.8569 39.39 73.8835 39.39 73.9169V80.6769C39.39 80.7102 39.3766 80.7369 39.35 80.7569C39.33 80.7835 39.3033 80.7969 39.27 80.7969H38.1ZM44.63 73.9169C44.63 73.8835 44.64 73.8569 44.66 73.8369C44.6866 73.8102 44.7166 73.7969 44.75 73.7969H45.92C45.9533 73.7969 45.98 73.8102 46 73.8369C46.0266 73.8569 46.04 73.8835 46.04 73.9169V80.6769C46.04 80.7102 46.0266 80.7369 46 80.7569C45.98 80.7835 45.9533 80.7969 45.92 80.7969H44.79C44.7233 80.7969 44.6766 80.7702 44.65 80.7169L42.06 76.4369C42.0466 76.4169 42.0333 76.4102 42.02 76.4169C42.0066 76.4169 42 76.4302 42 76.4569L42.02 80.6769C42.02 80.7102 42.0066 80.7369 41.98 80.7569C41.96 80.7835 41.9333 80.7969 41.9 80.7969H40.73C40.6966 80.7969 40.6666 80.7835 40.64 80.7569C40.62 80.7369 40.61 80.7102 40.61 80.6769V73.9169C40.61 73.8835 40.62 73.8569 40.64 73.8369C40.6666 73.8102 40.6966 73.7969 40.73 73.7969H41.86C41.9266 73.7969 41.9733 73.8235 42 73.8769L44.58 78.1369C44.5933 78.1569 44.6066 78.1635 44.62 78.1569C44.6333 78.1569 44.64 78.1435 44.64 78.1169L44.63 73.9169ZM52.09 73.7969C52.1233 73.7969 52.15 73.8102 52.17 73.8369C52.1966 73.8569 52.21 73.8835 52.21 73.9169V74.8969C52.21 74.9302 52.1966 74.9569 52.17 74.9769C52.15 75.0035 52.1233 75.0169 52.09 75.0169H50.3C50.2666 75.0169 50.25 75.0335 50.25 75.0669V80.6769C50.25 80.7102 50.2366 80.7369 50.21 80.7569C50.19 80.7835 50.1633 80.7969 50.13 80.7969H48.96C48.9266 80.7969 48.8966 80.7835 48.87 80.7569C48.85 80.7369 48.84 80.7102 48.84 80.6769V75.0669C48.84 75.0335 48.8233 75.0169 48.79 75.0169H47.05C47.0166 75.0169 46.9866 75.0035 46.96 74.9769C46.94 74.9569 46.93 74.9302 46.93 74.8969V73.9169C46.93 73.8835 46.94 73.8569 46.96 73.8369C46.9866 73.8102 47.0166 73.7969 47.05 73.7969H52.09ZM57.97 74.8869C57.97 74.9202 57.96 74.9469 57.94 74.9669C57.9133 74.9935 57.8833 75.0069 57.85 75.0069H54.57C54.5366 75.0069 54.52 75.0235 54.52 75.0569V76.6069C54.52 76.6402 54.5366 76.6569 54.57 76.6569H56.72C56.7533 76.6569 56.78 76.6669 56.8 76.6869C56.8266 76.7135 56.84 76.7435 56.84 76.7769V77.7469C56.84 77.7802 56.8266 77.8102 56.8 77.8369C56.78 77.8569 56.7533 77.8669 56.72 77.8669H54.57C54.5366 77.8669 54.52 77.8835 54.52 77.9169V79.5369C54.52 79.5702 54.5366 79.5869 54.57 79.5869H57.85C57.8833 79.5869 57.9133 79.5969 57.94 79.6169C57.96 79.6435 57.97 79.6735 57.97 79.7069V80.6769C57.97 80.7102 57.96 80.7369 57.94 80.7569C57.9133 80.7835 57.8833 80.7969 57.85 80.7969H53.23C53.1966 80.7969 53.1666 80.7835 53.14 80.7569C53.12 80.7369 53.11 80.7102 53.11 80.6769V73.9169C53.11 73.8835 53.12 73.8569 53.14 73.8369C53.1666 73.8102 53.1966 73.7969 53.23 73.7969H57.85C57.8833 73.7969 57.9133 73.8102 57.94 73.8369C57.96 73.8569 57.97 73.8835 57.97 73.9169V74.8869ZM62.79 80.7969C62.7233 80.7969 62.6766 80.7669 62.65 80.7069L61.4 77.9369C61.3866 77.9102 61.3666 77.8969 61.34 77.8969H60.41C60.3766 77.8969 60.36 77.9135 60.36 77.9469V80.6769C60.36 80.7102 60.3466 80.7369 60.32 80.7569C60.3 80.7835 60.2733 80.7969 60.24 80.7969H59.07C59.0366 80.7969 59.0066 80.7835 58.98 80.7569C58.96 80.7369 58.95 80.7102 58.95 80.6769V73.9169C58.95 73.8835 58.96 73.8569 58.98 73.8369C59.0066 73.8102 59.0366 73.7969 59.07 73.7969H61.93C62.3566 73.7969 62.73 73.8835 63.05 74.0569C63.3766 74.2302 63.6266 74.4769 63.8 74.7969C63.98 75.1169 64.07 75.4869 64.07 75.9069C64.07 76.3602 63.9566 76.7469 63.73 77.0669C63.5033 77.3935 63.1866 77.6235 62.78 77.7569C62.7466 77.7702 62.7366 77.7935 62.75 77.8269L64.11 80.6569C64.1233 80.6835 64.13 80.7035 64.13 80.7169C64.13 80.7702 64.0933 80.7969 64.02 80.7969H62.79ZM60.41 75.0069C60.3766 75.0069 60.36 75.0235 60.36 75.0569V76.7669C60.36 76.8002 60.3766 76.8169 60.41 76.8169H61.72C62 76.8169 62.2266 76.7335 62.4 76.5669C62.58 76.4002 62.67 76.1835 62.67 75.9169C62.67 75.6502 62.58 75.4302 62.4 75.2569C62.2266 75.0902 62 75.0069 61.72 75.0069H60.41ZM37.28 88.9269C37.2666 88.9402 37.2633 88.9535 37.27 88.9669C37.2766 88.9802 37.29 88.9869 37.31 88.9869H40.02C40.0533 88.9869 40.0833 88.9969 40.11 89.0169C40.13 89.0435 40.14 89.0735 40.14 89.1069V90.0769C40.14 90.1102 40.13 90.1369 40.11 90.1569C40.0833 90.1835 40.0533 90.1969 40.02 90.1969H35.52C35.4866 90.1969 35.4566 90.1835 35.43 90.1569C35.41 90.1369 35.4 90.1102 35.4 90.0769V89.1569C35.4 89.0969 35.42 89.0469 35.46 89.0069C35.7866 88.6869 36.12 88.3402 36.46 87.9669C36.8 87.5869 37.0133 87.3502 37.1 87.2569C37.2866 87.0369 37.4766 86.8269 37.67 86.6269C38.2766 85.9535 38.58 85.4535 38.58 85.1269C38.58 84.8935 38.4966 84.7002 38.33 84.5469C38.1633 84.4002 37.9466 84.3269 37.68 84.3269C37.4133 84.3269 37.1966 84.4002 37.03 84.5469C36.8633 84.7002 36.78 84.9002 36.78 85.1469V85.3969C36.78 85.4302 36.7666 85.4602 36.74 85.4869C36.72 85.5069 36.6933 85.5169 36.66 85.5169H35.48C35.4466 85.5169 35.42 85.5069 35.4 85.4869C35.3733 85.4602 35.36 85.4302 35.36 85.3969V84.9269C35.38 84.5669 35.4933 84.2469 35.7 83.9669C35.9066 83.6935 36.18 83.4835 36.52 83.3369C36.8666 83.1902 37.2533 83.1169 37.68 83.1169C38.1533 83.1169 38.5666 83.2035 38.92 83.3769C39.2666 83.5569 39.5366 83.7969 39.73 84.0969C39.9166 84.3969 40.01 84.7302 40.01 85.0969C40.01 85.3769 39.94 85.6635 39.8 85.9569C39.66 86.2502 39.45 86.5669 39.17 86.9069C38.9633 87.1669 38.74 87.4235 38.5 87.6769C38.26 87.9302 37.9033 88.2969 37.43 88.7769L37.28 88.9269ZM43.39 90.3069C42.6566 90.3069 42.0766 90.1002 41.65 89.6869C41.2233 89.2802 41.01 88.7235 41.01 88.0169V85.3769C41.01 84.6835 41.2233 84.1335 41.65 83.7269C42.0766 83.3202 42.6566 83.1169 43.39 83.1169C44.1233 83.1169 44.7066 83.3202 45.14 83.7269C45.5666 84.1335 45.78 84.6835 45.78 85.3769V88.0169C45.78 88.7235 45.5666 89.2802 45.14 89.6869C44.7066 90.1002 44.1233 90.3069 43.39 90.3069ZM43.39 89.0969C43.69 89.0969 43.93 89.0035 44.11 88.8169C44.2833 88.6369 44.37 88.3935 44.37 88.0869V85.3369C44.37 85.0302 44.2833 84.7869 44.11 84.6069C43.93 84.4202 43.69 84.3269 43.39 84.3269C43.0966 84.3269 42.8633 84.4202 42.69 84.6069C42.51 84.7869 42.42 85.0302 42.42 85.3369V88.0869C42.42 88.3935 42.51 88.6369 42.69 88.8169C42.8633 89.0035 43.0966 89.0969 43.39 89.0969ZM48.58 88.9269C48.5666 88.9402 48.5633 88.9535 48.57 88.9669C48.5766 88.9802 48.59 88.9869 48.61 88.9869H51.32C51.3533 88.9869 51.3833 88.9969 51.41 89.0169C51.43 89.0435 51.44 89.0735 51.44 89.1069V90.0769C51.44 90.1102 51.43 90.1369 51.41 90.1569C51.3833 90.1835 51.3533 90.1969 51.32 90.1969H46.82C46.7866 90.1969 46.76 90.1835 46.74 90.1569C46.7133 90.1369 46.7 90.1102 46.7 90.0769V89.1569C46.7 89.0969 46.72 89.0469 46.76 89.0069C47.0866 88.6869 47.42 88.3402 47.76 87.9669C48.1 87.5869 48.3133 87.3502 48.4 87.2569C48.5866 87.0369 48.7766 86.8269 48.97 86.6269C49.5766 85.9535 49.88 85.4535 49.88 85.1269C49.88 84.8935 49.7966 84.7002 49.63 84.5469C49.4633 84.4002 49.2466 84.3269 48.98 84.3269C48.7133 84.3269 48.4966 84.4002 48.33 84.5469C48.1633 84.7002 48.08 84.9002 48.08 85.1469V85.3969C48.08 85.4302 48.07 85.4602 48.05 85.4869C48.0233 85.5069 47.9933 85.5169 47.96 85.5169H46.78C46.7466 85.5169 46.72 85.5069 46.7 85.4869C46.6733 85.4602 46.66 85.4302 46.66 85.3969V84.9269C46.68 84.5669 46.7933 84.2469 47 83.9669C47.2066 83.6935 47.4833 83.4835 47.83 83.3369C48.17 83.1902 48.5533 83.1169 48.98 83.1169C49.4533 83.1169 49.8666 83.2035 50.22 83.3769C50.5666 83.5569 50.8366 83.7969 51.03 84.0969C51.2166 84.3969 51.31 84.7302 51.31 85.0969C51.31 85.3769 51.24 85.6635 51.1 85.9569C50.96 86.2502 50.75 86.5669 50.47 86.9069C50.2633 87.1669 50.04 87.4235 49.8 87.6769C49.56 87.9302 49.2033 88.2969 48.73 88.7769L48.58 88.9269ZM57.31 87.1469C57.3433 87.1469 57.3733 87.1569 57.4 87.1769C57.42 87.2035 57.43 87.2335 57.43 87.2669V88.2769C57.43 88.3102 57.42 88.3402 57.4 88.3669C57.3733 88.3869 57.3433 88.3969 57.31 88.3969H56.88C56.8466 88.3969 56.83 88.4135 56.83 88.4469V90.0769C56.83 90.1102 56.82 90.1369 56.8 90.1569C56.7733 90.1835 56.7433 90.1969 56.71 90.1969H55.54C55.5066 90.1969 55.48 90.1835 55.46 90.1569C55.4333 90.1369 55.42 90.1102 55.42 90.0769V88.4469C55.42 88.4135 55.4033 88.3969 55.37 88.3969H52.3C52.2666 88.3969 52.24 88.3869 52.22 88.3669C52.1933 88.3402 52.18 88.3102 52.18 88.2769V87.4769C52.18 87.4369 52.19 87.3869 52.21 87.3269L54.01 83.2869C54.0366 83.2269 54.0833 83.1969 54.15 83.1969H55.4C55.4466 83.1969 55.48 83.2102 55.5 83.2369C55.5133 83.2569 55.51 83.2902 55.49 83.3369L53.82 87.0869C53.8133 87.1002 53.8133 87.1135 53.82 87.1269C53.8266 87.1402 53.8366 87.1469 53.85 87.1469H55.37C55.4033 87.1469 55.42 87.1302 55.42 87.0969V85.8569C55.42 85.8235 55.4333 85.7969 55.46 85.7769C55.48 85.7502 55.5066 85.7369 55.54 85.7369H56.71C56.7433 85.7369 56.7733 85.7502 56.8 85.7769C56.82 85.7969 56.83 85.8235 56.83 85.8569V87.0969C56.83 87.1302 56.8466 87.1469 56.88 87.1469H57.31Z" fill="#252530"></path></svg>