<svg xmlns="http://www.w3.org/2000/svg" width="93" height="105" viewBox="0 0 93 105" fill="none"><path d="M47.0575 101.358L6.52429 81.136V13.6593C9.78791 13.2731 12.8753 11.97 15.4285 9.90089C17.9818 7.8318 19.8964 5.0815 20.9505 1.96875H71.4719C72.5369 5.11674 74.4808 7.89411 77.0738 9.97269C79.6667 12.0513 82.8005 13.3442 86.1048 13.6987V81.136L47.0575 101.358Z" fill="white"></path><path d="M6.88843 81.131L46.9788 101.353L85.6128 81.1113V13.6937C82.4009 13.2525 79.3535 12.0031 76.7563 10.0625L6.88843 81.131Z" fill="#F7F8F7"></path><path d="M87.5809 11.8087H87.453C84.0102 11.8025 80.6705 10.6326 77.9766 8.48884C75.2826 6.3451 73.3926 3.35351 72.6134 0L19.6811 0C18.9019 3.33877 17.0227 6.31854 14.3455 8.4603C11.6683 10.6021 8.34866 11.7814 4.92029 11.8087V82.8771L6.31765 83.5856L45.8176 103.7L46.9985 104.3L48.1695 103.68L86.2131 83.566L87.5809 82.8476V13.7768V11.8087ZM46.9788 101.358L6.8884 81.1353V13.6587C10.1288 13.262 13.1897 11.9524 15.7143 9.88256C18.2389 7.81271 20.1231 5.0679 21.1474 1.96811H71.1275C72.1639 5.10589 74.0803 7.87972 76.6484 9.95932C79.2165 12.0389 82.3281 13.3367 85.6128 13.698V81.1353L46.9788 101.358Z" fill="#E9E9EA"></path><mask id="mask0_520_74" style="mask-type:luminance" maskUnits="userSpaceOnUse" x="0" y="56" width="93" height="15"><path d="M89.3424 56.0781H3.15882L0 63.4585L3.15882 70.8389H89.3424L92.5012 63.4585L89.3424 56.0781Z" fill="white"></path></mask><g mask="url(#mask0_520_74)"><path d="M-4.92029 51.1641H97.4214V75.7654H-4.92029V51.1641Z" fill="#9132A2"></path></g><mask id="mask1_520_74" style="mask-type:luminance" maskUnits="userSpaceOnUse" x="36" y="0" width="21" height="21"><path d="M46.2506 20.6652L56.0911 15.1545V0H36.41V15.1545L46.2506 20.6652ZM48.2187 7.73467C48.2032 7.32725 48.3057 6.92402 48.5139 6.57349C48.7829 6.21109 49.1427 5.92598 49.557 5.74688L49.7932 5.64848C50.1966 5.45167 50.2951 5.28438 50.2951 5.08757C50.2951 4.89075 50.0786 4.6841 49.7341 4.6841C49.5267 4.66873 49.3197 4.7195 49.1429 4.82912C48.9661 4.93873 48.8286 5.10156 48.7501 5.29422L48.2187 4.77267C48.351 4.51552 48.5565 4.30325 48.8091 4.16255C49.0751 4.00905 49.3779 3.93081 49.6849 3.93622C50.0563 3.92405 50.4218 4.03094 50.728 4.24128C50.8676 4.33314 50.9815 4.45903 51.059 4.60709C51.1365 4.75516 51.175 4.92051 51.1709 5.08757C51.1709 5.65832 50.8363 6.00274 50.1868 6.31763L49.8227 6.48492C49.4488 6.67189 49.2618 6.82934 49.2027 7.11472H51.1709V7.87244H48.2187V7.73467ZM50.6788 8.8565L52.1549 11.3166L50.6788 13.7768L49.2027 11.3068H46.2506L47.7267 8.8565H50.6788ZM46.536 3.93622C46.9456 3.93556 47.3543 3.97511 47.7562 4.05431L46.536 6.4554C45.6189 6.43693 44.732 6.78295 44.0697 7.41755C43.4074 8.05216 43.0239 8.92354 43.0032 9.84055C43.0264 10.7558 43.4111 11.6247 44.0731 12.2572C44.7351 12.8897 45.6206 13.2344 46.536 13.2159C47.3783 13.2209 48.1961 12.932 48.8485 12.3991L50.1868 14.6034C49.1148 15.3474 47.8409 15.7457 46.536 15.7449C44.9332 15.7792 43.382 15.1773 42.222 14.0707C41.062 12.9642 40.3875 11.4432 40.3463 9.84055C40.3875 8.23793 41.062 6.71691 42.222 5.61036C43.382 4.50381 44.9332 3.90186 46.536 3.93622Z" fill="white"></path></mask><g mask="url(#mask1_520_74)"><path d="M31.4899 -4.92188H61.0115V25.5838H31.4899V-4.92188Z" fill="#9132A2"></path></g><path d="M18.7856 51.2741C18.7266 51.2741 18.6774 51.2544 18.638 51.2151C18.5987 51.1691 18.579 51.1166 18.579 51.0576V39.0915C18.579 39.0324 18.5987 38.98 18.638 38.934C18.6774 38.8947 18.7266 38.875 18.7856 38.875H20.862C20.921 38.875 20.9702 38.8947 21.0096 38.934C21.0555 38.98 21.0785 39.0324 21.0785 39.0915V49.0403C21.0785 49.0993 21.108 49.1289 21.167 49.1289H26.9533C27.0123 49.1289 27.0648 49.1485 27.1107 49.1879C27.1501 49.2338 27.1698 49.2863 27.1698 49.3453V51.0576C27.1698 51.1166 27.1501 51.1691 27.1107 51.2151C27.0648 51.2544 27.0123 51.2741 26.9533 51.2741H18.7856ZM36.6069 45.7831C36.679 46.2292 36.702 46.731 36.6758 47.2887C36.6692 47.433 36.5937 47.5052 36.4494 47.5052H30.9781C30.9059 47.5052 30.8829 47.5347 30.9092 47.5937C30.942 47.8299 31.0043 48.0661 31.0962 48.3022C31.4045 48.9583 32.031 49.2863 32.9757 49.2863C33.7301 49.2797 34.3271 48.9747 34.7667 48.3711C34.8126 48.299 34.8651 48.2629 34.9241 48.2629C34.9635 48.2629 35.0061 48.2858 35.0521 48.3318L36.3215 49.5914C36.3805 49.6504 36.4101 49.7029 36.4101 49.7488C36.4101 49.7751 36.3871 49.8243 36.3412 49.8964C35.9541 50.3753 35.4522 50.7493 34.8356 51.0182C34.2255 51.2807 33.553 51.4119 32.8183 51.4119C31.8014 51.4119 30.942 51.1822 30.24 50.723C29.5381 50.2638 29.0329 49.6209 28.7246 48.7943C28.4753 48.2038 28.3506 47.4297 28.3506 46.4719C28.3506 45.8224 28.4392 45.2517 28.6163 44.7597C28.8919 43.9199 29.3675 43.2508 30.0432 42.7522C30.7255 42.2602 31.5324 42.0141 32.464 42.0141C33.6449 42.0141 34.5928 42.3553 35.3079 43.0376C36.023 43.7198 36.456 44.635 36.6069 45.7831ZM32.4837 44.1692C31.7358 44.1692 31.2438 44.5169 31.0076 45.2123C30.9617 45.3698 30.9223 45.56 30.8895 45.7831C30.8895 45.8421 30.919 45.8716 30.9781 45.8716H34.0385C34.1106 45.8716 34.1336 45.8421 34.1074 45.7831C34.0483 45.4419 34.0188 45.2779 34.0188 45.291C33.9138 44.9368 33.7301 44.6612 33.4677 44.4644C33.1988 44.2676 32.8707 44.1692 32.4837 44.1692ZM41.7633 42.024C42.5309 42.024 43.2164 42.1585 43.82 42.4274C44.4235 42.6899 44.8926 43.054 45.2272 43.5197C45.5618 43.979 45.7291 44.4907 45.7291 45.0549V51.0576C45.7291 51.1166 45.7094 51.1691 45.67 51.2151C45.6307 51.2544 45.5815 51.2741 45.5224 51.2741H43.4461C43.387 51.2741 43.3378 51.2544 43.2984 51.2151C43.2525 51.1691 43.2296 51.1166 43.2296 51.0576V50.477C43.2296 50.4442 43.2197 50.4212 43.2 50.4081C43.1738 50.395 43.1508 50.4048 43.1312 50.4376C42.6326 51.0871 41.8355 51.4119 40.7399 51.4119C39.8149 51.4119 39.0703 51.1888 38.5061 50.7427C37.9353 50.2966 37.65 49.634 37.65 48.7549C37.65 47.8496 37.9714 47.1443 38.6143 46.6392C39.2507 46.1406 40.1593 45.8913 41.3402 45.8913H43.141C43.2 45.8913 43.2296 45.8618 43.2296 45.8027V45.4091C43.2296 45.0221 43.1115 44.717 42.8753 44.494C42.6391 44.2775 42.2849 44.1692 41.8125 44.1692C41.4517 44.1692 41.1499 44.2348 40.9072 44.366C40.6645 44.4972 40.507 44.6809 40.4348 44.9171C40.402 45.0483 40.3266 45.1073 40.2085 45.0942L38.0633 44.8089C37.9189 44.7826 37.8533 44.7301 37.8665 44.6514C37.9124 44.1528 38.1092 43.7034 38.4569 43.3032C38.8046 42.9031 39.2671 42.5914 39.8444 42.3684C40.4152 42.1388 41.0548 42.024 41.7633 42.024ZM41.4091 49.552C41.9142 49.552 42.3439 49.4175 42.6982 49.1485C43.0524 48.8796 43.2296 48.5319 43.2296 48.1054V47.4658C43.2296 47.4068 43.2 47.3772 43.141 47.3772H41.8716C41.3402 47.3772 40.9236 47.4789 40.6218 47.6823C40.32 47.8791 40.1692 48.1612 40.1692 48.5286C40.1692 48.85 40.2807 49.0993 40.5037 49.2765C40.7268 49.4602 41.0286 49.552 41.4091 49.552ZM53.139 39.0915C53.139 39.0324 53.1587 38.98 53.198 38.934C53.2374 38.8947 53.2866 38.875 53.3457 38.875H55.422C55.4811 38.875 55.5303 38.8947 55.5696 38.934C55.609 38.98 55.6287 39.0324 55.6287 39.0915V51.0576C55.6287 51.1166 55.609 51.1691 55.5696 51.2151C55.5303 51.2544 55.4811 51.2741 55.422 51.2741H53.3457C53.2866 51.2741 53.2374 51.2544 53.198 51.2151C53.1587 51.1691 53.139 51.1166 53.139 51.0576V50.477C53.139 50.4442 53.1259 50.4245 53.0996 50.418C53.0734 50.4114 53.0504 50.418 53.0308 50.4376C52.5322 51.0871 51.8532 51.4119 50.9938 51.4119C50.1672 51.4119 49.4554 51.1822 48.8584 50.723C48.2614 50.2638 47.8317 49.634 47.5692 48.8336C47.3724 48.217 47.274 47.5019 47.274 46.6884C47.274 45.8487 47.379 45.1172 47.5889 44.494C47.8645 43.733 48.2942 43.1327 48.878 42.6931C49.4619 42.247 50.1836 42.024 51.043 42.024C51.8958 42.024 52.5584 42.3192 53.0308 42.9096C53.0504 42.949 53.0734 42.9621 53.0996 42.949C53.1259 42.9359 53.139 42.9129 53.139 42.8801V39.0915ZM52.7651 48.5089C53.0012 48.0759 53.1193 47.4789 53.1193 46.7179C53.1193 45.9307 52.9881 45.3107 52.7257 44.8581C52.4567 44.3988 52.0631 44.1692 51.5448 44.1692C50.9872 44.1692 50.5673 44.3988 50.2852 44.8581C49.99 45.3238 49.8424 45.9504 49.8424 46.7376C49.8424 47.4461 49.9671 48.0366 50.2164 48.5089C50.5116 49.0206 50.9478 49.2765 51.5251 49.2765C52.0565 49.2765 52.4698 49.0206 52.7651 48.5089ZM65.5676 45.7831C65.6398 46.2292 65.6627 46.731 65.6365 47.2887C65.6299 47.433 65.5545 47.5052 65.4102 47.5052H59.9388C59.8667 47.5052 59.8437 47.5347 59.8699 47.5937C59.9027 47.8299 59.9651 48.0661 60.0569 48.3022C60.3652 48.9583 60.9918 49.2863 61.9365 49.2863C62.6909 49.2797 63.2879 48.9747 63.7274 48.3711C63.7734 48.299 63.8258 48.2629 63.8849 48.2629C63.9242 48.2629 63.9669 48.2858 64.0128 48.3318L65.2822 49.5914C65.3413 49.6504 65.3708 49.7029 65.3708 49.7488C65.3708 49.7751 65.3478 49.8243 65.3019 49.8964C64.9149 50.3753 64.413 50.7493 63.7963 51.0182C63.1862 51.2807 62.5138 51.4119 61.779 51.4119C60.7621 51.4119 59.9027 51.1822 59.2008 50.723C58.4988 50.2638 57.9937 49.6209 57.6853 48.7943C57.436 48.2038 57.3114 47.4297 57.3114 46.4719C57.3114 45.8224 57.4 45.2517 57.5771 44.7597C57.8526 43.9199 58.3282 43.2508 59.004 42.7522C59.6862 42.2602 60.4932 42.0141 61.4247 42.0141C62.6056 42.0141 63.5536 42.3553 64.2687 43.0376C64.9837 43.7198 65.4167 44.635 65.5676 45.7831ZM61.4444 44.1692C60.6965 44.1692 60.2045 44.5169 59.9683 45.2123C59.9224 45.3698 59.8831 45.56 59.8503 45.7831C59.8503 45.8421 59.8798 45.8716 59.9388 45.8716H62.9992C63.0714 45.8716 63.0944 45.8421 63.0681 45.7831C63.0091 45.4419 62.9796 45.2779 62.9796 45.291C62.8746 44.9368 62.6909 44.6612 62.4285 44.4644C62.1595 44.2676 61.8315 44.1692 61.4444 44.1692ZM71.718 42.0437C72.1444 42.0437 72.479 42.1257 72.7217 42.2897C72.8201 42.3422 72.8562 42.4307 72.8299 42.5554L72.456 44.5825C72.4494 44.7203 72.3674 44.7597 72.21 44.7006C72.0329 44.6416 71.8262 44.612 71.59 44.612C71.4982 44.612 71.3703 44.6252 71.2063 44.6514C70.7798 44.6842 70.419 44.8384 70.1238 45.1139C69.8286 45.396 69.681 45.7667 69.681 46.2259V51.0576C69.681 51.1166 69.6613 51.1691 69.6219 51.2151C69.576 51.2544 69.5235 51.2741 69.4645 51.2741H67.398C67.3389 51.2741 67.2864 51.2544 67.2405 51.2151C67.2011 51.1691 67.1815 51.1166 67.1815 51.0576V42.3782C67.1815 42.3192 67.2011 42.27 67.2405 42.2306C67.2864 42.1913 67.3389 42.1716 67.398 42.1716H69.4645C69.5235 42.1716 69.576 42.1913 69.6219 42.2306C69.6613 42.27 69.681 42.3192 69.681 42.3782V43.0572C69.681 43.09 69.6908 43.113 69.7105 43.1261C69.7367 43.1392 69.7564 43.1327 69.7695 43.1064C70.255 42.3979 70.9045 42.0437 71.718 42.0437Z" fill="#252530"></path><path d="M30.4959 67.2085C30.4303 67.2085 30.3877 67.1757 30.368 67.1101L30.0433 66.0571C30.0301 66.0309 30.0137 66.0178 29.9941 66.0178H27.3962C27.3765 66.0178 27.3601 66.0309 27.347 66.0571L27.0222 67.1101C27.0025 67.1757 26.9599 67.2085 26.8943 67.2085H25.9102C25.8709 67.2085 25.8413 67.1953 25.8217 67.1691C25.802 67.1494 25.7987 67.1166 25.8118 67.0707L27.9472 60.4185C27.9669 60.3529 28.0096 60.3201 28.0752 60.3201H29.3052C29.3708 60.3201 29.4135 60.3529 29.4332 60.4185L31.5784 67.0707C31.585 67.0838 31.5882 67.1002 31.5882 67.1199C31.5882 67.1789 31.5521 67.2085 31.48 67.2085H30.4959ZM27.652 65.0632C27.6455 65.1026 27.6586 65.1223 27.6914 65.1223H29.689C29.7284 65.1223 29.7415 65.1026 29.7284 65.0632L28.7148 61.7666C28.7082 61.7404 28.6984 61.7273 28.6853 61.7273C28.6721 61.7273 28.6623 61.7404 28.6557 61.7666L27.652 65.0632ZM37.8763 62.1012C38.3815 62.1012 38.7784 62.2521 39.0671 62.5539C39.3491 62.8622 39.4902 63.2886 39.4902 63.8332V67.0904C39.4902 67.1232 39.4804 67.1494 39.4607 67.1691C39.4344 67.1953 39.4049 67.2085 39.3721 67.2085H38.4766C38.4438 67.2085 38.4176 67.1953 38.3979 67.1691C38.3717 67.1494 38.3585 67.1232 38.3585 67.0904V64.0693C38.3585 63.7676 38.2798 63.5281 38.1224 63.351C37.9583 63.1738 37.7419 63.0853 37.4729 63.0853C37.2039 63.0853 36.9841 63.1738 36.8136 63.351C36.643 63.5281 36.5577 63.7643 36.5577 64.0595V67.0904C36.5577 67.1232 36.5479 67.1494 36.5282 67.1691C36.5019 67.1953 36.4724 67.2085 36.4396 67.2085H35.5441C35.5113 67.2085 35.4851 67.1953 35.4654 67.1691C35.4392 67.1494 35.426 67.1232 35.426 67.0904V64.0693C35.426 63.7676 35.344 63.5281 35.18 63.351C35.016 63.1738 34.7995 63.0853 34.5306 63.0853C34.2813 63.0853 34.0746 63.1574 33.9106 63.3018C33.7532 63.4461 33.6613 63.6429 33.6351 63.8922V67.0904C33.6351 67.1232 33.6252 67.1494 33.6055 67.1691C33.5793 67.1953 33.5498 67.2085 33.517 67.2085H32.6116C32.5788 67.2085 32.5526 67.1953 32.5329 67.1691C32.5067 67.1494 32.4936 67.1232 32.4936 67.0904V62.298C32.4936 62.2652 32.5067 62.2357 32.5329 62.2095C32.5526 62.1898 32.5788 62.1799 32.6116 62.1799H33.517C33.5498 62.1799 33.5793 62.1898 33.6055 62.2095C33.6252 62.2357 33.6351 62.2652 33.6351 62.298V62.6228C33.6351 62.6425 33.6416 62.6556 33.6547 62.6621C33.6679 62.6687 33.681 62.6621 33.6941 62.6425C33.8384 62.4588 34.0188 62.3243 34.2353 62.239C34.4453 62.1471 34.6814 62.1012 34.9439 62.1012C35.2653 62.1012 35.5474 62.1668 35.7901 62.298C36.0329 62.4292 36.2199 62.6195 36.3511 62.8688C36.3707 62.895 36.3937 62.895 36.4199 62.8688C36.5643 62.6064 36.7644 62.4128 37.0202 62.2882C37.2761 62.1635 37.5614 62.1012 37.8763 62.1012ZM44.8533 64.1284C44.8795 64.2924 44.8927 64.4761 44.8927 64.6794L44.8828 64.9845C44.8828 65.0632 44.8435 65.1026 44.7647 65.1026H41.6846C41.6518 65.1026 41.6354 65.119 41.6354 65.1518C41.6551 65.3683 41.6846 65.5159 41.724 65.5946C41.8814 66.067 42.2652 66.3064 42.8753 66.313C43.3214 66.313 43.6757 66.1293 43.9381 65.7619C43.9644 65.7225 43.9972 65.7029 44.0365 65.7029C44.0628 65.7029 44.0857 65.7127 44.1054 65.7324L44.7155 66.2343C44.7746 66.2802 44.7844 66.3327 44.745 66.3917C44.5417 66.6804 44.2727 66.9034 43.9381 67.0609C43.597 67.2183 43.2198 67.297 42.8065 67.297C42.2948 67.297 41.8618 67.1822 41.5075 66.9526C41.1467 66.723 40.8843 66.4015 40.7203 65.9882C40.5694 65.634 40.4939 65.142 40.4939 64.5122C40.4939 64.1317 40.5333 63.8233 40.612 63.5871C40.7432 63.1279 40.9925 62.7638 41.3599 62.4948C41.7207 62.2324 42.157 62.1012 42.6687 62.1012C43.9611 62.1012 44.6893 62.7769 44.8533 64.1284ZM42.6687 63.0853C42.426 63.0853 42.2259 63.1476 42.0684 63.2722C41.9044 63.3903 41.7896 63.5576 41.724 63.7741C41.6846 63.8856 41.6584 64.03 41.6453 64.2071C41.6322 64.2399 41.6453 64.2563 41.6846 64.2563H43.6823C43.7151 64.2563 43.7315 64.2399 43.7315 64.2071C43.7184 64.0431 43.6987 63.9184 43.6724 63.8332C43.6134 63.597 43.4986 63.4133 43.328 63.2821C43.1509 63.1509 42.9311 63.0853 42.6687 63.0853ZM48.2778 62.1209C48.4877 62.1209 48.6714 62.1635 48.8289 62.2488C48.8814 62.2751 48.901 62.3243 48.8879 62.3964L48.7206 63.2821C48.7141 63.3608 48.6681 63.3838 48.5829 63.351C48.4845 63.3182 48.3697 63.3018 48.2384 63.3018C48.1532 63.3018 48.0876 63.305 48.0416 63.3116C47.7661 63.3247 47.5365 63.4199 47.3528 63.597C47.1691 63.7807 47.0773 64.0168 47.0773 64.3055V67.0904C47.0773 67.1232 47.0674 67.1494 47.0477 67.1691C47.0215 67.1953 46.992 67.2085 46.9592 67.2085H46.0538C46.021 67.2085 45.9948 67.1953 45.9751 67.1691C45.9489 67.1494 45.9358 67.1232 45.9358 67.0904V62.298C45.9358 62.2652 45.9489 62.2357 45.9751 62.2095C45.9948 62.1898 46.021 62.1799 46.0538 62.1799H46.9592C46.992 62.1799 47.0215 62.1898 47.0477 62.2095C47.0674 62.2357 47.0773 62.2652 47.0773 62.298V62.7409C47.0773 62.7671 47.0838 62.7802 47.0969 62.7802C47.1035 62.7868 47.1133 62.7802 47.1265 62.7605C47.402 62.3341 47.7858 62.1209 48.2778 62.1209ZM50.2853 61.4911C50.0819 61.4911 49.9146 61.4255 49.7834 61.2943C49.6522 61.1631 49.5866 60.9958 49.5866 60.7924C49.5866 60.5891 49.6522 60.4218 49.7834 60.2906C49.9146 60.1594 50.0819 60.0938 50.2853 60.0938C50.4887 60.0938 50.6559 60.1594 50.7871 60.2906C50.9184 60.4218 50.984 60.5891 50.984 60.7924C50.984 60.9958 50.9184 61.1631 50.7871 61.2943C50.6559 61.4255 50.4887 61.4911 50.2853 61.4911ZM49.8129 67.2085C49.7801 67.2085 49.7539 67.1953 49.7342 67.1691C49.708 67.1494 49.6948 67.1232 49.6948 67.0904V62.2882C49.6948 62.2554 49.708 62.2291 49.7342 62.2095C49.7539 62.1832 49.7801 62.1701 49.8129 62.1701H50.7183C50.7511 62.1701 50.7806 62.1832 50.8068 62.2095C50.8265 62.2291 50.8364 62.2554 50.8364 62.2882V67.0904C50.8364 67.1232 50.8265 67.1494 50.8068 67.1691C50.7806 67.1953 50.7511 67.2085 50.7183 67.2085H49.8129ZM54.2412 67.2872C53.736 67.2872 53.2998 67.156 52.9324 66.8936C52.565 66.6377 52.3092 66.29 52.1648 65.8505C52.0599 65.5553 52.0074 65.1616 52.0074 64.6696C52.0074 64.1973 52.0599 63.8102 52.1648 63.5084C52.3026 63.0754 52.5584 62.7343 52.9324 62.485C53.2998 62.2291 53.736 62.1012 54.2412 62.1012C54.7529 62.1012 55.199 62.2291 55.5795 62.485C55.96 62.7409 56.2126 63.0623 56.3372 63.4494C56.37 63.5543 56.393 63.6593 56.4061 63.7643V63.784C56.4061 63.8496 56.37 63.8889 56.2979 63.902L55.4122 64.03H55.3925C55.3335 64.03 55.2941 63.9972 55.2744 63.9316C55.2744 63.8988 55.2712 63.8725 55.2646 63.8528C55.2515 63.8004 55.2384 63.7544 55.2252 63.7151C55.1662 63.5314 55.0481 63.3805 54.871 63.2624C54.6938 63.1443 54.4839 63.0853 54.2412 63.0853C53.9919 63.0853 53.782 63.1476 53.6114 63.2722C53.4343 63.4035 53.3162 63.5806 53.2571 63.8036C53.1915 64.0136 53.1587 64.3055 53.1587 64.6794C53.1587 65.0403 53.1882 65.3322 53.2473 65.5553C53.3129 65.7849 53.431 65.9653 53.6015 66.0965C53.7721 66.2343 53.9853 66.3031 54.2412 66.3031C54.4905 66.3031 54.707 66.2408 54.8907 66.1162C55.0678 65.985 55.1826 65.8111 55.2351 65.5946C55.2416 65.5815 55.2449 65.5651 55.2449 65.5454C55.2515 65.5389 55.2548 65.529 55.2548 65.5159C55.2744 65.4372 55.3204 65.4044 55.3925 65.4175L56.2782 65.5553C56.311 65.5618 56.3405 65.5749 56.3667 65.5946C56.3864 65.6209 56.393 65.6537 56.3864 65.693C56.3667 65.798 56.3503 65.8734 56.3372 65.9194C56.2126 66.3392 55.96 66.6738 55.5795 66.9231C55.199 67.1658 54.7529 67.2872 54.2412 67.2872ZM59.2894 62.1012C59.7027 62.1012 60.0668 62.1734 60.3817 62.3177C60.6966 62.462 60.9393 62.6589 61.1099 62.9081C61.2805 63.164 61.3657 63.4527 61.3657 63.7741V67.0904C61.3657 67.1232 61.3559 67.1494 61.3362 67.1691C61.31 67.1953 61.2805 67.2085 61.2477 67.2085H60.3423C60.3095 67.2085 60.2833 67.1953 60.2636 67.1691C60.2374 67.1494 60.2242 67.1232 60.2242 67.0904V66.7755C60.2242 66.7558 60.2177 66.7427 60.2046 66.7361C60.1914 66.7361 60.1783 66.7427 60.1652 66.7558C59.8437 67.1101 59.378 67.2872 58.7678 67.2872C58.2758 67.2872 57.8723 67.1625 57.5574 66.9133C57.236 66.664 57.0753 66.2933 57.0753 65.8013C57.0753 65.2896 57.2557 64.8894 57.6165 64.6007C57.9708 64.3186 58.4726 64.1776 59.1221 64.1776H60.175C60.2078 64.1776 60.2242 64.1612 60.2242 64.1284V63.8922C60.2242 63.6363 60.1488 63.4363 59.9979 63.2919C59.847 63.1542 59.6207 63.0853 59.3189 63.0853C59.0696 63.0853 58.8695 63.1312 58.7186 63.223C58.5612 63.3083 58.4628 63.4297 58.4234 63.5871C58.4037 63.6659 58.3578 63.6987 58.2857 63.6856L57.3311 63.5675C57.2983 63.5609 57.2721 63.5511 57.2524 63.5379C57.2261 63.5183 57.2163 63.4953 57.2229 63.4691C57.2754 63.0689 57.4918 62.7409 57.8723 62.485C58.2463 62.2291 58.7186 62.1012 59.2894 62.1012ZM59.0532 66.3819C59.3747 66.3819 59.6502 66.2966 59.8798 66.126C60.1094 65.9554 60.2242 65.7389 60.2242 65.4765V65.014C60.2242 64.9812 60.2078 64.9648 60.175 64.9648H59.3484C59.0007 64.9648 58.7285 65.0304 58.5317 65.1616C58.3283 65.2928 58.2266 65.4798 58.2266 65.7225C58.2266 65.9325 58.3053 66.0932 58.4628 66.2047C58.6137 66.3228 58.8105 66.3819 59.0532 66.3819ZM64.377 67.2675C63.9636 67.2675 63.6028 67.2052 63.2945 67.0805C62.9796 66.9625 62.7369 66.7952 62.5663 66.5787C62.3957 66.3687 62.3104 66.1326 62.3104 65.8702V65.7816C62.3104 65.7488 62.3236 65.7193 62.3498 65.693C62.3695 65.6733 62.3957 65.6635 62.4285 65.6635H63.2945C63.3273 65.6635 63.3568 65.6733 63.3831 65.693C63.4027 65.7193 63.4126 65.7488 63.4126 65.7816V65.8013C63.4126 65.9653 63.5044 66.1096 63.6881 66.2343C63.8652 66.3523 64.0916 66.4114 64.3671 66.4114C64.6295 66.4114 64.8427 66.3589 65.0067 66.2539C65.1708 66.1424 65.2528 66.0046 65.2528 65.8406C65.2528 65.6897 65.1872 65.5749 65.0559 65.4962C64.9182 65.424 64.6984 65.3453 64.3966 65.26L64.0227 65.142C63.6881 65.0435 63.406 64.9386 63.1764 64.8271C62.9468 64.7155 62.7533 64.5614 62.5958 64.3645C62.4384 64.1743 62.3596 63.9283 62.3596 63.6265C62.3596 63.1673 62.54 62.8032 62.9009 62.5342C63.2617 62.2587 63.7373 62.1209 64.3277 62.1209C64.7279 62.1209 65.0789 62.1832 65.3807 62.3079C65.6825 62.4391 65.9154 62.6162 66.0794 62.8393C66.2434 63.0689 66.3254 63.328 66.3254 63.6167C66.3254 63.6495 66.3155 63.679 66.2959 63.7052C66.2696 63.7249 66.2401 63.7348 66.2073 63.7348H65.3708C65.338 63.7348 65.3118 63.7249 65.2921 63.7052C65.2659 63.679 65.2528 63.6495 65.2528 63.6167C65.2528 63.4461 65.1708 63.3051 65.0067 63.1935C64.8362 63.0754 64.6066 63.0164 64.3179 63.0164C64.0621 63.0164 63.8554 63.0623 63.698 63.1542C63.5339 63.2526 63.4519 63.3871 63.4519 63.5576C63.4519 63.7151 63.5307 63.8332 63.6881 63.9119C63.839 63.9972 64.0949 64.089 64.4557 64.1874L64.6722 64.2465C65.0199 64.3514 65.3118 64.4564 65.548 64.5614C65.7841 64.6729 65.9842 64.8238 66.1482 65.014C66.3123 65.2108 66.3943 65.4634 66.3943 65.7717C66.3943 66.2375 66.2106 66.6016 65.8432 66.864C65.4758 67.133 64.9871 67.2675 64.377 67.2675Z" fill="white"></path><path d="M30.6631 81.0915C30.5909 81.0915 30.545 81.0587 30.5253 80.9931L28.7835 74.3311L28.7737 74.2917C28.7737 74.2326 28.8098 74.2031 28.8819 74.2031H30.1022C30.1678 74.2031 30.2104 74.2359 30.2301 74.3015L31.1649 78.3066C31.1715 78.3329 31.1813 78.346 31.1945 78.346C31.2076 78.346 31.2174 78.3329 31.224 78.3066L32.1293 74.3114C32.149 74.2392 32.1916 74.2031 32.2572 74.2031H33.4479C33.5201 74.2031 33.566 74.2359 33.5857 74.3015L34.5698 78.3066C34.5763 78.3263 34.5862 78.3394 34.5993 78.346C34.6124 78.346 34.6222 78.3329 34.6288 78.3066L35.5341 74.3114C35.5538 74.2392 35.5965 74.2031 35.6621 74.2031H36.8233C36.9151 74.2031 36.9512 74.2458 36.9315 74.3311L35.3176 80.9931C35.298 81.0587 35.252 81.0915 35.1799 81.0915H34.0089C33.9433 81.0915 33.9006 81.0587 33.8809 80.9931L32.8772 76.7321C32.8706 76.7059 32.8608 76.6928 32.8477 76.6928C32.8345 76.6928 32.8247 76.7059 32.8181 76.7321L31.8833 80.9833C31.8702 81.0554 31.8275 81.0915 31.7554 81.0915H30.6631ZM37.886 81.0915C37.8532 81.0915 37.8237 81.0784 37.7975 81.0521C37.7778 81.0325 37.7679 81.0062 37.7679 80.9734V74.3212C37.7679 74.2884 37.7778 74.2622 37.7975 74.2425C37.8237 74.2162 37.8532 74.2031 37.886 74.2031H39.0374C39.0702 74.2031 39.0964 74.2162 39.1161 74.2425C39.1423 74.2622 39.1555 74.2884 39.1555 74.3212V80.9734C39.1555 81.0062 39.1423 81.0325 39.1161 81.0521C39.0964 81.0784 39.0702 81.0915 39.0374 81.0915H37.886ZM44.3119 74.3212C44.3119 74.2884 44.3218 74.2622 44.3414 74.2425C44.3677 74.2162 44.3972 74.2031 44.43 74.2031H45.5813C45.6141 74.2031 45.6404 74.2162 45.6601 74.2425C45.6863 74.2622 45.6994 74.2884 45.6994 74.3212V80.9734C45.6994 81.0062 45.6863 81.0325 45.6601 81.0521C45.6404 81.0784 45.6141 81.0915 45.5813 81.0915H44.4694C44.4038 81.0915 44.3578 81.0653 44.3316 81.0128L41.7829 76.801C41.7698 76.7813 41.7566 76.7748 41.7435 76.7813C41.7304 76.7813 41.7238 76.7945 41.7238 76.8207L41.7435 80.9734C41.7435 81.0062 41.7304 81.0325 41.7042 81.0521C41.6845 81.0784 41.6582 81.0915 41.6254 81.0915H40.4741C40.4413 81.0915 40.4118 81.0784 40.3855 81.0521C40.3659 81.0325 40.356 81.0062 40.356 80.9734V74.3212C40.356 74.2884 40.3659 74.2622 40.3855 74.2425C40.4118 74.2162 40.4413 74.2031 40.4741 74.2031H41.5861C41.6517 74.2031 41.6976 74.2294 41.7238 74.2818L44.2627 78.4739C44.2758 78.4936 44.289 78.5002 44.3021 78.4936C44.3152 78.4936 44.3218 78.4805 44.3218 78.4542L44.3119 74.3212ZM51.653 74.2031C51.6858 74.2031 51.712 74.2162 51.7317 74.2425C51.7579 74.2622 51.7711 74.2884 51.7711 74.3212V75.2856C51.7711 75.3184 51.7579 75.3446 51.7317 75.3643C51.712 75.3906 51.6858 75.4037 51.653 75.4037H49.8915C49.8587 75.4037 49.8423 75.4201 49.8423 75.4529V80.9734C49.8423 81.0062 49.8292 81.0325 49.8029 81.0521C49.7833 81.0784 49.757 81.0915 49.7242 81.0915H48.5729C48.5401 81.0915 48.5105 81.0784 48.4843 81.0521C48.4646 81.0325 48.4548 81.0062 48.4548 80.9734V75.4529C48.4548 75.4201 48.4384 75.4037 48.4056 75.4037H46.6933C46.6605 75.4037 46.631 75.3906 46.6048 75.3643C46.5851 75.3446 46.5752 75.3184 46.5752 75.2856V74.3212C46.5752 74.2884 46.5851 74.2622 46.6048 74.2425C46.631 74.2162 46.6605 74.2031 46.6933 74.2031H51.653ZM57.4392 75.2757C57.4392 75.3085 57.4294 75.3348 57.4097 75.3545C57.3834 75.3807 57.3539 75.3938 57.3211 75.3938H54.0934C54.0606 75.3938 54.0442 75.4102 54.0442 75.443V76.9683C54.0442 77.0011 54.0606 77.0175 54.0934 77.0175H56.2091C56.2419 77.0175 56.2682 77.0274 56.2879 77.047C56.3141 77.0733 56.3272 77.1028 56.3272 77.1356V78.0901C56.3272 78.1229 56.3141 78.1525 56.2879 78.1787C56.2682 78.1984 56.2419 78.2082 56.2091 78.2082H54.0934C54.0606 78.2082 54.0442 78.2246 54.0442 78.2574V79.8516C54.0442 79.8844 54.0606 79.9008 54.0934 79.9008H57.3211C57.3539 79.9008 57.3834 79.9106 57.4097 79.9303C57.4294 79.9566 57.4392 79.9861 57.4392 80.0189V80.9734C57.4392 81.0062 57.4294 81.0325 57.4097 81.0521C57.3834 81.0784 57.3539 81.0915 57.3211 81.0915H52.7748C52.742 81.0915 52.7125 81.0784 52.6862 81.0521C52.6665 81.0325 52.6567 81.0062 52.6567 80.9734V74.3212C52.6567 74.2884 52.6665 74.2622 52.6862 74.2425C52.7125 74.2162 52.742 74.2031 52.7748 74.2031H57.3211C57.3539 74.2031 57.3834 74.2162 57.4097 74.2425C57.4294 74.2622 57.4392 74.2884 57.4392 74.3212V75.2757ZM62.1823 81.0915C62.1167 81.0915 62.0708 81.062 62.0446 81.0029L60.8145 78.2771C60.8014 78.2509 60.7817 78.2378 60.7555 78.2378H59.8403C59.8075 78.2378 59.7911 78.2542 59.7911 78.287V80.9734C59.7911 81.0062 59.778 81.0325 59.7517 81.0521C59.7321 81.0784 59.7058 81.0915 59.673 81.0915H58.5217C58.4889 81.0915 58.4593 81.0784 58.4331 81.0521C58.4134 81.0325 58.4036 81.0062 58.4036 80.9734V74.3212C58.4036 74.2884 58.4134 74.2622 58.4331 74.2425C58.4593 74.2162 58.4889 74.2031 58.5217 74.2031H61.3361C61.7559 74.2031 62.1233 74.2884 62.4382 74.459C62.7597 74.6295 63.0057 74.8723 63.1762 75.1872C63.3534 75.5021 63.4419 75.8662 63.4419 76.2795C63.4419 76.7256 63.3304 77.1061 63.1074 77.421C62.8843 77.7424 62.5727 77.9688 62.1725 78.1C62.1397 78.1131 62.1299 78.1361 62.143 78.1689L63.4813 80.9537C63.4944 80.98 63.501 80.9997 63.501 81.0128C63.501 81.0653 63.4649 81.0915 63.3927 81.0915H62.1823ZM59.8403 75.3938C59.8075 75.3938 59.7911 75.4102 59.7911 75.443V77.1258C59.7911 77.1586 59.8075 77.175 59.8403 77.175H61.1294C61.4049 77.175 61.628 77.093 61.7986 76.929C61.9757 76.7649 62.0643 76.5517 62.0643 76.2893C62.0643 76.0269 61.9757 75.8104 61.7986 75.6398C61.628 75.4758 61.4049 75.3938 61.1294 75.3938H59.8403Z" fill="#252530"></path><path d="M37.0792 89.0845C37.0661 89.0977 37.0628 89.1108 37.0694 89.1239C37.0759 89.137 37.089 89.1436 37.1087 89.1436H39.7755C39.8083 89.1436 39.8378 89.1534 39.8641 89.1731C39.8838 89.1994 39.8936 89.2289 39.8936 89.2617V90.2162C39.8936 90.249 39.8838 90.2753 39.8641 90.2949C39.8378 90.3212 39.8083 90.3343 39.7755 90.3343H35.3473C35.3145 90.3343 35.2849 90.3212 35.2587 90.2949C35.239 90.2753 35.2292 90.249 35.2292 90.2162V89.3109C35.2292 89.2518 35.2489 89.2026 35.2882 89.1633C35.6097 88.8484 35.9377 88.5072 36.2723 88.1399C36.6069 87.7659 36.8168 87.533 36.9021 87.4412C37.0858 87.2247 37.2727 87.018 37.463 86.8212C38.06 86.1586 38.3585 85.6666 38.3585 85.3451C38.3585 85.1155 38.2765 84.9253 38.1125 84.7744C37.9485 84.6301 37.7352 84.5579 37.4728 84.5579C37.2104 84.5579 36.9972 84.6301 36.8332 84.7744C36.6692 84.9253 36.5872 85.1221 36.5872 85.3648V85.6108C36.5872 85.6436 36.5741 85.6732 36.5478 85.6994C36.5281 85.7191 36.5019 85.7289 36.4691 85.7289H35.3079C35.2751 85.7289 35.2489 85.7191 35.2292 85.6994C35.2029 85.6732 35.1898 85.6436 35.1898 85.6108V85.1483C35.2095 84.7941 35.321 84.4792 35.5244 84.2036C35.7278 83.9347 35.9967 83.728 36.3313 83.5837C36.6725 83.4394 37.053 83.3672 37.4728 83.3672C37.9386 83.3672 38.3454 83.4525 38.6931 83.623C39.0342 83.8002 39.2999 84.0363 39.4901 84.3316C39.6738 84.6268 39.7657 84.9548 39.7657 85.3156C39.7657 85.5912 39.6968 85.8732 39.559 86.1619C39.4213 86.4506 39.2146 86.7622 38.9391 87.0968C38.7357 87.3526 38.5159 87.6052 38.2798 87.8545C38.0436 88.1038 37.6926 88.4646 37.2268 88.9369L37.0792 89.0845ZM43.0918 90.4425C42.3701 90.4425 41.7994 90.2392 41.3795 89.8324C40.9597 89.4322 40.7497 88.8845 40.7497 88.1891V85.5912C40.7497 84.9089 40.9597 84.3676 41.3795 83.9675C41.7994 83.5673 42.3701 83.3672 43.0918 83.3672C43.8134 83.3672 44.3875 83.5673 44.8139 83.9675C45.2337 84.3676 45.4437 84.9089 45.4437 85.5912V88.1891C45.4437 88.8845 45.2337 89.4322 44.8139 89.8324C44.3875 90.2392 43.8134 90.4425 43.0918 90.4425ZM43.0918 89.2518C43.387 89.2518 43.6232 89.16 43.8003 88.9763C43.9709 88.7992 44.0562 88.5597 44.0562 88.2579V85.5518C44.0562 85.25 43.9709 85.0106 43.8003 84.8334C43.6232 84.6497 43.387 84.5579 43.0918 84.5579C42.8031 84.5579 42.5735 84.6497 42.4029 84.8334C42.2258 85.0106 42.1372 85.25 42.1372 85.5518V88.2579C42.1372 88.5597 42.2258 88.7992 42.4029 88.9763C42.5735 89.16 42.8031 89.2518 43.0918 89.2518ZM48.199 89.0845C48.1859 89.0977 48.1826 89.1108 48.1892 89.1239C48.1957 89.137 48.2089 89.1436 48.2285 89.1436H50.8953C50.9281 89.1436 50.9577 89.1534 50.9839 89.1731C51.0036 89.1994 51.0134 89.2289 51.0134 89.2617V90.2162C51.0134 90.249 51.0036 90.2753 50.9839 90.2949C50.9577 90.3212 50.9281 90.3343 50.8953 90.3343H46.4671C46.4343 90.3343 46.408 90.3212 46.3884 90.2949C46.3621 90.2753 46.349 90.249 46.349 90.2162V89.3109C46.349 89.2518 46.3687 89.2026 46.408 89.1633C46.7295 88.8484 47.0575 88.5072 47.3921 88.1399C47.7267 87.7659 47.9366 87.533 48.0219 87.4412C48.2056 87.2247 48.3926 87.018 48.5828 86.8212C49.1798 86.1586 49.4783 85.6666 49.4783 85.3451C49.4783 85.1155 49.3963 84.9253 49.2323 84.7744C49.0683 84.6301 48.8551 84.5579 48.5926 84.5579C48.3302 84.5579 48.117 84.6301 47.953 84.7744C47.789 84.9253 47.707 85.1221 47.707 85.3648V85.6108C47.707 85.6436 47.6972 85.6732 47.6775 85.6994C47.6512 85.7191 47.6217 85.7289 47.5889 85.7289H46.4277C46.3949 85.7289 46.3687 85.7191 46.349 85.6994C46.3228 85.6732 46.3096 85.6436 46.3096 85.6108V85.1483C46.3293 84.7941 46.4408 84.4792 46.6442 84.2036C46.8476 83.9347 47.1198 83.728 47.461 83.5837C47.7956 83.4394 48.1728 83.3672 48.5926 83.3672C49.0584 83.3672 49.4652 83.4525 49.8129 83.623C50.154 83.8002 50.4197 84.0363 50.61 84.3316C50.7937 84.6268 50.8855 84.9548 50.8855 85.3156C50.8855 85.5912 50.8166 85.8732 50.6788 86.1619C50.5411 86.4506 50.3344 86.7622 50.0589 87.0968C49.8555 87.3526 49.6357 87.6052 49.3996 87.8545C49.1634 88.1038 48.8124 88.4646 48.3466 88.9369L48.199 89.0845ZM56.7898 87.3329C56.8226 87.3329 56.8522 87.3428 56.8784 87.3625C56.8981 87.3887 56.9079 87.4182 56.9079 87.451V88.4449C56.9079 88.4777 56.8981 88.5072 56.8784 88.5335C56.8522 88.5532 56.8226 88.563 56.7898 88.563H56.3667C56.3339 88.563 56.3175 88.5794 56.3175 88.6122V90.2162C56.3175 90.249 56.3076 90.2753 56.288 90.2949C56.2617 90.3212 56.2322 90.3343 56.1994 90.3343H55.0481C55.0152 90.3343 54.989 90.3212 54.9693 90.2949C54.9431 90.2753 54.93 90.249 54.93 90.2162V88.6122C54.93 88.5794 54.9136 88.563 54.8808 88.563H51.8597C51.8269 88.563 51.8007 88.5532 51.781 88.5335C51.7547 88.5072 51.7416 88.4777 51.7416 88.4449V87.6577C51.7416 87.6183 51.7515 87.5691 51.7711 87.5101L53.5424 83.5345C53.5687 83.4754 53.6146 83.4459 53.6802 83.4459H54.9103C54.9562 83.4459 54.989 83.459 55.0087 83.4853C55.0218 83.505 55.0185 83.5378 54.9988 83.5837L53.3555 87.2739C53.3489 87.287 53.3489 87.3001 53.3555 87.3132C53.362 87.3264 53.3719 87.3329 53.385 87.3329H54.8808C54.9136 87.3329 54.93 87.3165 54.93 87.2837V86.0635C54.93 86.0307 54.9431 86.0045 54.9693 85.9848C54.989 85.9585 55.0152 85.9454 55.0481 85.9454H56.1994C56.2322 85.9454 56.2617 85.9585 56.288 85.9848C56.3076 86.0045 56.3175 86.0307 56.3175 86.0635V87.2837C56.3175 87.3165 56.3339 87.3329 56.3667 87.3329H56.7898Z" fill="#252530"></path></svg>