<svg xmlns="http://www.w3.org/2000/svg" width="93" height="105" viewBox="0 0 93 105" fill="none"><path d="M7.69995 81.1937L47.2 101.294L85.2 81.1937V2.59375H7.69995V81.1937Z" fill="white"></path><path d="M86 2.89844L6.90002 82.5984L47.9 102.898L86 83.3984V2.89844Z" fill="#F2F3F2"></path><path d="M5.09998 28.8V82.9L6.49998 83.6L46 103.7L47.2 104.3L48.4 103.7L86.5 83.6L87.9 82.9V0H5.09998V28.8ZM7.69998 81.4V2.6H85.3V81.4L47.2 101.5L7.69998 81.4Z" fill="#DCDEDC"></path><path d="M46.5 3.9C46.9 3.9 47.3 3.9 47.7 4L46.5 6.3C44.7 6.2 43.1 7.6 43 9.4C42.9 11.2 44.3 12.8 46.1 12.9H46.5C47.3 12.9 48.1 12.6 48.7 12.1L50 14.3C49 15 47.8 15.4 46.5 15.4C43.3 15.5 40.6 13.1 40.5 9.9C40.4 6.7 42.8 4 46 3.9H46.5ZM50.6 8.8L52.1 11.3L50.6 13.7L49.2 11.3H46.3L47.8 8.8H50.6ZM48.2 7.9C48.2 7.5 48.3 7.1 48.5 6.8C48.7 6.5 49.1 6.2 49.4 6L49.6 5.9C50 5.7 50.1 5.6 50.1 5.4C50.1 5.2 49.8 5 49.6 5C49.2 5 48.9 5.2 48.7 5.6L48.2 5.1C48.3 4.9 48.5 4.7 48.7 4.5C49 4.3 49.3 4.3 49.6 4.3C49.9 4.3 50.3 4.4 50.5 4.6C50.7 4.8 50.9 5.1 50.9 5.4C50.9 5.9 50.6 6.3 50 6.5L49.7 6.7C49.4 6.9 49.2 7 49.1 7.3H50.9V8L48.2 7.9ZM46.5 20.4L56 15V0H36.9V14.9L46.5 20.4ZM89.8 55.8H3.2L0 62.8L3.2 69.8H89.8L92.9 62.8L89.8 55.8Z" fill="#FF492C"></path><path d="M18.69 51.2953C18.63 51.2953 18.58 51.2753 18.54 51.2353C18.5 51.1886 18.48 51.1353 18.48 51.0753V38.9153C18.48 38.8553 18.5 38.802 18.54 38.7553C18.58 38.7153 18.63 38.6953 18.69 38.6953H20.8C20.86 38.6953 20.91 38.7153 20.95 38.7553C20.9966 38.802 21.02 38.8553 21.02 38.9153V49.0253C21.02 49.0853 21.05 49.1153 21.11 49.1153H26.99C27.05 49.1153 27.1033 49.1353 27.15 49.1753C27.19 49.222 27.21 49.2753 27.21 49.3353V51.0753C27.21 51.1353 27.19 51.1886 27.15 51.2353C27.1033 51.2753 27.05 51.2953 26.99 51.2953H18.69ZM36.8 45.7153C36.8733 46.1686 36.8966 46.6786 36.87 47.2453C36.8633 47.392 36.7866 47.4653 36.64 47.4653H31.08C31.0066 47.4653 30.9833 47.4953 31.01 47.5553C31.0433 47.7953 31.1066 48.0353 31.2 48.2753C31.5133 48.942 32.15 49.2753 33.11 49.2753C33.8766 49.2686 34.4833 48.9586 34.93 48.3453C34.9766 48.272 35.03 48.2353 35.09 48.2353C35.13 48.2353 35.1733 48.2586 35.22 48.3053L36.51 49.5853C36.57 49.6453 36.6 49.6986 36.6 49.7453C36.6 49.772 36.5766 49.822 36.53 49.8953C36.1366 50.382 35.6266 50.762 35 51.0353C34.38 51.302 33.6966 51.4353 32.95 51.4353C31.9166 51.4353 31.0433 51.202 30.33 50.7353C29.6166 50.2686 29.1033 49.6153 28.79 48.7753C28.5366 48.1753 28.41 47.3886 28.41 46.4153C28.41 45.7553 28.5 45.1753 28.68 44.6753C28.96 43.822 29.4433 43.142 30.13 42.6353C30.8233 42.1353 31.6433 41.8853 32.59 41.8853C33.79 41.8853 34.7533 42.232 35.48 42.9253C36.2066 43.6186 36.6466 44.5486 36.8 45.7153ZM32.61 44.0753C31.85 44.0753 31.35 44.4286 31.11 45.1353C31.0633 45.2953 31.0233 45.4886 30.99 45.7153C30.99 45.7753 31.02 45.8053 31.08 45.8053H34.19C34.2633 45.8053 34.2866 45.7753 34.26 45.7153C34.2 45.3686 34.17 45.202 34.17 45.2153C34.0633 44.8553 33.8766 44.5753 33.61 44.3753C33.3366 44.1753 33.0033 44.0753 32.61 44.0753ZM42.04 41.8953C42.82 41.8953 43.5166 42.032 44.13 42.3053C44.7433 42.572 45.22 42.942 45.56 43.4153C45.9 43.882 46.07 44.402 46.07 44.9753V51.0753C46.07 51.1353 46.05 51.1886 46.01 51.2353C45.97 51.2753 45.92 51.2953 45.86 51.2953H43.75C43.69 51.2953 43.64 51.2753 43.6 51.2353C43.5533 51.1886 43.53 51.1353 43.53 51.0753V50.4853C43.53 50.452 43.52 50.4286 43.5 50.4153C43.4733 50.402 43.45 50.412 43.43 50.4453C42.9233 51.1053 42.1133 51.4353 41 51.4353C40.06 51.4353 39.3033 51.2086 38.73 50.7553C38.15 50.302 37.86 49.6286 37.86 48.7353C37.86 47.8153 38.1866 47.0986 38.84 46.5853C39.4866 46.0786 40.41 45.8253 41.61 45.8253H43.44C43.5 45.8253 43.53 45.7953 43.53 45.7353V45.3353C43.53 44.942 43.41 44.632 43.17 44.4053C42.93 44.1853 42.57 44.0753 42.09 44.0753C41.7233 44.0753 41.4166 44.142 41.17 44.2753C40.9233 44.4086 40.7633 44.5953 40.69 44.8353C40.6566 44.9686 40.58 45.0286 40.46 45.0153L38.28 44.7253C38.1333 44.6986 38.0666 44.6453 38.08 44.5653C38.1266 44.0586 38.3266 43.602 38.68 43.1953C39.0333 42.7886 39.5033 42.472 40.09 42.2453C40.67 42.012 41.32 41.8953 42.04 41.8953ZM41.68 49.5453C42.1933 49.5453 42.63 49.4086 42.99 49.1353C43.35 48.862 43.53 48.5086 43.53 48.0753V47.4253C43.53 47.3653 43.5 47.3353 43.44 47.3353H42.15C41.61 47.3353 41.1866 47.4386 40.88 47.6453C40.5733 47.8453 40.42 48.132 40.42 48.5053C40.42 48.832 40.5333 49.0853 40.76 49.2653C40.9866 49.452 41.2933 49.5453 41.68 49.5453ZM53.6 38.9153C53.6 38.8553 53.62 38.802 53.66 38.7553C53.7 38.7153 53.75 38.6953 53.81 38.6953H55.92C55.98 38.6953 56.03 38.7153 56.07 38.7553C56.11 38.802 56.13 38.8553 56.13 38.9153V51.0753C56.13 51.1353 56.11 51.1886 56.07 51.2353C56.03 51.2753 55.98 51.2953 55.92 51.2953H53.81C53.75 51.2953 53.7 51.2753 53.66 51.2353C53.62 51.1886 53.6 51.1353 53.6 51.0753V50.4853C53.6 50.452 53.5866 50.432 53.56 50.4253C53.5333 50.4186 53.51 50.4253 53.49 50.4453C52.9833 51.1053 52.2933 51.4353 51.42 51.4353C50.58 51.4353 49.8566 51.202 49.25 50.7353C48.6433 50.2686 48.2066 49.6286 47.94 48.8153C47.74 48.1886 47.64 47.462 47.64 46.6353C47.64 45.782 47.7466 45.0386 47.96 44.4053C48.24 43.632 48.6766 43.022 49.27 42.5753C49.8633 42.122 50.5966 41.8953 51.47 41.8953C52.3366 41.8953 53.01 42.1953 53.49 42.7953C53.51 42.8353 53.5333 42.8486 53.56 42.8353C53.5866 42.822 53.6 42.7986 53.6 42.7653V38.9153ZM53.22 48.4853C53.46 48.0453 53.58 47.4386 53.58 46.6653C53.58 45.8653 53.4467 45.2353 53.18 44.7753C52.9067 44.3086 52.5066 44.0753 51.98 44.0753C51.4133 44.0753 50.9866 44.3086 50.7 44.7753C50.4 45.2486 50.25 45.8853 50.25 46.6853C50.25 47.4053 50.3766 48.0053 50.63 48.4853C50.93 49.0053 51.3733 49.2653 51.96 49.2653C52.5 49.2653 52.92 49.0053 53.22 48.4853ZM66.23 45.7153C66.3033 46.1686 66.3266 46.6786 66.3 47.2453C66.2933 47.392 66.2167 47.4653 66.07 47.4653H60.51C60.4366 47.4653 60.4133 47.4953 60.44 47.5553C60.4733 47.7953 60.5366 48.0353 60.63 48.2753C60.9433 48.942 61.58 49.2753 62.54 49.2753C63.3066 49.2686 63.9133 48.9586 64.36 48.3453C64.4067 48.272 64.46 48.2353 64.52 48.2353C64.56 48.2353 64.6033 48.2586 64.65 48.3053L65.94 49.5853C66 49.6453 66.03 49.6986 66.03 49.7453C66.03 49.772 66.0067 49.822 65.96 49.8953C65.5667 50.382 65.0567 50.762 64.43 51.0353C63.81 51.302 63.1266 51.4353 62.38 51.4353C61.3466 51.4353 60.4733 51.202 59.76 50.7353C59.0466 50.2686 58.5333 49.6153 58.22 48.7753C57.9666 48.1753 57.84 47.3886 57.84 46.4153C57.84 45.7553 57.93 45.1753 58.11 44.6753C58.39 43.822 58.8733 43.142 59.56 42.6353C60.2533 42.1353 61.0733 41.8853 62.02 41.8853C63.22 41.8853 64.1833 42.232 64.91 42.9253C65.6366 43.6186 66.0766 44.5486 66.23 45.7153ZM62.04 44.0753C61.28 44.0753 60.78 44.4286 60.54 45.1353C60.4933 45.2953 60.4533 45.4886 60.42 45.7153C60.42 45.7753 60.45 45.8053 60.51 45.8053H63.62C63.6933 45.8053 63.7166 45.7753 63.69 45.7153C63.63 45.3686 63.6 45.202 63.6 45.2153C63.4933 44.8553 63.3066 44.5753 63.04 44.3753C62.7666 44.1753 62.4333 44.0753 62.04 44.0753ZM72.48 41.9153C72.9133 41.9153 73.2533 41.9986 73.5 42.1653C73.6 42.2186 73.6367 42.3086 73.61 42.4353L73.23 44.4953C73.2233 44.6353 73.14 44.6753 72.98 44.6153C72.8 44.5553 72.59 44.5253 72.35 44.5253C72.2566 44.5253 72.1267 44.5386 71.96 44.5653C71.5267 44.5986 71.16 44.7553 70.86 45.0353C70.56 45.322 70.41 45.6986 70.41 46.1653V51.0753C70.41 51.1353 70.39 51.1886 70.35 51.2353C70.3033 51.2753 70.25 51.2953 70.19 51.2953H68.09C68.03 51.2953 67.9767 51.2753 67.93 51.2353C67.89 51.1886 67.87 51.1353 67.87 51.0753V42.2553C67.87 42.1953 67.89 42.1453 67.93 42.1053C67.9767 42.0653 68.03 42.0453 68.09 42.0453H70.19C70.25 42.0453 70.3033 42.0653 70.35 42.1053C70.39 42.1453 70.41 42.1953 70.41 42.2553V42.9453C70.41 42.9786 70.42 43.002 70.44 43.0153C70.4666 43.0286 70.4867 43.022 70.5 42.9953C70.9933 42.2753 71.6533 41.9153 72.48 41.9153Z" fill="#252530"></path><path d="M30.8 66.6953C30.7266 66.6953 30.68 66.662 30.66 66.5953L28.84 59.8253L28.83 59.7853C28.83 59.7253 28.8666 59.6953 28.94 59.6953H29.92C29.9933 59.6953 30.04 59.7286 30.06 59.7953L31.2 64.3553C31.2066 64.3753 31.2166 64.3853 31.23 64.3853C31.2433 64.3853 31.2533 64.3753 31.26 64.3553L32.35 59.7953C32.37 59.7286 32.4133 59.6953 32.48 59.6953H33.44C33.5133 59.6953 33.56 59.7286 33.58 59.7953L34.74 64.3653C34.7466 64.3853 34.7566 64.3953 34.77 64.3953C34.7833 64.3953 34.7933 64.3853 34.8 64.3653L35.92 59.7953C35.94 59.7286 35.9866 59.6953 36.06 59.6953H36.99C37.0833 59.6953 37.12 59.7386 37.1 59.8253L35.37 66.5953C35.35 66.662 35.3033 66.6953 35.23 66.6953H34.3C34.2266 66.6953 34.18 66.662 34.16 66.5953L32.99 61.8253C32.9833 61.8053 32.9733 61.792 32.96 61.7853C32.9466 61.7853 32.9366 61.7986 32.93 61.8253L31.81 66.5953C31.79 66.662 31.7466 66.6953 31.68 66.6953H30.8ZM38.21 66.6953C38.1766 66.6953 38.1466 66.682 38.12 66.6553C38.1 66.6353 38.09 66.6086 38.09 66.5753V59.8153C38.09 59.782 38.1 59.7553 38.12 59.7353C38.1466 59.7086 38.1766 59.6953 38.21 59.6953H39.13C39.1633 59.6953 39.19 59.7086 39.21 59.7353C39.2366 59.7553 39.25 59.782 39.25 59.8153V66.5753C39.25 66.6086 39.2366 66.6353 39.21 66.6553C39.19 66.682 39.1633 66.6953 39.13 66.6953H38.21ZM44.78 59.8153C44.78 59.782 44.79 59.7553 44.81 59.7353C44.8366 59.7086 44.8666 59.6953 44.9 59.6953H45.82C45.8533 59.6953 45.88 59.7086 45.9 59.7353C45.9266 59.7553 45.94 59.782 45.94 59.8153V66.5753C45.94 66.6086 45.9266 66.6353 45.9 66.6553C45.88 66.682 45.8533 66.6953 45.82 66.6953H44.93C44.8633 66.6953 44.8166 66.6686 44.79 66.6153L41.91 61.8953C41.8966 61.8753 41.8833 61.8653 41.87 61.8653C41.8566 61.872 41.85 61.8886 41.85 61.9153L41.87 66.5753C41.87 66.6086 41.8566 66.6353 41.83 66.6553C41.81 66.682 41.7833 66.6953 41.75 66.6953H40.83C40.7966 66.6953 40.7666 66.682 40.74 66.6553C40.72 66.6353 40.71 66.6086 40.71 66.5753V59.8153C40.71 59.782 40.72 59.7553 40.74 59.7353C40.7666 59.7086 40.7966 59.6953 40.83 59.6953H41.72C41.7866 59.6953 41.8333 59.722 41.86 59.7753L44.73 64.4953C44.7433 64.5153 44.7566 64.522 44.77 64.5153C44.7833 64.5153 44.79 64.502 44.79 64.4753L44.78 59.8153ZM52 59.6953C52.0333 59.6953 52.06 59.7086 52.08 59.7353C52.1066 59.7553 52.12 59.782 52.12 59.8153V60.5853C52.12 60.6186 52.1066 60.6453 52.08 60.6653C52.06 60.692 52.0333 60.7053 52 60.7053H50.16C50.1266 60.7053 50.11 60.722 50.11 60.7553V66.5753C50.11 66.6086 50.1 66.6353 50.08 66.6553C50.0533 66.682 50.0233 66.6953 49.99 66.6953H49.07C49.0366 66.6953 49.01 66.682 48.99 66.6553C48.9633 66.6353 48.95 66.6086 48.95 66.5753V60.7553C48.95 60.722 48.9333 60.7053 48.9 60.7053H47.13C47.0966 60.7053 47.0666 60.692 47.04 60.6653C47.02 60.6453 47.01 60.6186 47.01 60.5853V59.8153C47.01 59.782 47.02 59.7553 47.04 59.7353C47.0666 59.7086 47.0966 59.6953 47.13 59.6953H52ZM57.93 60.5753C57.93 60.6086 57.9166 60.6353 57.89 60.6553C57.87 60.682 57.8433 60.6953 57.81 60.6953H54.4C54.3666 60.6953 54.35 60.712 54.35 60.7453V62.6153C54.35 62.6486 54.3666 62.6653 54.4 62.6653H56.69C56.7233 62.6653 56.7533 62.6753 56.78 62.6953C56.8 62.722 56.81 62.752 56.81 62.7853V63.5453C56.81 63.5786 56.8 63.6086 56.78 63.6353C56.7533 63.6553 56.7233 63.6653 56.69 63.6653H54.4C54.3666 63.6653 54.35 63.682 54.35 63.7153V65.6453C54.35 65.6786 54.3666 65.6953 54.4 65.6953H57.81C57.8433 65.6953 57.87 65.7086 57.89 65.7353C57.9166 65.7553 57.93 65.782 57.93 65.8153V66.5753C57.93 66.6086 57.9166 66.6353 57.89 66.6553C57.87 66.682 57.8433 66.6953 57.81 66.6953H53.31C53.2766 66.6953 53.2466 66.682 53.22 66.6553C53.2 66.6353 53.19 66.6086 53.19 66.5753V59.8153C53.19 59.782 53.2 59.7553 53.22 59.7353C53.2466 59.7086 53.2766 59.6953 53.31 59.6953H57.81C57.8433 59.6953 57.87 59.7086 57.89 59.7353C57.9166 59.7553 57.93 59.782 57.93 59.8153V60.5753ZM63.04 66.6953C62.9733 66.6953 62.9266 66.6653 62.9 66.6053L61.58 63.7253C61.5666 63.6986 61.5466 63.6853 61.52 63.6853H60.32C60.2866 63.6853 60.27 63.702 60.27 63.7353V66.5753C60.27 66.6086 60.2566 66.6353 60.23 66.6553C60.21 66.682 60.1833 66.6953 60.15 66.6953H59.23C59.1966 66.6953 59.1666 66.682 59.14 66.6553C59.12 66.6353 59.11 66.6086 59.11 66.5753V59.8153C59.11 59.782 59.12 59.7553 59.14 59.7353C59.1666 59.7086 59.1966 59.6953 59.23 59.6953H61.98C62.3866 59.6953 62.7466 59.7786 63.06 59.9453C63.3733 60.1186 63.6166 60.3586 63.79 60.6653C63.9633 60.9786 64.05 61.3353 64.05 61.7353C64.05 62.1953 63.93 62.5853 63.69 62.9053C63.4566 63.232 63.13 63.4586 62.71 63.5853C62.6966 63.5853 62.6866 63.592 62.68 63.6053C62.6733 63.6186 62.6733 63.632 62.68 63.6453L64.09 66.5553C64.1033 66.582 64.11 66.602 64.11 66.6153C64.11 66.6686 64.0733 66.6953 64 66.6953H63.04ZM60.32 60.6953C60.2866 60.6953 60.27 60.712 60.27 60.7453V62.7353C60.27 62.7686 60.2866 62.7853 60.32 62.7853H61.82C62.14 62.7853 62.4 62.6886 62.6 62.4953C62.7933 62.3086 62.89 62.0586 62.89 61.7453C62.89 61.432 62.7933 61.1786 62.6 60.9853C62.4 60.792 62.14 60.6953 61.82 60.6953H60.32Z" fill="white"></path><path d="M33.0899 84.7581C33.0699 84.7781 33.0633 84.7981 33.0699 84.8181C33.0833 84.8381 33.1033 84.8481 33.1299 84.8481H37.0599C37.1066 84.8481 37.1466 84.8648 37.1799 84.8981C37.2199 84.9315 37.2399 84.9715 37.2399 85.0181V86.4281C37.2399 86.4748 37.2199 86.5148 37.1799 86.5481C37.1466 86.5815 37.1066 86.5981 37.0599 86.5981H30.5399C30.4866 86.5981 30.4433 86.5815 30.4099 86.5481C30.3766 86.5148 30.3599 86.4748 30.3599 86.4281V85.0881C30.3599 85.0015 30.3899 84.9281 30.4499 84.8681C30.9233 84.4081 31.4066 83.9048 31.8999 83.3581C32.3933 82.8115 32.7033 82.4715 32.8299 82.3381C33.0966 82.0181 33.3699 81.7115 33.6499 81.4181C34.5299 80.4448 34.9699 79.7215 34.9699 79.2481C34.9699 78.9081 34.8499 78.6281 34.6099 78.4081C34.3699 78.1948 34.0566 78.0881 33.6699 78.0881C33.2833 78.0881 32.9699 78.1948 32.7299 78.4081C32.4833 78.6281 32.3599 78.9181 32.3599 79.2781V79.6381C32.3599 79.6848 32.3433 79.7248 32.3099 79.7581C32.2766 79.7915 32.2366 79.8081 32.1899 79.8081H30.4799C30.4333 79.8081 30.3933 79.7915 30.3599 79.7581C30.3199 79.7248 30.2999 79.6848 30.2999 79.6381V78.9581C30.3333 78.4381 30.4999 77.9748 30.7999 77.5681C31.0999 77.1681 31.4966 76.8615 31.9899 76.6481C32.4899 76.4348 33.0499 76.3281 33.6699 76.3281C34.3566 76.3281 34.9533 76.4581 35.4599 76.7181C35.9666 76.9715 36.3566 77.3148 36.6299 77.7481C36.9099 78.1881 37.0499 78.6715 37.0499 79.1981C37.0499 79.6048 36.9466 80.0215 36.7399 80.4481C36.5399 80.8748 36.2366 81.3348 35.8299 81.8281C35.5299 82.2015 35.2066 82.5748 34.8599 82.9481C34.5133 83.3148 33.9966 83.8448 33.3099 84.5381L33.0899 84.7581ZM41.9499 86.7581C40.8833 86.7581 40.0433 86.4615 39.4299 85.8681C38.8099 85.2748 38.4999 84.4648 38.4999 83.4381V79.6081C38.4999 78.6015 38.8099 77.8048 39.4299 77.2181C40.0433 76.6248 40.8833 76.3281 41.9499 76.3281C43.0099 76.3281 43.8533 76.6248 44.4799 77.2181C45.0999 77.8048 45.4099 78.6015 45.4099 79.6081V83.4381C45.4099 84.4648 45.0999 85.2748 44.4799 85.8681C43.8533 86.4615 43.0099 86.7581 41.9499 86.7581ZM41.9499 85.0081C42.3833 85.0081 42.7266 84.8748 42.9799 84.6081C43.2399 84.3415 43.3699 83.9848 43.3699 83.5381V79.5481C43.3699 79.1081 43.2399 78.7548 42.9799 78.4881C42.7266 78.2215 42.3833 78.0881 41.9499 78.0881C41.5233 78.0881 41.1833 78.2215 40.9299 78.4881C40.6699 78.7548 40.5399 79.1081 40.5399 79.5481V83.5381C40.5399 83.9848 40.6699 84.3415 40.9299 84.6081C41.1833 84.8748 41.5233 85.0081 41.9499 85.0081ZM49.4699 84.7581C49.4499 84.7781 49.4466 84.7981 49.4599 84.8181C49.4666 84.8381 49.4866 84.8481 49.5199 84.8481H53.4499C53.4966 84.8481 53.5366 84.8648 53.5699 84.8981C53.6033 84.9315 53.6199 84.9715 53.6199 85.0181V86.4281C53.6199 86.4748 53.6033 86.5148 53.5699 86.5481C53.5366 86.5815 53.4966 86.5981 53.4499 86.5981H46.9199C46.8733 86.5981 46.8333 86.5815 46.7999 86.5481C46.7666 86.5148 46.7499 86.4748 46.7499 86.4281V85.0881C46.7499 85.0015 46.7766 84.9281 46.8299 84.8681C47.3099 84.4081 47.7933 83.9048 48.2799 83.3581C48.7733 82.8115 49.0833 82.4715 49.2099 82.3381C49.4833 82.0181 49.7599 81.7115 50.0399 81.4181C50.9199 80.4448 51.3599 79.7215 51.3599 79.2481C51.3599 78.9081 51.2399 78.6281 50.9999 78.4081C50.7533 78.1948 50.4366 78.0881 50.0499 78.0881C49.6633 78.0881 49.3499 78.1948 49.1099 78.4081C48.8699 78.6281 48.7499 78.9181 48.7499 79.2781V79.6381C48.7499 79.6848 48.7333 79.7248 48.6999 79.7581C48.6666 79.7915 48.6233 79.8081 48.5699 79.8081H46.8599C46.8133 79.8081 46.7733 79.7915 46.7399 79.7581C46.7066 79.7248 46.6899 79.6848 46.6899 79.6381V78.9581C46.7166 78.4381 46.8799 77.9748 47.1799 77.5681C47.4799 77.1681 47.8799 76.8615 48.3799 76.6481C48.8799 76.4348 49.4366 76.3281 50.0499 76.3281C50.7366 76.3281 51.3333 76.4581 51.8399 76.7181C52.3533 76.9715 52.7466 77.3148 53.0199 77.7481C53.2933 78.1881 53.4299 78.6715 53.4299 79.1981C53.4299 79.6048 53.3299 80.0215 53.1299 80.4481C52.9233 80.8748 52.6166 81.3348 52.2099 81.8281C51.9099 82.2015 51.5866 82.5748 51.2399 82.9481C50.8933 83.3148 50.3766 83.8448 49.6899 84.5381L49.4699 84.7581ZM62.1299 82.1781C62.1766 82.1781 62.2199 82.1948 62.2599 82.2281C62.2933 82.2615 62.3099 82.3015 62.3099 82.3481V83.8181C62.3099 83.8648 62.2933 83.9048 62.2599 83.9381C62.2199 83.9715 62.1766 83.9881 62.1299 83.9881H61.5099C61.4633 83.9881 61.4399 84.0115 61.4399 84.0581V86.4281C61.4399 86.4748 61.4233 86.5148 61.3899 86.5481C61.3499 86.5815 61.3066 86.5981 61.2599 86.5981H59.5699C59.5166 86.5981 59.4733 86.5815 59.4399 86.5481C59.4066 86.5148 59.3899 86.4748 59.3899 86.4281V84.0581C59.3899 84.0115 59.3666 83.9881 59.3199 83.9881H54.8699C54.8233 83.9881 54.7799 83.9715 54.7399 83.9381C54.7066 83.9048 54.6899 83.8648 54.6899 83.8181V82.6581C54.6899 82.5981 54.7066 82.5248 54.7399 82.4381L57.3499 76.5781C57.3899 76.4915 57.4566 76.4481 57.5499 76.4481H59.3599C59.4266 76.4481 59.4733 76.4648 59.4999 76.4981C59.5266 76.5315 59.5233 76.5815 59.4899 76.6481L57.0699 82.0881C57.0633 82.1081 57.0633 82.1281 57.0699 82.1481C57.0833 82.1681 57.0999 82.1781 57.1199 82.1781H59.3199C59.3666 82.1781 59.3899 82.1515 59.3899 82.0981V80.3081C59.3899 80.2548 59.4066 80.2115 59.4399 80.1781C59.4733 80.1448 59.5166 80.1281 59.5699 80.1281H61.2599C61.3066 80.1281 61.3499 80.1448 61.3899 80.1781C61.4233 80.2115 61.4399 80.2548 61.4399 80.3081V82.0981C61.4399 82.1515 61.4633 82.1781 61.5099 82.1781H62.1299Z" fill="#252530"></path></svg>