<svg width="151" height="47" viewBox="0 0 151 47" fill="none" xmlns="http://www.w3.org/2000/svg">
<g clip-path="url(#clip0_256_356)">
<path d="M0.925537 32.8619V1.25232H6.46622V32.8619H0.925537Z" fill="black"/>
<path d="M20.6493 9.93042C13.5454 9.93042 8.62939 15.4041 8.62939 21.6693C8.62939 28.6617 13.9774 33.4787 20.7045 33.4787C27.0888 33.4787 32.629 28.7503 32.629 21.6542C32.629 15.6871 28.0382 9.93042 20.6493 9.93042ZM20.584 15.2869C24.3017 15.2869 27.0381 18.187 27.0381 21.6895C27.0381 25.4031 24.0211 28.1121 20.6844 28.1121C16.7417 28.1121 14.2604 24.9805 14.2604 21.6995C14.2604 18.1032 17.0618 15.2869 20.584 15.2869Z" fill="black"/>
<path d="M46.5499 9.93042C39.446 9.93042 34.53 15.4041 34.53 21.6693C34.53 28.6617 39.8781 33.4787 46.6051 33.4787C52.9895 33.4787 58.5296 28.7503 58.5296 21.6542C58.5296 17.4755 56.7239 15.6214 56.7239 15.6214L58.2596 15.0937V10.5872H50.3902C50.3902 10.5872 48.6842 9.93042 46.5499 9.93042ZM46.4847 15.2869C50.2023 15.2869 52.9388 18.187 52.9388 21.6895C52.9388 25.4031 49.9218 28.1121 46.585 28.1121C42.6423 28.1121 40.1611 24.9805 40.1611 21.6995C40.1611 18.1032 42.9624 15.2869 46.4847 15.2869Z" fill="black"/>
<path d="M52.8997 34.407C52.8997 38.1206 49.8827 40.8498 46.546 40.8498C42.6032 40.8498 40.112 37.688 40.112 34.407H34.491C34.491 41.3993 39.839 46.2163 46.566 46.2163C52.9504 46.2163 58.4906 41.5031 58.4906 34.407H52.8997Z" fill="black"/>
<path d="M60.7488 32.8619V10.5872H66.2895V32.8619H60.7488Z" fill="black"/>
<path d="M71.6696 32.8618V15.5764H68.6985V10.5871H71.6696V3.74695H77.2103V10.5871H80.2617V15.5764H77.2103V32.8618H71.6696Z" fill="black"/>
<path d="M67.1767 4.26065C67.1767 6.29135 65.534 7.93756 63.5076 7.93756C61.4813 7.93756 59.8386 6.29135 59.8386 4.26065C59.8386 2.22995 61.4813 0.58374 63.5076 0.58374C65.534 0.58374 67.1767 2.22995 67.1767 4.26065Z" fill="black"/>
<path d="M92.7183 9.91528C85.5808 9.91528 80.9795 15.3919 80.9795 21.8705C80.9795 28.5654 85.5961 33.4937 92.8337 33.4937C99.5853 33.4937 102.906 29.2689 102.906 29.2689L99.2025 25.5521C99.2025 25.5521 96.406 28.5748 92.904 28.5748C89.9847 28.5748 87.6507 26.942 86.8364 23.9477H104.101V22.4187C104.101 16.3179 100.577 9.91528 92.7183 9.91528ZM92.5427 14.804C95.0951 14.804 97.7053 16.1724 98.2891 19.4412H86.6858C87.1454 17.1434 89.1512 14.804 92.5427 14.804Z" fill="black"/>
<path d="M117.96 33.4965C110.802 33.4965 105.925 28.0332 105.925 21.5916C105.925 14.9439 111.437 9.91101 117.937 9.91101C124.22 9.91101 127.436 14.3563 127.436 14.3563L123.571 18.2122C123.571 18.2122 121.332 15.3132 117.91 15.3132C114.118 15.3132 111.524 18.2207 111.524 21.6769C111.524 25.3262 114.283 28.126 117.868 28.126C121.345 28.126 123.566 25.2317 123.566 25.2317L127.47 29.0855C127.47 29.0855 124.285 33.4965 117.96 33.4965Z" fill="black"/>
<path d="M129.486 32.878V1.17188H135.026V12.8208C135.026 12.8208 137.148 9.91106 141.763 9.91106C147.564 9.91106 150.926 14.2331 150.926 19.761V32.878H145.385V20.6002C145.385 16.8865 143.078 15.3458 140.522 15.3458C137.61 15.3458 135.026 17.0066 135.026 20.8876V32.878H129.486Z" fill="black"/>
</g>
<defs>
<clipPath id="clip0_256_356">
<rect width="150" height="45.6325" fill="white" transform="translate(0.925537 0.58374)"/>
</clipPath>
</defs>
</svg>
