<svg xmlns="http://www.w3.org/2000/svg" width="93" height="105" viewBox="0 0 93 105" fill="none"><path d="M7.69995 81.1937L47.2 101.294L85.2 81.1937V2.59375H7.69995V81.1937Z" fill="white"></path><path d="M86 2.89844L6.90002 82.5984L47.9 102.898L86 83.3984V2.89844Z" fill="#F2F3F2"></path><path d="M5.09998 28.8V82.9L6.49998 83.6L46 103.7L47.2 104.3L48.4 103.7L86.5 83.6L87.9 82.9V0H5.09998V28.8ZM7.69998 81.4V2.6H85.3V81.4L47.2 101.5L7.69998 81.4Z" fill="#DCDEDC"></path><path d="M46.5 3.9C46.9 3.9 47.3 3.9 47.7 4L46.5 6.3C44.7 6.2 43.1 7.6 43 9.4C42.9 11.2 44.3 12.8 46.1 12.9H46.5C47.3 12.9 48.1 12.6 48.7 12.1L50 14.3C49 15 47.8 15.4 46.5 15.4C43.3 15.5 40.6 13.1 40.5 9.9C40.4 6.7 42.8 4 46 3.9H46.5ZM50.6 8.8L52.1 11.3L50.6 13.7L49.2 11.3H46.3L47.8 8.8H50.6ZM48.2 7.9C48.2 7.5 48.3 7.1 48.5 6.8C48.7 6.5 49.1 6.2 49.4 6L49.6 5.9C50 5.7 50.1 5.6 50.1 5.4C50.1 5.2 49.8 5 49.6 5C49.2 5 48.9 5.2 48.7 5.6L48.2 5.1C48.3 4.9 48.5 4.7 48.7 4.5C49 4.3 49.3 4.3 49.6 4.3C49.9 4.3 50.3 4.4 50.5 4.6C50.7 4.8 50.9 5.1 50.9 5.4C50.9 5.9 50.6 6.3 50 6.5L49.7 6.7C49.4 6.9 49.2 7 49.1 7.3H50.9V8L48.2 7.9ZM46.5 20.4L56 15V0H36.9V14.9L46.5 20.4Z" fill="#FF492C"></path><path d="M89.8 55.7969H3.2L0 62.7969L3.2 69.7969H89.8L92.9 62.7969L89.8 55.7969Z" fill="#5A39A2"></path><path d="M20.5099 51.2938C20.4432 51.2938 20.3933 51.2604 20.3599 51.1938L18.9899 48.1437C18.9699 48.1171 18.9466 48.1038 18.9199 48.1038H17.8999C17.8599 48.1038 17.8399 48.1237 17.8399 48.1637V51.1637C17.8399 51.1971 17.8266 51.2271 17.7999 51.2537C17.7799 51.2804 17.7499 51.2938 17.7099 51.2938H16.4199C16.3866 51.2938 16.3566 51.2804 16.3299 51.2537C16.3032 51.2271 16.2899 51.1971 16.2899 51.1637V43.7238C16.2899 43.6904 16.3032 43.6604 16.3299 43.6338C16.3566 43.6071 16.3866 43.5938 16.4199 43.5938H19.5699C20.0366 43.5938 20.4499 43.6904 20.8099 43.8838C21.1632 44.0704 21.4366 44.3404 21.6299 44.6938C21.8233 45.0471 21.9199 45.4537 21.9199 45.9137C21.9199 46.4137 21.7966 46.8404 21.5499 47.1938C21.2966 47.5538 20.9466 47.8071 20.4999 47.9538C20.4666 47.9671 20.4566 47.9904 20.4699 48.0238L21.9699 51.1437C21.9833 51.1704 21.9899 51.1904 21.9899 51.2038C21.9899 51.2638 21.9499 51.2938 21.8699 51.2938H20.5099ZM17.8999 44.9238C17.8599 44.9238 17.8399 44.9437 17.8399 44.9837V46.8638C17.8399 46.8971 17.8599 46.9137 17.8999 46.9137H19.3399C19.6466 46.9137 19.8966 46.8237 20.0899 46.6437C20.2832 46.4571 20.3799 46.2171 20.3799 45.9238C20.3799 45.6304 20.2832 45.3904 20.0899 45.2038C19.8966 45.0171 19.6466 44.9238 19.3399 44.9238H17.8999ZM27.8699 47.8838C27.9166 48.1638 27.9332 48.4771 27.9199 48.8237C27.9132 48.9104 27.8632 48.9538 27.7699 48.9538H24.3799C24.3333 48.9538 24.3166 48.9704 24.3299 49.0037C24.3499 49.1504 24.3899 49.2971 24.4499 49.4438C24.6433 49.8571 25.0333 50.0638 25.6199 50.0638C26.0866 50.0571 26.4566 49.8671 26.7299 49.4938C26.7566 49.4471 26.7899 49.4238 26.8299 49.4238C26.8499 49.4238 26.8766 49.4371 26.9099 49.4637L27.6999 50.2537C27.7333 50.2871 27.7499 50.3171 27.7499 50.3438C27.7499 50.3637 27.7366 50.3938 27.7099 50.4338C27.4699 50.7338 27.1566 50.9671 26.7699 51.1338C26.3899 51.3004 25.9732 51.3838 25.5199 51.3838C24.8866 51.3838 24.3532 51.2404 23.9199 50.9538C23.4799 50.6671 23.1666 50.2671 22.9799 49.7537C22.8266 49.3871 22.7499 48.9071 22.7499 48.3138C22.7499 47.9071 22.8032 47.5504 22.9099 47.2438C23.0832 46.7238 23.3799 46.3104 23.7999 46.0037C24.2199 45.6971 24.7199 45.5438 25.2999 45.5438C26.0333 45.5438 26.6232 45.7571 27.0699 46.1838C27.5099 46.6038 27.7766 47.1704 27.8699 47.8838ZM25.3099 46.8838C24.8499 46.8838 24.5466 47.1004 24.3999 47.5338C24.3666 47.6271 24.3399 47.7438 24.3199 47.8838C24.3199 47.9238 24.3399 47.9438 24.3799 47.9438H26.2799C26.3199 47.9438 26.3332 47.9238 26.3199 47.8838C26.2866 47.6704 26.2699 47.5671 26.2699 47.5737C26.2032 47.3537 26.0866 47.1838 25.9199 47.0638C25.7532 46.9438 25.5499 46.8838 25.3099 46.8838ZM31.3599 51.3838C30.7733 51.3838 30.2666 51.2371 29.8399 50.9438C29.4066 50.6504 29.0999 50.2471 28.9199 49.7337C28.7932 49.3671 28.7299 48.9338 28.7299 48.4338C28.7299 47.9404 28.7932 47.5138 28.9199 47.1538C29.0932 46.6604 29.3966 46.2704 29.8299 45.9837C30.2632 45.6971 30.7733 45.5537 31.3599 45.5537C31.9466 45.5537 32.4633 45.7004 32.9099 45.9938C33.3499 46.2871 33.6432 46.6571 33.7899 47.1038C33.8499 47.2771 33.8799 47.4104 33.8799 47.5037V47.5238C33.8799 47.5904 33.8432 47.6304 33.7699 47.6437L32.4999 47.8338H32.4799C32.4133 47.8338 32.3699 47.7971 32.3499 47.7238L32.3199 47.5438C32.2666 47.3504 32.1533 47.1937 31.9799 47.0737C31.7999 46.9471 31.5899 46.8838 31.3499 46.8838C31.1166 46.8838 30.9199 46.9438 30.7599 47.0638C30.5932 47.1771 30.4766 47.3371 30.4099 47.5438C30.3299 47.7638 30.2899 48.0638 30.2899 48.4438C30.2899 48.8238 30.3266 49.1238 30.3999 49.3438C30.4666 49.5637 30.5832 49.7371 30.7499 49.8638C30.9166 49.9904 31.1166 50.0537 31.3499 50.0537C31.5766 50.0537 31.7766 49.9938 31.9499 49.8738C32.1232 49.7471 32.2432 49.5804 32.3099 49.3738C32.3166 49.3538 32.3199 49.3304 32.3199 49.3037C32.3266 49.2971 32.3299 49.2871 32.3299 49.2738C32.3366 49.1804 32.3866 49.1437 32.4799 49.1637L33.7499 49.3538C33.8233 49.3738 33.8599 49.4171 33.8599 49.4837C33.8599 49.5371 33.8366 49.6471 33.7899 49.8138C33.6366 50.3004 33.3399 50.6837 32.8999 50.9637C32.4532 51.2437 31.9399 51.3838 31.3599 51.3838ZM37.2099 51.3838C36.5966 51.3838 36.0699 51.2204 35.6299 50.8937C35.1899 50.5737 34.8899 50.1337 34.7299 49.5737C34.6233 49.2337 34.5699 48.8604 34.5699 48.4538C34.5699 48.0204 34.6233 47.6338 34.7299 47.2938C34.8966 46.7471 35.1999 46.3204 35.6399 46.0138C36.0799 45.7071 36.6066 45.5537 37.2199 45.5537C37.8266 45.5537 38.3399 45.7037 38.7599 46.0037C39.1866 46.3104 39.4899 46.7371 39.6699 47.2838C39.7832 47.6504 39.8399 48.0338 39.8399 48.4338C39.8399 48.8271 39.7899 49.1971 39.6899 49.5438C39.5299 50.1171 39.2299 50.5671 38.7899 50.8937C38.3566 51.2204 37.8299 51.3838 37.2099 51.3838ZM37.2099 50.0537C37.4566 50.0537 37.6632 49.9804 37.8299 49.8338C37.9966 49.6871 38.1166 49.4838 38.1899 49.2238C38.2499 48.9904 38.2799 48.7338 38.2799 48.4538C38.2799 48.1471 38.2499 47.8871 38.1899 47.6738C38.1099 47.4271 37.9866 47.2338 37.8199 47.0938C37.6533 46.9537 37.4466 46.8838 37.1999 46.8838C36.9532 46.8838 36.7466 46.9537 36.5799 47.0938C36.4132 47.2338 36.2932 47.4271 36.2199 47.6738C36.1666 47.8538 36.1399 48.1138 36.1399 48.4538C36.1399 48.7871 36.1633 49.0438 36.2099 49.2238C36.2833 49.4838 36.4066 49.6871 36.5799 49.8338C36.7532 49.9804 36.9633 50.0537 37.2099 50.0537ZM47.1099 45.5537C47.6832 45.5537 48.1332 45.7271 48.4599 46.0737C48.7799 46.4137 48.9399 46.8971 48.9399 47.5238V51.1637C48.9399 51.1971 48.9266 51.2271 48.8999 51.2537C48.8733 51.2804 48.8432 51.2938 48.8099 51.2938H47.5199C47.4799 51.2938 47.4499 51.2804 47.4299 51.2537C47.4033 51.2271 47.3899 51.1971 47.3899 51.1637V47.8638C47.3899 47.5638 47.3133 47.3237 47.1599 47.1437C47.0066 46.9704 46.7999 46.8838 46.5399 46.8838C46.2866 46.8838 46.0766 46.9704 45.9099 47.1437C45.7499 47.3237 45.6699 47.5604 45.6699 47.8538V51.1637C45.6699 51.1971 45.6566 51.2271 45.6299 51.2537C45.6099 51.2804 45.5799 51.2938 45.5399 51.2938H44.2599C44.2266 51.2938 44.1966 51.2804 44.1699 51.2537C44.1432 51.2271 44.1299 51.1971 44.1299 51.1637V47.8638C44.1299 47.5704 44.0499 47.3338 43.8899 47.1538C43.7299 46.9738 43.5199 46.8838 43.2599 46.8838C43.0266 46.8838 42.8299 46.9537 42.6699 47.0938C42.5166 47.2338 42.4233 47.4271 42.3899 47.6738V51.1637C42.3899 51.1971 42.3799 51.2271 42.3599 51.2537C42.3332 51.2804 42.2999 51.2938 42.2599 51.2938H40.9799C40.9399 51.2938 40.9066 51.2804 40.8799 51.2537C40.8532 51.2271 40.8399 51.1971 40.8399 51.1637V45.7738C40.8399 45.7338 40.8532 45.7004 40.8799 45.6738C40.9066 45.6538 40.9399 45.6437 40.9799 45.6437H42.2599C42.2999 45.6437 42.3332 45.6538 42.3599 45.6738C42.3799 45.7004 42.3899 45.7338 42.3899 45.7738V46.2038C42.3899 46.2238 42.3999 46.2371 42.4199 46.2438C42.4332 46.2504 42.4466 46.2438 42.4599 46.2238C42.7599 45.7771 43.2266 45.5537 43.8599 45.5537C44.2266 45.5537 44.5466 45.6304 44.8199 45.7838C45.0933 45.9371 45.3032 46.1571 45.4499 46.4438C45.4699 46.4838 45.4966 46.4838 45.5299 46.4438C45.6899 46.1438 45.9066 45.9204 46.1799 45.7738C46.4599 45.6271 46.7699 45.5537 47.1099 45.5537ZM56.2999 45.5537C56.8733 45.5537 57.3199 45.7271 57.6399 46.0737C57.9599 46.4137 58.1199 46.8971 58.1199 47.5238V51.1637C58.1199 51.1971 58.1099 51.2271 58.0899 51.2537C58.0633 51.2804 58.0299 51.2938 57.9899 51.2938H56.7099C56.6699 51.2938 56.6366 51.2804 56.6099 51.2537C56.5833 51.2271 56.5699 51.1971 56.5699 51.1637V47.8638C56.5699 47.5638 56.4933 47.3237 56.3399 47.1437C56.1866 46.9704 55.9833 46.8838 55.7299 46.8838C55.4699 46.8838 55.2599 46.9704 55.0999 47.1437C54.9399 47.3237 54.8599 47.5604 54.8599 47.8538V51.1637C54.8599 51.1971 54.8466 51.2271 54.8199 51.2537C54.7932 51.2804 54.7599 51.2938 54.7199 51.2938H53.4499C53.4099 51.2938 53.3799 51.2804 53.3599 51.2537C53.3333 51.2271 53.3199 51.1971 53.3199 51.1637V47.8638C53.3199 47.5704 53.2366 47.3338 53.0699 47.1538C52.9099 46.9738 52.7032 46.8838 52.4499 46.8838C52.2166 46.8838 52.0199 46.9537 51.8599 47.0938C51.6999 47.2338 51.6066 47.4271 51.5799 47.6738V51.1637C51.5799 51.1971 51.5666 51.2271 51.5399 51.2537C51.5133 51.2804 51.4832 51.2938 51.4499 51.2938H50.1599C50.1199 51.2938 50.0899 51.2804 50.0699 51.2537C50.0432 51.2271 50.0299 51.1971 50.0299 51.1637V45.7738C50.0299 45.7338 50.0432 45.7004 50.0699 45.6738C50.0899 45.6538 50.1199 45.6437 50.1599 45.6437H51.4499C51.4832 45.6437 51.5133 45.6538 51.5399 45.6738C51.5666 45.7004 51.5799 45.7338 51.5799 45.7738V46.2038C51.5799 46.2238 51.5866 46.2371 51.5999 46.2438C51.6132 46.2504 51.6266 46.2438 51.6399 46.2238C51.9466 45.7771 52.4133 45.5537 53.0399 45.5537C53.4066 45.5537 53.7266 45.6304 53.9999 45.7838C54.2799 45.9371 54.4932 46.1571 54.6399 46.4438C54.6599 46.4838 54.6832 46.4838 54.7099 46.4438C54.8766 46.1438 55.0966 45.9204 55.3699 45.7738C55.6433 45.6271 55.9533 45.5537 56.2999 45.5537ZM64.1799 47.8838C64.2266 48.1638 64.2432 48.4771 64.2299 48.8237C64.2232 48.9104 64.1766 48.9538 64.0899 48.9538H60.6899C60.6433 48.9538 60.6266 48.9704 60.6399 49.0037C60.6666 49.1504 60.7066 49.2971 60.7599 49.4438C60.9533 49.8571 61.3432 50.0638 61.9299 50.0638C62.3966 50.0571 62.7666 49.8671 63.0399 49.4938C63.0666 49.4471 63.0999 49.4238 63.1399 49.4238C63.1599 49.4238 63.1866 49.4371 63.2199 49.4637L64.0099 50.2537C64.0433 50.2871 64.0599 50.3171 64.0599 50.3438C64.0599 50.3637 64.0466 50.3938 64.0199 50.4338C63.7799 50.7338 63.4666 50.9671 63.0799 51.1338C62.6999 51.3004 62.2833 51.3838 61.8299 51.3838C61.2033 51.3838 60.6699 51.2404 60.2299 50.9538C59.7966 50.6671 59.4833 50.2671 59.2899 49.7537C59.1366 49.3871 59.0599 48.9071 59.0599 48.3138C59.0599 47.9071 59.1133 47.5504 59.2199 47.2438C59.3933 46.7238 59.6899 46.3104 60.1099 46.0037C60.5299 45.6971 61.0299 45.5438 61.6099 45.5438C62.3433 45.5438 62.9332 45.7571 63.3799 46.1838C63.8199 46.6038 64.0866 47.1704 64.1799 47.8838ZM61.6199 46.8838C61.1599 46.8838 60.8566 47.1004 60.7099 47.5338C60.6832 47.6271 60.6566 47.7438 60.6299 47.8838C60.6299 47.9238 60.6499 47.9438 60.6899 47.9438H62.5899C62.6366 47.9438 62.6499 47.9238 62.6299 47.8838C62.5966 47.6704 62.5799 47.5671 62.5799 47.5737C62.5133 47.3537 62.3966 47.1838 62.2299 47.0638C62.0699 46.9438 61.8666 46.8838 61.6199 46.8838ZM68.1299 45.5537C68.7166 45.5537 69.1899 45.7337 69.5499 46.0938C69.9099 46.4538 70.0899 46.9404 70.0899 47.5537V51.1637C70.0899 51.1971 70.0766 51.2271 70.0499 51.2537C70.0232 51.2804 69.9932 51.2938 69.9599 51.2938H68.6699C68.6366 51.2938 68.6066 51.2804 68.5799 51.2537C68.5533 51.2271 68.5399 51.1971 68.5399 51.1637V47.8738C68.5399 47.5804 68.4566 47.3404 68.2899 47.1538C68.1299 46.9738 67.9132 46.8838 67.6399 46.8838C67.3666 46.8838 67.1466 46.9738 66.9799 47.1538C66.8199 47.3404 66.7399 47.5804 66.7399 47.8738V51.1637C66.7399 51.1971 66.7266 51.2271 66.6999 51.2537C66.6732 51.2804 66.6399 51.2938 66.5999 51.2938H65.3199C65.2799 51.2938 65.2466 51.2804 65.2199 51.2537C65.1999 51.2271 65.1899 51.1971 65.1899 51.1637V45.7738C65.1899 45.7338 65.1999 45.7004 65.2199 45.6738C65.2466 45.6538 65.2799 45.6437 65.3199 45.6437H66.5999C66.6399 45.6437 66.6732 45.6538 66.6999 45.6738C66.7266 45.7004 66.7399 45.7338 66.7399 45.7738V46.1538C66.7399 46.1804 66.7466 46.1971 66.7599 46.2038C66.7733 46.2104 66.7833 46.2071 66.7899 46.1938C67.0899 45.7671 67.5366 45.5537 68.1299 45.5537ZM74.6799 43.7238C74.6799 43.6904 74.6933 43.6604 74.7199 43.6338C74.7466 43.6071 74.7766 43.5938 74.8099 43.5938H76.0999C76.1332 43.5938 76.1632 43.6071 76.1899 43.6338C76.2166 43.6604 76.2299 43.6904 76.2299 43.7238V51.1637C76.2299 51.1971 76.2166 51.2271 76.1899 51.2537C76.1632 51.2804 76.1332 51.2938 76.0999 51.2938H74.8099C74.7766 51.2938 74.7466 51.2804 74.7199 51.2537C74.6933 51.2271 74.6799 51.1971 74.6799 51.1637V50.8037C74.6799 50.7771 74.6732 50.7638 74.6599 50.7638C74.6399 50.7571 74.6233 50.7604 74.6099 50.7738C74.3033 51.1804 73.8832 51.3838 73.3499 51.3838C72.8366 51.3838 72.3932 51.2404 72.0199 50.9538C71.6532 50.6671 71.3866 50.2738 71.2199 49.7738C71.0999 49.3938 71.0399 48.9504 71.0399 48.4438C71.0399 47.9238 71.1066 47.4704 71.2399 47.0838C71.4066 46.6104 71.6699 46.2371 72.0299 45.9637C72.3966 45.6904 72.8466 45.5537 73.3799 45.5537C73.9066 45.5537 74.3166 45.7371 74.6099 46.1038C74.6233 46.1238 74.6399 46.1304 74.6599 46.1238C74.6732 46.1171 74.6799 46.1038 74.6799 46.0838V43.7238ZM74.4499 49.5737C74.5966 49.3071 74.6699 48.9371 74.6699 48.4637C74.6699 47.9771 74.5899 47.5938 74.4299 47.3138C74.2566 47.0271 74.0099 46.8838 73.6899 46.8838C73.3432 46.8838 73.0832 47.0271 72.9099 47.3138C72.7232 47.6004 72.6299 47.9871 72.6299 48.4738C72.6299 48.9138 72.7066 49.2804 72.8599 49.5737C73.0466 49.8937 73.3199 50.0537 73.6799 50.0537C74.0066 50.0537 74.2632 49.8937 74.4499 49.5737ZM25.6799 40.2938C25.6466 40.2938 25.6166 40.2804 25.5899 40.2537C25.5632 40.2271 25.5499 40.1971 25.5499 40.1637V32.7238C25.5499 32.6904 25.5632 32.6604 25.5899 32.6338C25.6166 32.6071 25.6466 32.5938 25.6799 32.5938H26.9699C27.0099 32.5938 27.0399 32.6071 27.0599 32.6338C27.0866 32.6604 27.0999 32.6904 27.0999 32.7238V38.9038C27.0999 38.9438 27.1199 38.9637 27.1599 38.9637H30.7499C30.7899 38.9637 30.8232 38.9771 30.8499 39.0037C30.8766 39.0304 30.8899 39.0604 30.8899 39.0938V40.1637C30.8899 40.1971 30.8766 40.2271 30.8499 40.2537C30.8232 40.2804 30.7899 40.2938 30.7499 40.2938H25.6799ZM32.5799 34.0037C32.3332 34.0037 32.1266 33.9204 31.9599 33.7537C31.7933 33.5871 31.7099 33.3804 31.7099 33.1338C31.7099 32.8738 31.7899 32.6637 31.9499 32.5037C32.1099 32.3437 32.3199 32.2638 32.5799 32.2638C32.8332 32.2638 33.0433 32.3437 33.2099 32.5037C33.3699 32.6637 33.4499 32.8738 33.4499 33.1338C33.4499 33.3804 33.3666 33.5871 33.1999 33.7537C33.0332 33.9204 32.8266 34.0037 32.5799 34.0037ZM31.9199 40.2938C31.8799 40.2938 31.8499 40.2804 31.8299 40.2537C31.8032 40.2271 31.7899 40.1971 31.7899 40.1637V34.7638C31.7899 34.7238 31.8032 34.6904 31.8299 34.6637C31.8499 34.6371 31.8799 34.6238 31.9199 34.6238H33.2099C33.2433 34.6238 33.2733 34.6371 33.2999 34.6637C33.3266 34.6904 33.3399 34.7238 33.3399 34.7638V40.1637C33.3399 40.1971 33.3266 40.2271 33.2999 40.2537C33.2733 40.2804 33.2433 40.2938 33.2099 40.2938H31.9199ZM34.6799 40.2938C34.6466 40.2938 34.6166 40.2804 34.5899 40.2537C34.5633 40.2271 34.5499 40.1971 34.5499 40.1637V32.7238C34.5499 32.6904 34.5633 32.6604 34.5899 32.6338C34.6166 32.6071 34.6466 32.5938 34.6799 32.5938H35.9699C36.0032 32.5938 36.0332 32.6071 36.0599 32.6338C36.0866 32.6604 36.0999 32.6904 36.0999 32.7238V36.4338C36.0999 36.4538 36.1066 36.4671 36.1199 36.4738C36.1333 36.4738 36.1499 36.4671 36.1699 36.4538L37.6599 34.7137C37.7133 34.6671 37.7699 34.6437 37.8299 34.6437H39.2899C39.3632 34.6437 39.3999 34.6671 39.3999 34.7137C39.3999 34.7404 39.3899 34.7704 39.3699 34.8037L37.9699 36.5737C37.9566 36.6071 37.9533 36.6338 37.9599 36.6538L39.5999 40.1437C39.6132 40.1704 39.6199 40.1904 39.6199 40.2038C39.6199 40.2638 39.5799 40.2938 39.4999 40.2938H38.1499C38.0766 40.2938 38.0232 40.2604 37.9899 40.1938L36.8999 37.6238C36.8932 37.6104 36.8799 37.6004 36.8599 37.5938C36.8466 37.5871 36.8366 37.5938 36.8299 37.6138L36.1199 38.4938C36.1066 38.5204 36.0999 38.5404 36.0999 38.5537V40.1637C36.0999 40.1971 36.0866 40.2271 36.0599 40.2537C36.0332 40.2804 36.0032 40.2938 35.9699 40.2938H34.6799ZM44.9099 36.8838C44.9566 37.1638 44.9699 37.4771 44.9499 37.8237C44.9432 37.9104 44.8966 37.9538 44.8099 37.9538H41.4099C41.3699 37.9538 41.3566 37.9704 41.3699 38.0037C41.3899 38.1504 41.4299 38.2971 41.4899 38.4438C41.6832 38.8571 42.0733 39.0638 42.6599 39.0638C43.1266 39.0571 43.4966 38.8671 43.7699 38.4938C43.7966 38.4471 43.8299 38.4238 43.8699 38.4238C43.8899 38.4238 43.9132 38.4371 43.9399 38.4637L44.7299 39.2537C44.7699 39.2871 44.7899 39.3171 44.7899 39.3438C44.7899 39.3637 44.7766 39.3938 44.7499 39.4338C44.5033 39.7338 44.1899 39.9671 43.8099 40.1338C43.4299 40.3004 43.0132 40.3838 42.5599 40.3838C41.9266 40.3838 41.3933 40.2404 40.9599 39.9538C40.5199 39.6671 40.2066 39.2671 40.0199 38.7537C39.8599 38.3871 39.7799 37.9071 39.7799 37.3138C39.7799 36.9071 39.8366 36.5504 39.9499 36.2438C40.1166 35.7238 40.4133 35.3104 40.8399 35.0037C41.2599 34.6971 41.7599 34.5438 42.3399 34.5438C43.0733 34.5438 43.6599 34.7571 44.0999 35.1838C44.5466 35.6038 44.8166 36.1704 44.9099 36.8838ZM42.3499 35.8838C41.8832 35.8838 41.5766 36.1004 41.4299 36.5338C41.4033 36.6271 41.3799 36.7438 41.3599 36.8838C41.3599 36.9238 41.3766 36.9438 41.4099 36.9438H43.3199C43.3599 36.9438 43.3732 36.9238 43.3599 36.8838C43.3199 36.6704 43.2999 36.5671 43.2999 36.5737C43.2399 36.3537 43.1266 36.1838 42.9599 36.0638C42.7933 35.9438 42.5899 35.8838 42.3499 35.8838ZM46.0399 40.2938C46.0066 40.2938 45.9766 40.2804 45.9499 40.2537C45.9232 40.2271 45.9099 40.1971 45.9099 40.1637V32.7238C45.9099 32.6904 45.9232 32.6604 45.9499 32.6338C45.9766 32.6071 46.0066 32.5938 46.0399 32.5938H47.3299C47.3699 32.5938 47.3999 32.6071 47.4199 32.6338C47.4466 32.6604 47.4599 32.6904 47.4599 32.7238V40.1637C47.4599 40.1971 47.4466 40.2271 47.4199 40.2537C47.3999 40.2804 47.3699 40.2938 47.3299 40.2938H46.0399ZM48.5599 42.4837C48.5399 42.4837 48.5233 42.4704 48.5099 42.4438C48.4966 42.4171 48.4899 42.3871 48.4899 42.3538V41.3338C48.4899 41.3004 48.4999 41.2704 48.5199 41.2438C48.5466 41.2171 48.5799 41.2038 48.6199 41.2038C48.9266 41.1971 49.1699 41.1738 49.3499 41.1338C49.5299 41.0871 49.6732 41.0004 49.7799 40.8738C49.8866 40.7538 49.9699 40.5704 50.0299 40.3237C50.0366 40.3104 50.0366 40.2904 50.0299 40.2638L48.2199 34.7838C48.2132 34.7704 48.2099 34.7504 48.2099 34.7238C48.2099 34.6571 48.2499 34.6238 48.3299 34.6238H49.7099C49.7899 34.6238 49.8399 34.6638 49.8599 34.7438L50.7799 38.3037C50.7932 38.3237 50.8066 38.3338 50.8199 38.3338C50.8332 38.3338 50.8432 38.3237 50.8499 38.3037L51.7699 34.7438C51.7966 34.6638 51.8499 34.6238 51.9299 34.6238H53.2699C53.3166 34.6238 53.3466 34.6371 53.3599 34.6637C53.3799 34.6904 53.3833 34.7304 53.3699 34.7838L51.4699 40.5037C51.2833 41.0371 51.0966 41.4371 50.9099 41.7038C50.7166 41.9704 50.4466 42.1671 50.0999 42.2938C49.7599 42.4204 49.2732 42.4837 48.6399 42.4837H48.5599ZM61.7499 32.5938C61.7899 32.5938 61.8232 32.6071 61.8499 32.6338C61.8699 32.6604 61.8799 32.6904 61.8799 32.7238V33.8037C61.8799 33.8437 61.8699 33.8737 61.8499 33.8937C61.8232 33.9204 61.7899 33.9338 61.7499 33.9338H59.7799C59.7466 33.9338 59.7299 33.9538 59.7299 33.9938V40.1637C59.7299 40.1971 59.7166 40.2271 59.6899 40.2537C59.6633 40.2804 59.6332 40.2938 59.5999 40.2938H58.3099C58.2699 40.2938 58.2399 40.2804 58.2199 40.2537C58.1933 40.2271 58.1799 40.1971 58.1799 40.1637V33.9938C58.1799 33.9538 58.1599 33.9338 58.1199 33.9338H56.2099C56.1699 33.9338 56.1366 33.9204 56.1099 33.8937C56.0899 33.8737 56.0799 33.8437 56.0799 33.8037V32.7238C56.0799 32.6904 56.0899 32.6604 56.1099 32.6338C56.1366 32.6071 56.1699 32.5938 56.2099 32.5938H61.7499ZM64.3499 40.3838C63.7299 40.3838 63.1999 40.2204 62.7599 39.8937C62.3199 39.5737 62.0199 39.1337 61.8599 38.5737C61.7599 38.2337 61.7099 37.8604 61.7099 37.4538C61.7099 37.0204 61.7599 36.6338 61.8599 36.2938C62.0266 35.7471 62.3332 35.3204 62.7799 35.0138C63.2132 34.7071 63.7399 34.5537 64.3599 34.5537C64.9599 34.5537 65.4733 34.7037 65.8999 35.0037C66.3266 35.3104 66.6266 35.7371 66.7999 36.2838C66.9199 36.6504 66.9799 37.0338 66.9799 37.4338C66.9799 37.8271 66.9266 38.1971 66.8199 38.5438C66.6599 39.1171 66.3632 39.5671 65.9299 39.8937C65.4899 40.2204 64.9632 40.3838 64.3499 40.3838ZM64.3499 39.0537C64.5899 39.0537 64.7932 38.9804 64.9599 38.8338C65.1332 38.6871 65.2566 38.4838 65.3299 38.2238C65.3899 37.9904 65.4199 37.7338 65.4199 37.4538C65.4199 37.1471 65.3899 36.8871 65.3299 36.6738C65.2499 36.4271 65.1232 36.2338 64.9499 36.0938C64.7832 35.9537 64.5799 35.8838 64.3399 35.8838C64.0866 35.8838 63.8799 35.9537 63.7199 36.0938C63.5533 36.2338 63.4333 36.4271 63.3599 36.6738C63.2999 36.8538 63.2699 37.1138 63.2699 37.4538C63.2699 37.7871 63.2966 38.0438 63.3499 38.2238C63.4232 38.4838 63.5466 38.6871 63.7199 38.8338C63.8866 38.9804 64.0966 39.0537 64.3499 39.0537ZM22.6399 29.3838C22.0799 29.3838 21.5832 29.2737 21.1499 29.0537C20.7232 28.8337 20.3899 28.5238 20.1499 28.1238C19.9166 27.7238 19.7999 27.2638 19.7999 26.7438V21.7238C19.7999 21.6904 19.8099 21.6604 19.8299 21.6338C19.8566 21.6071 19.8899 21.5938 19.9299 21.5938H21.2099C21.2499 21.5938 21.2832 21.6071 21.3099 21.6338C21.3366 21.6604 21.3499 21.6904 21.3499 21.7238V26.7537C21.3499 27.1404 21.4666 27.4538 21.6999 27.6938C21.9399 27.9338 22.2533 28.0537 22.6399 28.0537C23.0333 28.0537 23.3499 27.9338 23.5899 27.6938C23.8232 27.4538 23.9399 27.1404 23.9399 26.7537V21.7238C23.9399 21.6904 23.9532 21.6604 23.9799 21.6338C24.0066 21.6071 24.0366 21.5938 24.0699 21.5938H25.3599C25.3999 21.5938 25.4333 21.6071 25.4599 21.6338C25.4799 21.6604 25.4899 21.6904 25.4899 21.7238V26.7438C25.4899 27.2638 25.3733 27.7238 25.1399 28.1238C24.8999 28.5238 24.5666 28.8337 24.1399 29.0537C23.7066 29.2737 23.2066 29.3838 22.6399 29.3838ZM28.9299 29.3738C28.4366 29.3738 28.0066 29.3037 27.6399 29.1637C27.2733 29.0237 26.9899 28.8304 26.7899 28.5838C26.5833 28.3304 26.4799 28.0471 26.4799 27.7337V27.6238C26.4799 27.5838 26.4932 27.5504 26.5199 27.5238C26.5466 27.5038 26.5799 27.4938 26.6199 27.4938H27.8399C27.8732 27.4938 27.9032 27.5038 27.9299 27.5238C27.9566 27.5504 27.9699 27.5838 27.9699 27.6238V27.6338C27.9699 27.7938 28.0599 27.9304 28.2399 28.0438C28.4199 28.1571 28.6432 28.2137 28.9099 28.2137C29.1632 28.2137 29.3666 28.1638 29.5199 28.0638C29.6732 27.9638 29.7499 27.8438 29.7499 27.7038C29.7499 27.5704 29.6833 27.4704 29.5499 27.4038C29.4166 27.3371 29.1999 27.2671 28.8999 27.1938C28.5599 27.1071 28.2899 27.0238 28.0899 26.9438C27.6232 26.7771 27.2499 26.5771 26.9699 26.3438C26.6899 26.1104 26.5499 25.7738 26.5499 25.3338C26.5499 24.7938 26.7599 24.3638 27.1799 24.0438C27.5999 23.7238 28.1599 23.5638 28.8599 23.5638C29.3266 23.5638 29.7366 23.6371 30.0899 23.7838C30.4432 23.9371 30.7166 24.1504 30.9099 24.4238C31.1032 24.6904 31.1999 24.9971 31.1999 25.3438C31.1999 25.3837 31.1866 25.4138 31.1599 25.4338C31.1399 25.4604 31.1099 25.4738 31.0699 25.4738H29.8899C29.8566 25.4738 29.8266 25.4604 29.7999 25.4338C29.7733 25.4138 29.7599 25.3837 29.7599 25.3438C29.7599 25.1838 29.6766 25.0471 29.5099 24.9338C29.3499 24.8271 29.1333 24.7738 28.8599 24.7738C28.6199 24.7738 28.4232 24.8171 28.2699 24.9038C28.1166 24.9904 28.0399 25.1104 28.0399 25.2638C28.0399 25.4104 28.1132 25.5204 28.2599 25.5938C28.4132 25.6671 28.6632 25.7471 29.0099 25.8338C29.0966 25.8538 29.1899 25.8771 29.2899 25.9038L29.6199 25.9938C30.1399 26.1471 30.5499 26.3438 30.8499 26.5838C31.1499 26.8304 31.2999 27.1837 31.2999 27.6437C31.2999 28.1837 31.0866 28.6071 30.6599 28.9137C30.2266 29.2204 29.6499 29.3738 28.9299 29.3738ZM37.1999 25.8838C37.2399 26.1638 37.2532 26.4771 37.2399 26.8237C37.2332 26.9104 37.1866 26.9538 37.0999 26.9538H33.6999C33.6532 26.9538 33.6399 26.9704 33.6599 27.0037C33.6799 27.1504 33.7199 27.2971 33.7799 27.4438C33.9666 27.8571 34.3532 28.0638 34.9399 28.0638C35.4132 28.0571 35.7833 27.8671 36.0499 27.4938C36.0833 27.4471 36.1166 27.4238 36.1499 27.4238C36.1766 27.4238 36.2033 27.4371 36.2299 27.4637L37.0199 28.2537C37.0599 28.2871 37.0799 28.3171 37.0799 28.3438C37.0799 28.3637 37.0633 28.3938 37.0299 28.4338C36.7899 28.7338 36.4799 28.9671 36.0999 29.1338C35.7199 29.3004 35.2999 29.3838 34.8399 29.3838C34.2133 29.3838 33.6799 29.2404 33.2399 28.9538C32.8066 28.6671 32.4933 28.2671 32.2999 27.7537C32.1466 27.3871 32.0699 26.9071 32.0699 26.3138C32.0699 25.9071 32.1266 25.5504 32.2399 25.2438C32.4066 24.7238 32.6999 24.3104 33.1199 24.0037C33.5399 23.6971 34.0399 23.5438 34.6199 23.5438C35.3533 23.5438 35.9433 23.7571 36.3899 24.1838C36.8366 24.6038 37.1066 25.1704 37.1999 25.8838ZM34.6299 24.8838C34.1699 24.8838 33.8666 25.1004 33.7199 25.5338C33.6932 25.6271 33.6666 25.7438 33.6399 25.8838C33.6399 25.9238 33.6599 25.9438 33.6999 25.9438H35.5999C35.6466 25.9438 35.6632 25.9238 35.6499 25.8838C35.6099 25.6704 35.5899 25.5671 35.5899 25.5737C35.5233 25.3537 35.4099 25.1838 35.2499 25.0638C35.0833 24.9438 34.8766 24.8838 34.6299 24.8838ZM41.0199 23.5638C41.2799 23.5638 41.4866 23.6137 41.6399 23.7137C41.6999 23.7471 41.7233 23.8038 41.7099 23.8838L41.4799 25.1338C41.4733 25.2204 41.4199 25.2471 41.3199 25.2137C41.2133 25.1737 41.0866 25.1538 40.9399 25.1538C40.8799 25.1538 40.7999 25.1638 40.6999 25.1838C40.4332 25.2038 40.2066 25.3004 40.0199 25.4738C39.8399 25.6471 39.7499 25.8771 39.7499 26.1637V29.1637C39.7499 29.1971 39.7366 29.2271 39.7099 29.2537C39.6833 29.2804 39.6533 29.2938 39.6199 29.2938H38.3299C38.2966 29.2938 38.2666 29.2804 38.2399 29.2537C38.2132 29.2271 38.1999 29.1971 38.1999 29.1637V23.7738C38.1999 23.7338 38.2132 23.7004 38.2399 23.6738C38.2666 23.6538 38.2966 23.6437 38.3299 23.6437H39.6199C39.6533 23.6437 39.6833 23.6538 39.7099 23.6738C39.7366 23.7004 39.7499 23.7338 39.7499 23.7738V24.1938C39.7499 24.2138 39.7566 24.2271 39.7699 24.2337C39.7832 24.2404 39.7966 24.2371 39.8099 24.2238C40.1099 23.7838 40.5132 23.5638 41.0199 23.5638ZM44.5799 29.3738C44.0866 29.3738 43.6566 29.3037 43.2899 29.1637C42.9232 29.0237 42.6399 28.8304 42.4399 28.5838C42.2399 28.3304 42.1399 28.0471 42.1399 27.7337V27.6238C42.1399 27.5838 42.1533 27.5504 42.1799 27.5238C42.1999 27.5038 42.2299 27.4938 42.2699 27.4938H43.4899C43.5232 27.4938 43.5532 27.5038 43.5799 27.5238C43.6066 27.5504 43.6199 27.5838 43.6199 27.6238V27.6338C43.6199 27.7938 43.7099 27.9304 43.8899 28.0438C44.0699 28.1571 44.2966 28.2137 44.5699 28.2137C44.8166 28.2137 45.0166 28.1638 45.1699 28.0638C45.3232 27.9638 45.3999 27.8438 45.3999 27.7038C45.3999 27.5704 45.3366 27.4704 45.2099 27.4038C45.0766 27.3371 44.8599 27.2671 44.5599 27.1938C44.2132 27.1071 43.9399 27.0238 43.7399 26.9438C43.2732 26.7771 42.8999 26.5771 42.6199 26.3438C42.3399 26.1104 42.1999 25.7738 42.1999 25.3338C42.1999 24.7938 42.4133 24.3638 42.8399 24.0438C43.2599 23.7238 43.8166 23.5638 44.5099 23.5638C44.9832 23.5638 45.3932 23.6371 45.7399 23.7838C46.0932 23.9371 46.3666 24.1504 46.5599 24.4238C46.7599 24.6904 46.8599 24.9971 46.8599 25.3438C46.8599 25.3837 46.8466 25.4138 46.8199 25.4338C46.7933 25.4604 46.7599 25.4738 46.7199 25.4738H45.5499C45.5099 25.4738 45.4766 25.4604 45.4499 25.4338C45.4232 25.4138 45.4099 25.3837 45.4099 25.3438C45.4099 25.1838 45.3299 25.0471 45.1699 24.9338C45.0032 24.8271 44.7832 24.7738 44.5099 24.7738C44.2699 24.7738 44.0732 24.8171 43.9199 24.9038C43.7666 24.9904 43.6899 25.1104 43.6899 25.2638C43.6899 25.4104 43.7633 25.5204 43.9099 25.5938C44.0633 25.6671 44.3166 25.7471 44.6699 25.8338C44.7499 25.8538 44.8399 25.8771 44.9399 25.9038C45.0466 25.9304 45.1566 25.9604 45.2699 25.9938C45.7899 26.1471 46.1999 26.3438 46.4999 26.5838C46.7999 26.8304 46.9499 27.1837 46.9499 27.6437C46.9499 28.1837 46.7366 28.6071 46.3099 28.9137C45.8832 29.2204 45.3066 29.3738 44.5799 29.3738ZM55.0899 21.6838C55.1299 21.6238 55.1832 21.5938 55.2499 21.5938H56.5399C56.5733 21.5938 56.6032 21.6071 56.6299 21.6338C56.6566 21.6604 56.6699 21.6904 56.6699 21.7238V29.1637C56.6699 29.1971 56.6566 29.2271 56.6299 29.2537C56.6032 29.2804 56.5733 29.2938 56.5399 29.2938H55.2499C55.2099 29.2938 55.1799 29.2804 55.1599 29.2537C55.1333 29.2271 55.1199 29.1971 55.1199 29.1637V24.3138C55.1199 24.2804 55.1099 24.2638 55.0899 24.2638C55.0766 24.2638 55.0633 24.2771 55.0499 24.3037L53.8799 26.1238C53.8466 26.1838 53.7966 26.2137 53.7299 26.2137H53.0799C53.0133 26.2137 52.9632 26.1838 52.9299 26.1238L51.7599 24.3037C51.7466 24.2771 51.7333 24.2671 51.7199 24.2738C51.7066 24.2738 51.6999 24.2904 51.6999 24.3237V29.1637C51.6999 29.1971 51.6866 29.2271 51.6599 29.2537C51.6333 29.2804 51.5999 29.2938 51.5599 29.2938H50.2799C50.2399 29.2938 50.2066 29.2804 50.1799 29.2537C50.1532 29.2271 50.1399 29.1971 50.1399 29.1637V21.7238C50.1399 21.6904 50.1532 21.6604 50.1799 21.6338C50.2066 21.6071 50.2399 21.5938 50.2799 21.5938H51.5599C51.6266 21.5938 51.6799 21.6238 51.7199 21.6838L53.3699 24.2438C53.3899 24.2904 53.4099 24.2904 53.4299 24.2438L55.0899 21.6838ZM60.4099 29.3838C59.7899 29.3838 59.2599 29.2204 58.8199 28.8937C58.3799 28.5737 58.0799 28.1337 57.9199 27.5737C57.8199 27.2337 57.7699 26.8604 57.7699 26.4538C57.7699 26.0204 57.8199 25.6338 57.9199 25.2938C58.0866 24.7471 58.3933 24.3204 58.8399 24.0138C59.2733 23.7071 59.7999 23.5537 60.4199 23.5537C61.0199 23.5537 61.5332 23.7037 61.9599 24.0037C62.3866 24.3104 62.6866 24.7371 62.8599 25.2838C62.9799 25.6504 63.0399 26.0338 63.0399 26.4338C63.0399 26.8271 62.9866 27.1971 62.8799 27.5438C62.7199 28.1171 62.4232 28.5671 61.9899 28.8937C61.5499 29.2204 61.0233 29.3838 60.4099 29.3838ZM60.4099 28.0537C60.6499 28.0537 60.8532 27.9804 61.0199 27.8338C61.1932 27.6871 61.3166 27.4838 61.3899 27.2238C61.4499 26.9904 61.4799 26.7338 61.4799 26.4538C61.4799 26.1471 61.4499 25.8871 61.3899 25.6738C61.3099 25.4271 61.1833 25.2338 61.0099 25.0938C60.8433 24.9537 60.6399 24.8838 60.3999 24.8838C60.1466 24.8838 59.9399 24.9537 59.7799 25.0938C59.6132 25.2338 59.4932 25.4271 59.4199 25.6738C59.3599 25.8538 59.3299 26.1138 59.3299 26.4538C59.3299 26.7871 59.3566 27.0438 59.4099 27.2238C59.4833 27.4838 59.6066 27.6871 59.7799 27.8338C59.9466 27.9804 60.1566 28.0537 60.4099 28.0537ZM66.2899 29.3738C65.8033 29.3738 65.3766 29.3037 65.0099 29.1637C64.6433 29.0237 64.3566 28.8304 64.1499 28.5838C63.9499 28.3304 63.8499 28.0471 63.8499 27.7337V27.6238C63.8499 27.5838 63.8632 27.5504 63.8899 27.5238C63.9166 27.5038 63.9466 27.4938 63.9799 27.4938H65.1999C65.2399 27.4938 65.2732 27.5038 65.2999 27.5238C65.3266 27.5504 65.3399 27.5838 65.3399 27.6238V27.6338C65.3399 27.7938 65.4299 27.9304 65.6099 28.0438C65.7899 28.1571 66.0132 28.2137 66.2799 28.2137C66.5332 28.2137 66.7366 28.1638 66.8899 28.0638C67.0432 27.9638 67.1199 27.8438 67.1199 27.7038C67.1199 27.5704 67.0532 27.4704 66.9199 27.4038C66.7866 27.3371 66.5699 27.2671 66.2699 27.1938C65.9232 27.1071 65.6532 27.0238 65.4599 26.9438C64.9866 26.7771 64.6132 26.5771 64.3399 26.3438C64.0599 26.1104 63.9199 25.7738 63.9199 25.3338C63.9199 24.7938 64.1299 24.3638 64.5499 24.0438C64.9699 23.7238 65.5299 23.5638 66.2299 23.5638C66.6966 23.5638 67.1066 23.6371 67.4599 23.7838C67.8132 23.9371 68.0866 24.1504 68.2799 24.4238C68.4732 24.6904 68.5699 24.9971 68.5699 25.3438C68.5699 25.3837 68.5566 25.4138 68.5299 25.4338C68.5032 25.4604 68.4732 25.4738 68.4399 25.4738H67.2599C67.2266 25.4738 67.1966 25.4604 67.1699 25.4338C67.1432 25.4138 67.1299 25.3837 67.1299 25.3438C67.1299 25.1838 67.0466 25.0471 66.8799 24.9338C66.7132 24.8271 66.4966 24.7738 66.2299 24.7738C65.9832 24.7738 65.7832 24.8171 65.6299 24.9038C65.4766 24.9904 65.3999 25.1104 65.3999 25.2638C65.3999 25.4104 65.4766 25.5204 65.6299 25.5938C65.7766 25.6671 66.0266 25.7471 66.3799 25.8338L66.6599 25.9038L66.9899 25.9938C67.5099 26.1471 67.9199 26.3438 68.2199 26.5838C68.5199 26.8304 68.6699 27.1837 68.6699 27.6437C68.6699 28.1837 68.4566 28.6071 68.0299 28.9137C67.5966 29.2204 67.0166 29.3738 66.2899 29.3738ZM72.7899 24.7537C72.7899 24.7871 72.7799 24.8171 72.7599 24.8438C72.7333 24.8704 72.6999 24.8838 72.6599 24.8838H71.6099C71.5699 24.8838 71.5499 24.9004 71.5499 24.9338V27.2738C71.5499 27.5138 71.5999 27.6938 71.6999 27.8138C71.7999 27.9271 71.9599 27.9837 72.1799 27.9837H72.5399C72.5799 27.9837 72.6099 27.9971 72.6299 28.0238C72.6566 28.0504 72.6699 28.0804 72.6699 28.1138V29.1637C72.6699 29.2437 72.6266 29.2904 72.5399 29.3037C72.2333 29.3171 72.0132 29.3237 71.8799 29.3237C71.2732 29.3237 70.8199 29.2238 70.5199 29.0238C70.2199 28.8238 70.0666 28.4438 70.0599 27.8838V24.9338C70.0599 24.9004 70.0399 24.8838 69.9999 24.8838H69.3699C69.3366 24.8838 69.3066 24.8704 69.2799 24.8438C69.2532 24.8171 69.2399 24.7871 69.2399 24.7537V23.7738C69.2399 23.7338 69.2532 23.7004 69.2799 23.6738C69.3066 23.6538 69.3366 23.6437 69.3699 23.6437H69.9999C70.0399 23.6437 70.0599 23.6238 70.0599 23.5838V22.2738C70.0599 22.2404 70.0699 22.2104 70.0899 22.1838C70.1166 22.1571 70.1499 22.1438 70.1899 22.1438H71.4199C71.4532 22.1438 71.4833 22.1571 71.5099 22.1838C71.5366 22.2104 71.5499 22.2404 71.5499 22.2738V23.5838C71.5499 23.6238 71.5699 23.6437 71.6099 23.6437H72.6599C72.6999 23.6437 72.7333 23.6538 72.7599 23.6738C72.7799 23.7004 72.7899 23.7338 72.7899 23.7738V24.7537Z" fill="#252530"></path><path d="M26.63 59.7788C26.6633 59.7254 26.71 59.6988 26.77 59.6988H27.69C27.7233 59.6988 27.75 59.7121 27.77 59.7388C27.7967 59.7588 27.81 59.7854 27.81 59.8187V66.5788C27.81 66.6121 27.7967 66.6388 27.77 66.6588C27.75 66.6854 27.7233 66.6988 27.69 66.6988H26.77C26.7367 66.6988 26.7067 66.6854 26.68 66.6588C26.66 66.6388 26.65 66.6121 26.65 66.5788V61.8088C26.65 61.7888 26.6433 61.7754 26.63 61.7688C26.61 61.7621 26.5967 61.7687 26.59 61.7887L25.34 63.7088C25.3067 63.7621 25.26 63.7887 25.2 63.7887H24.74C24.68 63.7887 24.6333 63.7621 24.6 63.7088L23.34 61.7988C23.3333 61.7788 23.3233 61.7721 23.31 61.7788C23.29 61.7854 23.28 61.7987 23.28 61.8187V66.5788C23.28 66.6121 23.2667 66.6388 23.24 66.6588C23.22 66.6854 23.1933 66.6988 23.16 66.6988H22.24C22.2067 66.6988 22.18 66.6854 22.16 66.6588C22.1333 66.6388 22.12 66.6121 22.12 66.5788V59.8187C22.12 59.7854 22.1333 59.7588 22.16 59.7388C22.18 59.7121 22.2067 59.6988 22.24 59.6988H23.16C23.22 59.6988 23.2667 59.7254 23.3 59.7788L24.93 62.2487C24.9433 62.2621 24.9567 62.2688 24.97 62.2688C24.9833 62.2688 24.9933 62.2621 25 62.2487L26.63 59.7788ZM29.82 60.8887C29.6133 60.8887 29.4433 60.8221 29.31 60.6888C29.1767 60.5554 29.11 60.3854 29.11 60.1787C29.11 59.9721 29.1767 59.8021 29.31 59.6688C29.4433 59.5354 29.6133 59.4688 29.82 59.4688C30.0267 59.4688 30.1967 59.5354 30.33 59.6688C30.4633 59.8021 30.53 59.9721 30.53 60.1787C30.53 60.3854 30.4633 60.5554 30.33 60.6888C30.1967 60.8221 30.0267 60.8887 29.82 60.8887ZM29.34 66.6988C29.3067 66.6988 29.28 66.6854 29.26 66.6588C29.2333 66.6388 29.22 66.6121 29.22 66.5788V61.6988C29.22 61.6654 29.2333 61.6388 29.26 61.6188C29.28 61.5921 29.3067 61.5788 29.34 61.5788H30.26C30.2933 61.5788 30.3233 61.5921 30.35 61.6188C30.37 61.6388 30.38 61.6654 30.38 61.6988V66.5788C30.38 66.6121 30.37 66.6388 30.35 66.6588C30.3233 66.6854 30.2933 66.6988 30.26 66.6988H29.34ZM34.88 59.8187C34.88 59.7854 34.8933 59.7588 34.92 59.7388C34.94 59.7121 34.9667 59.6988 35 59.6988H35.92C35.9533 59.6988 35.9833 59.7121 36.01 59.7388C36.03 59.7588 36.04 59.7854 36.04 59.8187V66.5788C36.04 66.6121 36.03 66.6388 36.01 66.6588C35.9833 66.6854 35.9533 66.6988 35.92 66.6988H35C34.9667 66.6988 34.94 66.6854 34.92 66.6588C34.8933 66.6388 34.88 66.6121 34.88 66.5788V66.2788C34.88 66.2588 34.8733 66.2454 34.86 66.2388C34.8467 66.2321 34.8333 66.2388 34.82 66.2588C34.5267 66.6054 34.1433 66.7788 33.67 66.7788C33.1967 66.7788 32.7967 66.6554 32.47 66.4088C32.1433 66.1621 31.9067 65.8188 31.76 65.3788C31.64 65.0054 31.58 64.5888 31.58 64.1288C31.58 63.6554 31.6367 63.2488 31.75 62.9088C31.8967 62.4688 32.1333 62.1254 32.46 61.8788C32.7867 61.6321 33.1967 61.5088 33.69 61.5088C34.15 61.5088 34.5267 61.6754 34.82 62.0088C34.8333 62.0221 34.8467 62.0288 34.86 62.0288C34.8733 62.0221 34.88 62.0088 34.88 61.9888V59.8187ZM34.64 65.2988C34.7933 65.0254 34.87 64.6387 34.87 64.1387C34.87 63.6187 34.7867 63.2221 34.62 62.9488C34.44 62.6554 34.1867 62.5088 33.86 62.5088C33.52 62.5088 33.2533 62.6487 33.06 62.9287C32.86 63.2221 32.76 63.6288 32.76 64.1488C32.76 64.6154 32.84 64.9988 33 65.2988C33.1867 65.6188 33.47 65.7788 33.85 65.7788C34.19 65.7788 34.4533 65.6188 34.64 65.2988ZM37.12 64.1888C37.0867 64.1888 37.06 64.1788 37.04 64.1588C37.0133 64.1321 37 64.1021 37 64.0687V63.3088C37 63.2754 37.0133 63.2454 37.04 63.2188C37.06 63.1988 37.0867 63.1888 37.12 63.1888H40.27C40.3033 63.1888 40.33 63.1988 40.35 63.2188C40.3767 63.2454 40.39 63.2754 40.39 63.3088V64.0687C40.39 64.1021 40.3767 64.1321 40.35 64.1588C40.33 64.1788 40.3033 64.1888 40.27 64.1888H37.12ZM45.96 59.7788C45.9933 59.7254 46.04 59.6988 46.1 59.6988H47.02C47.0533 59.6988 47.0833 59.7121 47.11 59.7388C47.13 59.7588 47.14 59.7854 47.14 59.8187V66.5788C47.14 66.6121 47.13 66.6388 47.11 66.6588C47.0833 66.6854 47.0533 66.6988 47.02 66.6988H46.1C46.0667 66.6988 46.04 66.6854 46.02 66.6588C45.9933 66.6388 45.98 66.6121 45.98 66.5788V61.8088C45.98 61.7888 45.9733 61.7754 45.96 61.7688C45.94 61.7621 45.9267 61.7687 45.92 61.7887L44.67 63.7088C44.6367 63.7621 44.59 63.7887 44.53 63.7887H44.07C44.01 63.7887 43.9633 63.7621 43.93 63.7088L42.67 61.7988C42.6633 61.7788 42.6533 61.7721 42.64 61.7788C42.62 61.7854 42.61 61.7987 42.61 61.8187V66.5788C42.61 66.6121 42.6 66.6388 42.58 66.6588C42.5533 66.6854 42.5233 66.6988 42.49 66.6988H41.57C41.5367 66.6988 41.51 66.6854 41.49 66.6588C41.4633 66.6388 41.45 66.6121 41.45 66.5788V59.8187C41.45 59.7854 41.4633 59.7588 41.49 59.7388C41.51 59.7121 41.5367 59.6988 41.57 59.6988H42.49C42.55 59.6988 42.5967 59.7254 42.63 59.7788L44.26 62.2487C44.2733 62.2621 44.2867 62.2688 44.3 62.2688C44.3133 62.2688 44.3233 62.2621 44.33 62.2487L45.96 59.7788ZM50.44 61.5088C50.86 61.5088 51.23 61.5821 51.55 61.7288C51.87 61.8754 52.1167 62.0754 52.29 62.3288C52.4633 62.5888 52.55 62.8821 52.55 63.2088V66.5788C52.55 66.6121 52.54 66.6388 52.52 66.6588C52.4933 66.6854 52.4633 66.6988 52.43 66.6988H51.51C51.4767 66.6988 51.45 66.6854 51.43 66.6588C51.4033 66.6388 51.39 66.6121 51.39 66.5788V66.2588C51.39 66.2388 51.3833 66.2254 51.37 66.2188C51.3567 66.2188 51.3433 66.2254 51.33 66.2388C51.0033 66.5988 50.53 66.7788 49.91 66.7788C49.41 66.7788 49 66.6521 48.68 66.3988C48.3533 66.1454 48.19 65.7688 48.19 65.2688C48.19 64.7488 48.3733 64.3421 48.74 64.0488C49.1 63.7621 49.61 63.6188 50.27 63.6188H51.34C51.3733 63.6188 51.39 63.6021 51.39 63.5687V63.3288C51.39 63.0688 51.3133 62.8654 51.16 62.7188C51.0067 62.5787 50.7767 62.5088 50.47 62.5088C50.2167 62.5088 50.0133 62.5554 49.86 62.6488C49.7 62.7354 49.6 62.8588 49.56 63.0188C49.54 63.0988 49.4933 63.1321 49.42 63.1188L48.45 62.9987C48.4167 62.9921 48.39 62.9821 48.37 62.9688C48.3433 62.9488 48.3333 62.9254 48.34 62.8988C48.3933 62.4921 48.6133 62.1588 49 61.8988C49.38 61.6388 49.86 61.5088 50.44 61.5088ZM50.2 65.8587C50.5267 65.8587 50.8067 65.7721 51.04 65.5988C51.2733 65.4254 51.39 65.2054 51.39 64.9388V64.4688C51.39 64.4354 51.3733 64.4188 51.34 64.4188H50.5C50.1467 64.4188 49.87 64.4854 49.67 64.6188C49.4633 64.7521 49.36 64.9421 49.36 65.1888C49.36 65.4021 49.44 65.5654 49.6 65.6787C49.7533 65.7987 49.9533 65.8587 50.2 65.8587ZM56.09 61.5288C56.3033 61.5288 56.49 61.5721 56.65 61.6588C56.7033 61.6854 56.7233 61.7354 56.71 61.8088L56.54 62.7088C56.5333 62.7888 56.4867 62.8121 56.4 62.7788C56.3 62.7454 56.1833 62.7288 56.05 62.7288C55.9633 62.7288 55.8967 62.7321 55.85 62.7388C55.57 62.7521 55.3367 62.8488 55.15 63.0288C54.9633 63.2154 54.87 63.4554 54.87 63.7487V66.5788C54.87 66.6121 54.86 66.6388 54.84 66.6588C54.8133 66.6854 54.7833 66.6988 54.75 66.6988H53.83C53.7967 66.6988 53.77 66.6854 53.75 66.6588C53.7233 66.6388 53.71 66.6121 53.71 66.5788V61.7088C53.71 61.6754 53.7233 61.6454 53.75 61.6188C53.77 61.5988 53.7967 61.5888 53.83 61.5888H54.75C54.7833 61.5888 54.8133 61.5988 54.84 61.6188C54.86 61.6454 54.87 61.6754 54.87 61.7088V62.1588C54.87 62.1854 54.8767 62.1988 54.89 62.1988C54.8967 62.2054 54.9067 62.1987 54.92 62.1787C55.2 61.7454 55.59 61.5288 56.09 61.5288ZM57.59 66.6988C57.5567 66.6988 57.53 66.6854 57.51 66.6588C57.4833 66.6388 57.47 66.6121 57.47 66.5788V59.8187C57.47 59.7854 57.4833 59.7588 57.51 59.7388C57.53 59.7121 57.5567 59.6988 57.59 59.6988H58.51C58.5433 59.6988 58.57 59.7121 58.59 59.7388C58.6167 59.7588 58.63 59.7854 58.63 59.8187V63.4287C58.63 63.4487 58.6367 63.4621 58.65 63.4688C58.6633 63.4754 58.6767 63.4688 58.69 63.4488L60.31 61.6588C60.3567 61.6121 60.4067 61.5888 60.46 61.5888H61.52C61.5867 61.5888 61.62 61.6121 61.62 61.6588C61.62 61.6788 61.61 61.7054 61.59 61.7388L60.32 63.2588C60.3 63.2788 60.2967 63.3021 60.31 63.3288L61.81 66.5588C61.8233 66.5854 61.83 66.6054 61.83 66.6188C61.83 66.6721 61.7933 66.6988 61.72 66.6988H60.75C60.6833 66.6988 60.6367 66.6687 60.61 66.6087L59.52 64.0687C59.5133 64.0554 59.5 64.0454 59.48 64.0387C59.4667 64.0387 59.4567 64.0454 59.45 64.0588L58.65 64.9788C58.6367 65.0054 58.63 65.0288 58.63 65.0488V66.5788C58.63 66.6121 58.6167 66.6388 58.59 66.6588C58.57 66.6854 58.5433 66.6988 58.51 66.6988H57.59ZM66.64 63.5687C66.6667 63.7354 66.68 63.9221 66.68 64.1288L66.67 64.4388C66.67 64.5188 66.63 64.5588 66.55 64.5588H63.42C63.3867 64.5588 63.37 64.5754 63.37 64.6087C63.39 64.8287 63.42 64.9788 63.46 65.0588C63.62 65.5388 64.01 65.7821 64.63 65.7887C65.0833 65.7887 65.4433 65.6021 65.71 65.2288C65.7367 65.1888 65.77 65.1688 65.81 65.1688C65.8367 65.1688 65.86 65.1788 65.88 65.1988L66.5 65.7088C66.56 65.7554 66.57 65.8088 66.53 65.8688C66.3233 66.1621 66.0467 66.3888 65.7 66.5488C65.36 66.7088 64.98 66.7887 64.56 66.7887C64.04 66.7887 63.5967 66.6721 63.23 66.4388C62.87 66.2054 62.6067 65.8788 62.44 65.4588C62.2867 65.0988 62.21 64.5988 62.21 63.9588C62.21 63.5721 62.25 63.2588 62.33 63.0188C62.4633 62.5521 62.7167 62.1821 63.09 61.9088C63.4567 61.6421 63.9 61.5088 64.42 61.5088C65.7333 61.5088 66.4733 62.1954 66.64 63.5687ZM64.42 62.5088C64.1733 62.5088 63.9667 62.5721 63.8 62.6988C63.64 62.8188 63.5267 62.9888 63.46 63.2088C63.42 63.3221 63.3933 63.4688 63.38 63.6488C63.3667 63.6821 63.38 63.6988 63.42 63.6988H65.45C65.4833 63.6988 65.5 63.6821 65.5 63.6488C65.4867 63.4821 65.4667 63.3554 65.44 63.2688C65.38 63.0288 65.2633 62.8421 65.09 62.7088C64.91 62.5754 64.6867 62.5088 64.42 62.5088ZM70.35 62.4088C70.35 62.4421 70.34 62.4688 70.32 62.4888C70.2933 62.5154 70.2633 62.5288 70.23 62.5288H69.21C69.1767 62.5288 69.16 62.5454 69.16 62.5788V64.9888C69.16 65.2421 69.2167 65.4254 69.33 65.5387C69.4367 65.6521 69.61 65.7088 69.85 65.7088H70.15C70.1833 65.7088 70.21 65.7188 70.23 65.7388C70.2567 65.7654 70.27 65.7954 70.27 65.8288V66.5788C70.27 66.6521 70.23 66.6954 70.15 66.7088L69.63 66.7188C69.1033 66.7188 68.71 66.6288 68.45 66.4488C68.19 66.2688 68.0567 65.9287 68.05 65.4287V62.5788C68.05 62.5454 68.0333 62.5288 68 62.5288H67.43C67.3967 62.5288 67.37 62.5154 67.35 62.4888C67.3233 62.4688 67.31 62.4421 67.31 62.4088V61.7088C67.31 61.6754 67.3233 61.6454 67.35 61.6188C67.37 61.5988 67.3967 61.5888 67.43 61.5888H68C68.0333 61.5888 68.05 61.5721 68.05 61.5387V60.3688C68.05 60.3354 68.0633 60.3054 68.09 60.2788C68.11 60.2588 68.1367 60.2487 68.17 60.2487H69.04C69.0733 60.2487 69.1 60.2588 69.12 60.2788C69.1467 60.3054 69.16 60.3354 69.16 60.3688V61.5387C69.16 61.5721 69.1767 61.5888 69.21 61.5888H70.23C70.2633 61.5888 70.2933 61.5988 70.32 61.6188C70.34 61.6454 70.35 61.6754 70.35 61.7088V62.4088Z" fill="white"></path><path d="M30.76 80.7969C30.6866 80.7969 30.64 80.7635 30.62 80.6969L28.85 73.9269L28.84 73.8869C28.84 73.8269 28.8766 73.7969 28.95 73.7969H30.19C30.2566 73.7969 30.3 73.8302 30.32 73.8969L31.27 77.9669C31.2766 77.9935 31.2866 78.0069 31.3 78.0069C31.3133 78.0069 31.3233 77.9935 31.33 77.9669L32.25 73.9069C32.27 73.8335 32.3133 73.7969 32.38 73.7969H33.59C33.6633 73.7969 33.71 73.8302 33.73 73.8969L34.73 77.9669C34.7366 77.9869 34.7466 78.0002 34.76 78.0069C34.7733 78.0069 34.7833 77.9935 34.79 77.9669L35.71 73.9069C35.73 73.8335 35.7733 73.7969 35.84 73.7969H37.02C37.1133 73.7969 37.15 73.8402 37.13 73.9269L35.49 80.6969C35.47 80.7635 35.4233 80.7969 35.35 80.7969H34.16C34.0933 80.7969 34.05 80.7635 34.03 80.6969L33.01 76.3669C33.0033 76.3402 32.9933 76.3269 32.98 76.3269C32.9666 76.3269 32.9566 76.3402 32.95 76.3669L32 80.6869C31.9866 80.7602 31.9433 80.7969 31.87 80.7969H30.76ZM38.1 80.7969C38.0666 80.7969 38.0366 80.7835 38.01 80.7569C37.99 80.7369 37.98 80.7102 37.98 80.6769V73.9169C37.98 73.8835 37.99 73.8569 38.01 73.8369C38.0366 73.8102 38.0666 73.7969 38.1 73.7969H39.27C39.3033 73.7969 39.33 73.8102 39.35 73.8369C39.3766 73.8569 39.39 73.8835 39.39 73.9169V80.6769C39.39 80.7102 39.3766 80.7369 39.35 80.7569C39.33 80.7835 39.3033 80.7969 39.27 80.7969H38.1ZM44.63 73.9169C44.63 73.8835 44.64 73.8569 44.66 73.8369C44.6866 73.8102 44.7166 73.7969 44.75 73.7969H45.92C45.9533 73.7969 45.98 73.8102 46 73.8369C46.0266 73.8569 46.04 73.8835 46.04 73.9169V80.6769C46.04 80.7102 46.0266 80.7369 46 80.7569C45.98 80.7835 45.9533 80.7969 45.92 80.7969H44.79C44.7233 80.7969 44.6766 80.7702 44.65 80.7169L42.06 76.4369C42.0466 76.4169 42.0333 76.4102 42.02 76.4169C42.0066 76.4169 42 76.4302 42 76.4569L42.02 80.6769C42.02 80.7102 42.0066 80.7369 41.98 80.7569C41.96 80.7835 41.9333 80.7969 41.9 80.7969H40.73C40.6966 80.7969 40.6666 80.7835 40.64 80.7569C40.62 80.7369 40.61 80.7102 40.61 80.6769V73.9169C40.61 73.8835 40.62 73.8569 40.64 73.8369C40.6666 73.8102 40.6966 73.7969 40.73 73.7969H41.86C41.9266 73.7969 41.9733 73.8235 42 73.8769L44.58 78.1369C44.5933 78.1569 44.6066 78.1635 44.62 78.1569C44.6333 78.1569 44.64 78.1435 44.64 78.1169L44.63 73.9169ZM52.09 73.7969C52.1233 73.7969 52.15 73.8102 52.17 73.8369C52.1966 73.8569 52.21 73.8835 52.21 73.9169V74.8969C52.21 74.9302 52.1966 74.9569 52.17 74.9769C52.15 75.0035 52.1233 75.0169 52.09 75.0169H50.3C50.2666 75.0169 50.25 75.0335 50.25 75.0669V80.6769C50.25 80.7102 50.2366 80.7369 50.21 80.7569C50.19 80.7835 50.1633 80.7969 50.13 80.7969H48.96C48.9266 80.7969 48.8966 80.7835 48.87 80.7569C48.85 80.7369 48.84 80.7102 48.84 80.6769V75.0669C48.84 75.0335 48.8233 75.0169 48.79 75.0169H47.05C47.0166 75.0169 46.9866 75.0035 46.96 74.9769C46.94 74.9569 46.93 74.9302 46.93 74.8969V73.9169C46.93 73.8835 46.94 73.8569 46.96 73.8369C46.9866 73.8102 47.0166 73.7969 47.05 73.7969H52.09ZM57.97 74.8869C57.97 74.9202 57.96 74.9469 57.94 74.9669C57.9133 74.9935 57.8833 75.0069 57.85 75.0069H54.57C54.5366 75.0069 54.52 75.0235 54.52 75.0569V76.6069C54.52 76.6402 54.5366 76.6569 54.57 76.6569H56.72C56.7533 76.6569 56.78 76.6669 56.8 76.6869C56.8266 76.7135 56.84 76.7435 56.84 76.7769V77.7469C56.84 77.7802 56.8266 77.8102 56.8 77.8369C56.78 77.8569 56.7533 77.8669 56.72 77.8669H54.57C54.5366 77.8669 54.52 77.8835 54.52 77.9169V79.5369C54.52 79.5702 54.5366 79.5869 54.57 79.5869H57.85C57.8833 79.5869 57.9133 79.5969 57.94 79.6169C57.96 79.6435 57.97 79.6735 57.97 79.7069V80.6769C57.97 80.7102 57.96 80.7369 57.94 80.7569C57.9133 80.7835 57.8833 80.7969 57.85 80.7969H53.23C53.1966 80.7969 53.1666 80.7835 53.14 80.7569C53.12 80.7369 53.11 80.7102 53.11 80.6769V73.9169C53.11 73.8835 53.12 73.8569 53.14 73.8369C53.1666 73.8102 53.1966 73.7969 53.23 73.7969H57.85C57.8833 73.7969 57.9133 73.8102 57.94 73.8369C57.96 73.8569 57.97 73.8835 57.97 73.9169V74.8869ZM62.79 80.7969C62.7233 80.7969 62.6766 80.7669 62.65 80.7069L61.4 77.9369C61.3866 77.9102 61.3666 77.8969 61.34 77.8969H60.41C60.3766 77.8969 60.36 77.9135 60.36 77.9469V80.6769C60.36 80.7102 60.3466 80.7369 60.32 80.7569C60.3 80.7835 60.2733 80.7969 60.24 80.7969H59.07C59.0366 80.7969 59.0066 80.7835 58.98 80.7569C58.96 80.7369 58.95 80.7102 58.95 80.6769V73.9169C58.95 73.8835 58.96 73.8569 58.98 73.8369C59.0066 73.8102 59.0366 73.7969 59.07 73.7969H61.93C62.3566 73.7969 62.73 73.8835 63.05 74.0569C63.3766 74.2302 63.6266 74.4769 63.8 74.7969C63.98 75.1169 64.07 75.4869 64.07 75.9069C64.07 76.3602 63.9566 76.7469 63.73 77.0669C63.5033 77.3935 63.1866 77.6235 62.78 77.7569C62.7466 77.7702 62.7366 77.7935 62.75 77.8269L64.11 80.6569C64.1233 80.6835 64.13 80.7035 64.13 80.7169C64.13 80.7702 64.0933 80.7969 64.02 80.7969H62.79ZM60.41 75.0069C60.3766 75.0069 60.36 75.0235 60.36 75.0569V76.7669C60.36 76.8002 60.3766 76.8169 60.41 76.8169H61.72C62 76.8169 62.2266 76.7335 62.4 76.5669C62.58 76.4002 62.67 76.1835 62.67 75.9169C62.67 75.6502 62.58 75.4302 62.4 75.2569C62.2266 75.0902 62 75.0069 61.72 75.0069H60.41ZM37.28 88.9269C37.2666 88.9402 37.2633 88.9535 37.27 88.9669C37.2766 88.9802 37.29 88.9869 37.31 88.9869H40.02C40.0533 88.9869 40.0833 88.9969 40.11 89.0169C40.13 89.0435 40.14 89.0735 40.14 89.1069V90.0769C40.14 90.1102 40.13 90.1369 40.11 90.1569C40.0833 90.1835 40.0533 90.1969 40.02 90.1969H35.52C35.4866 90.1969 35.4566 90.1835 35.43 90.1569C35.41 90.1369 35.4 90.1102 35.4 90.0769V89.1569C35.4 89.0969 35.42 89.0469 35.46 89.0069C35.7866 88.6869 36.12 88.3402 36.46 87.9669C36.8 87.5869 37.0133 87.3502 37.1 87.2569C37.2866 87.0369 37.4766 86.8269 37.67 86.6269C38.2766 85.9535 38.58 85.4535 38.58 85.1269C38.58 84.8935 38.4966 84.7002 38.33 84.5469C38.1633 84.4002 37.9466 84.3269 37.68 84.3269C37.4133 84.3269 37.1966 84.4002 37.03 84.5469C36.8633 84.7002 36.78 84.9002 36.78 85.1469V85.3969C36.78 85.4302 36.7666 85.4602 36.74 85.4869C36.72 85.5069 36.6933 85.5169 36.66 85.5169H35.48C35.4466 85.5169 35.42 85.5069 35.4 85.4869C35.3733 85.4602 35.36 85.4302 35.36 85.3969V84.9269C35.38 84.5669 35.4933 84.2469 35.7 83.9669C35.9066 83.6935 36.18 83.4835 36.52 83.3369C36.8666 83.1902 37.2533 83.1169 37.68 83.1169C38.1533 83.1169 38.5666 83.2035 38.92 83.3769C39.2666 83.5569 39.5366 83.7969 39.73 84.0969C39.9166 84.3969 40.01 84.7302 40.01 85.0969C40.01 85.3769 39.94 85.6635 39.8 85.9569C39.66 86.2502 39.45 86.5669 39.17 86.9069C38.9633 87.1669 38.74 87.4235 38.5 87.6769C38.26 87.9302 37.9033 88.2969 37.43 88.7769L37.28 88.9269ZM43.39 90.3069C42.6566 90.3069 42.0766 90.1002 41.65 89.6869C41.2233 89.2802 41.01 88.7235 41.01 88.0169V85.3769C41.01 84.6835 41.2233 84.1335 41.65 83.7269C42.0766 83.3202 42.6566 83.1169 43.39 83.1169C44.1233 83.1169 44.7066 83.3202 45.14 83.7269C45.5666 84.1335 45.78 84.6835 45.78 85.3769V88.0169C45.78 88.7235 45.5666 89.2802 45.14 89.6869C44.7066 90.1002 44.1233 90.3069 43.39 90.3069ZM43.39 89.0969C43.69 89.0969 43.93 89.0035 44.11 88.8169C44.2833 88.6369 44.37 88.3935 44.37 88.0869V85.3369C44.37 85.0302 44.2833 84.7869 44.11 84.6069C43.93 84.4202 43.69 84.3269 43.39 84.3269C43.0966 84.3269 42.8633 84.4202 42.69 84.6069C42.51 84.7869 42.42 85.0302 42.42 85.3369V88.0869C42.42 88.3935 42.51 88.6369 42.69 88.8169C42.8633 89.0035 43.0966 89.0969 43.39 89.0969ZM48.58 88.9269C48.5666 88.9402 48.5633 88.9535 48.57 88.9669C48.5766 88.9802 48.59 88.9869 48.61 88.9869H51.32C51.3533 88.9869 51.3833 88.9969 51.41 89.0169C51.43 89.0435 51.44 89.0735 51.44 89.1069V90.0769C51.44 90.1102 51.43 90.1369 51.41 90.1569C51.3833 90.1835 51.3533 90.1969 51.32 90.1969H46.82C46.7866 90.1969 46.76 90.1835 46.74 90.1569C46.7133 90.1369 46.7 90.1102 46.7 90.0769V89.1569C46.7 89.0969 46.72 89.0469 46.76 89.0069C47.0866 88.6869 47.42 88.3402 47.76 87.9669C48.1 87.5869 48.3133 87.3502 48.4 87.2569C48.5866 87.0369 48.7766 86.8269 48.97 86.6269C49.5766 85.9535 49.88 85.4535 49.88 85.1269C49.88 84.8935 49.7966 84.7002 49.63 84.5469C49.4633 84.4002 49.2466 84.3269 48.98 84.3269C48.7133 84.3269 48.4966 84.4002 48.33 84.5469C48.1633 84.7002 48.08 84.9002 48.08 85.1469V85.3969C48.08 85.4302 48.07 85.4602 48.05 85.4869C48.0233 85.5069 47.9933 85.5169 47.96 85.5169H46.78C46.7466 85.5169 46.72 85.5069 46.7 85.4869C46.6733 85.4602 46.66 85.4302 46.66 85.3969V84.9269C46.68 84.5669 46.7933 84.2469 47 83.9669C47.2066 83.6935 47.4833 83.4835 47.83 83.3369C48.17 83.1902 48.5533 83.1169 48.98 83.1169C49.4533 83.1169 49.8666 83.2035 50.22 83.3769C50.5666 83.5569 50.8366 83.7969 51.03 84.0969C51.2166 84.3969 51.31 84.7302 51.31 85.0969C51.31 85.3769 51.24 85.6635 51.1 85.9569C50.96 86.2502 50.75 86.5669 50.47 86.9069C50.2633 87.1669 50.04 87.4235 49.8 87.6769C49.56 87.9302 49.2033 88.2969 48.73 88.7769L48.58 88.9269ZM57.31 87.1469C57.3433 87.1469 57.3733 87.1569 57.4 87.1769C57.42 87.2035 57.43 87.2335 57.43 87.2669V88.2769C57.43 88.3102 57.42 88.3402 57.4 88.3669C57.3733 88.3869 57.3433 88.3969 57.31 88.3969H56.88C56.8466 88.3969 56.83 88.4135 56.83 88.4469V90.0769C56.83 90.1102 56.82 90.1369 56.8 90.1569C56.7733 90.1835 56.7433 90.1969 56.71 90.1969H55.54C55.5066 90.1969 55.48 90.1835 55.46 90.1569C55.4333 90.1369 55.42 90.1102 55.42 90.0769V88.4469C55.42 88.4135 55.4033 88.3969 55.37 88.3969H52.3C52.2666 88.3969 52.24 88.3869 52.22 88.3669C52.1933 88.3402 52.18 88.3102 52.18 88.2769V87.4769C52.18 87.4369 52.19 87.3869 52.21 87.3269L54.01 83.2869C54.0366 83.2269 54.0833 83.1969 54.15 83.1969H55.4C55.4466 83.1969 55.48 83.2102 55.5 83.2369C55.5133 83.2569 55.51 83.2902 55.49 83.3369L53.82 87.0869C53.8133 87.1002 53.8133 87.1135 53.82 87.1269C53.8266 87.1402 53.8366 87.1469 53.85 87.1469H55.37C55.4033 87.1469 55.42 87.1302 55.42 87.0969V85.8569C55.42 85.8235 55.4333 85.7969 55.46 85.7769C55.48 85.7502 55.5066 85.7369 55.54 85.7369H56.71C56.7433 85.7369 56.7733 85.7502 56.8 85.7769C56.82 85.7969 56.83 85.8235 56.83 85.8569V87.0969C56.83 87.1302 56.8466 87.1469 56.88 87.1469H57.31Z" fill="#252530"></path></svg>